<?xml version="1.0" standalone="no"?>
<!DOCTYPE svg PUBLIC "-//W3C//DTD SVG 1.1//EN" "http://www.w3.org/Graphics/SVG/1.1/DTD/svg11.dtd" >
<svg xmlns="http://www.w3.org/2000/svg" xmlns:xlink="http://www.w3.org/1999/xlink" version="1.1">
<metadata>
Created by FontForge 20170910 at Tue Mar 11 18:06:28 2008
 By Jimmy Wärting
Copyright (c) 2008 Elvis Mehmedovic
</metadata>
<defs>
<font id="px_sans_nouveaux" horiz-adv-x="750" >
  <font-face 
    font-family="px sans nouveaux"
    font-weight="400"
    font-stretch="normal"
    units-per-em="1000"
    panose-1="2 0 0 0 0 0 0 0 0 0"
    ascent="800"
    descent="-200"
    x-height="750"
    cap-height="1000"
    bbox="-3 -375 1875 1500"
    underline-thickness="125"
    underline-position="-125"
    unicode-range="U+0020-FB02"
  />
<missing-glyph horiz-adv-x="375" 
 />
    <glyph glyph-name=".notdef" horiz-adv-x="375" 
 />
    <glyph glyph-name=".null" horiz-adv-x="0" 
 />
    <glyph glyph-name="nonmarkingreturn" horiz-adv-x="375" 
 />
    <glyph glyph-name="space" unicode=" " horiz-adv-x="375" 
 />
    <glyph glyph-name="parenleft" unicode="(" horiz-adv-x="500" 
d="M250 1125h125v-125h-125v125zM125 1000h125v-125h-125v125zM125 875h125v-125h-125v125zM0 750h125v-125h-125v125zM0 625h125v-125h-125v125zM0 500h125v-125h-125v125zM0 375h125v-125h-125v125zM250 -125h125v-125h-125v125zM125 0h125v-125h-125v125zM125 125h125
v-125h-125v125zM0 250h125v-125h-125v125z" />
    <glyph glyph-name="parenright" unicode=")" horiz-adv-x="500" 
d="M0 1125h125v-125h-125v125zM125 1000h125v-125h-125v125zM125 875h125v-125h-125v125zM250 750h125v-125h-125v125zM250 625h125v-125h-125v125zM250 500h125v-125h-125v125zM250 375h125v-125h-125v125zM250 250h125v-125h-125v125zM125 125h125v-125h-125v125zM125 0
h125v-125h-125v125zM0 -125h125v-125h-125v125z" />
    <glyph glyph-name="asterisk" unicode="*" 
d="M0 875h125v-125h-125v125zM0 625h125v-125h-125v125zM125 750h125v-125h-125v125zM250 1000h125v-125h-125v125zM250 875h125v-125h-125v125zM250 750h125v-125h-125v125zM250 625h125v-125h-125v125zM250 500h125v-125h-125v125zM375 750h125v-125h-125v125zM500 875
h125v-125h-125v125zM500 625h125v-125h-125v125z" />
    <glyph glyph-name="plus" unicode="+" 
d="M0 500h125v-125h-125v125zM125 500h125v-125h-125v125zM250 500h125v-125h-125v125zM375 500h125v-125h-125v125zM250 625h125v-125h-125v125zM250 750h125v-125h-125v125zM250 375h125v-125h-125v125zM250 250h125v-125h-125v125zM500 500h125v-125h-125v125z" />
    <glyph glyph-name="comma" unicode="," horiz-adv-x="375" 
d="M125 125h125v-125h-125v125zM125 0h125v-125h-125v125zM0 -125h125v-125h-125v125z" />
    <glyph glyph-name="hyphen" unicode="-" horiz-adv-x="500" 
d="M0 500h125v-125h-125v125zM125 500h125v-125h-125v125zM250 500h125v-125h-125v125z" />
    <glyph glyph-name="period" unicode="." horiz-adv-x="250" 
d="M0 125h125v-125h-125v125z" />
    <glyph glyph-name="slash" unicode="/" horiz-adv-x="625" 
d="M0 125h125v-125h-125v125zM0 250h125v-125h-125v125zM125 375h125v-125h-125v125zM125 500h125v-125h-125v125zM250 625h125v-125h-125v125zM250 750h125v-125h-125v125zM375 875h125v-125h-125v125zM375 1000h125v-125h-125v125z" />
    <glyph glyph-name="zero" unicode="0" 
d="M125 125h125v-125h-125v125zM250 125h125v-125h-125v125zM375 125h125v-125h-125v125zM0 250h125v-125h-125v125zM0 375h125v-125h-125v125zM0 500h125v-125h-125v125zM0 625h125v-125h-125v125zM0 750h125v-125h-125v125zM0 875h125v-125h-125v125zM500 875h125v-125
h-125v125zM500 750h125v-125h-125v125zM500 625h125v-125h-125v125zM500 500h125v-125h-125v125zM500 375h125v-125h-125v125zM500 250h125v-125h-125v125zM125 1000h125v-125h-125v125zM250 1000h125v-125h-125v125zM375 1000h125v-125h-125v125z" />
    <glyph glyph-name="one" unicode="1" horiz-adv-x="500" 
d="M250 125h125v-125h-125v125zM250 250h125v-125h-125v125zM250 375h125v-125h-125v125zM250 500h125v-125h-125v125zM250 625h125v-125h-125v125zM250 750h125v-125h-125v125zM250 875h125v-125h-125v125zM250 1000h125v-125h-125v125zM125 875h125v-125h-125v125zM0 750
h125v-125h-125v125z" />
    <glyph glyph-name="two" unicode="2" 
d="M0 125h125v-125h-125v125zM125 125h125v-125h-125v125zM250 125h125v-125h-125v125zM375 125h125v-125h-125v125zM500 125h125v-125h-125v125zM125 250h125v-125h-125v125zM250 375h125v-125h-125v125zM375 500h125v-125h-125v125zM500 625h125v-125h-125v125zM500 750
h125v-125h-125v125zM500 875h125v-125h-125v125zM375 1000h125v-125h-125v125zM250 1000h125v-125h-125v125zM125 1000h125v-125h-125v125zM0 875h125v-125h-125v125z" />
    <glyph glyph-name="three" unicode="3" 
d="M500 500h125v-125h-125v125zM500 375h125v-125h-125v125zM500 750h125v-125h-125v125zM250 625h125v-125h-125v125zM375 625h125v-125h-125v125zM125 1000h125v-125h-125v125zM250 1000h125v-125h-125v125zM375 1000h125v-125h-125v125zM500 875h125v-125h-125v125z
M0 875h125v-125h-125v125zM500 250h125v-125h-125v125zM375 125h125v-125h-125v125zM250 125h125v-125h-125v125zM125 125h125v-125h-125v125zM0 250h125v-125h-125v125z" />
    <glyph glyph-name="four" unicode="4" 
d="M375 375h125v-125h-125v125zM0 500h125v-125h-125v125zM375 875h125v-125h-125v125zM375 125h125v-125h-125v125zM375 250h125v-125h-125v125zM375 500h125v-125h-125v125zM375 625h125v-125h-125v125zM375 750h125v-125h-125v125zM375 1000h125v-125h-125v125zM125 750
h125v-125h-125v125zM0 625h125v-125h-125v125zM125 500h125v-125h-125v125zM500 500h125v-125h-125v125zM250 500h125v-125h-125v125zM250 875h125v-125h-125v125z" />
    <glyph glyph-name="five" unicode="5" 
d="M250 125h125v-125h-125v125zM375 125h125v-125h-125v125zM0 250h125v-125h-125v125zM125 125h125v-125h-125v125zM500 250h125v-125h-125v125zM500 375h125v-125h-125v125zM500 500h125v-125h-125v125zM0 875h125v-125h-125v125zM0 1000h125v-125h-125v125zM0 625h125
v-125h-125v125zM125 625h125v-125h-125v125zM250 625h125v-125h-125v125zM375 625h125v-125h-125v125zM0 750h125v-125h-125v125zM125 1000h125v-125h-125v125zM250 1000h125v-125h-125v125zM375 1000h125v-125h-125v125zM500 1000h125v-125h-125v125z" />
    <glyph glyph-name="six" unicode="6" 
d="M125 125h125v-125h-125v125zM250 125h125v-125h-125v125zM375 125h125v-125h-125v125zM500 250h125v-125h-125v125zM0 250h125v-125h-125v125zM0 375h125v-125h-125v125zM0 500h125v-125h-125v125zM0 625h125v-125h-125v125zM0 750h125v-125h-125v125zM0 875h125v-125
h-125v125zM125 1000h125v-125h-125v125zM250 1000h125v-125h-125v125zM375 1000h125v-125h-125v125zM500 875h125v-125h-125v125zM500 375h125v-125h-125v125zM500 500h125v-125h-125v125zM375 625h125v-125h-125v125zM250 625h125v-125h-125v125zM125 625h125v-125h-125
v125z" />
    <glyph glyph-name="seven" unicode="7" 
d="M0 1000h125v-125h-125v125zM125 1000h125v-125h-125v125zM250 1000h125v-125h-125v125zM375 1000h125v-125h-125v125zM500 1000h125v-125h-125v125zM125 125h125v-125h-125v125zM125 250h125v-125h-125v125zM125 375h125v-125h-125v125zM250 500h125v-125h-125v125z
M250 625h125v-125h-125v125zM375 750h125v-125h-125v125zM500 875h125v-125h-125v125z" />
    <glyph glyph-name="eight" unicode="8" 
d="M125 125h125v-125h-125v125zM250 125h125v-125h-125v125zM375 125h125v-125h-125v125zM0 250h125v-125h-125v125zM500 250h125v-125h-125v125zM500 375h125v-125h-125v125zM500 500h125v-125h-125v125zM0 375h125v-125h-125v125zM0 500h125v-125h-125v125zM125 625h125
v-125h-125v125zM250 625h125v-125h-125v125zM375 625h125v-125h-125v125zM0 750h125v-125h-125v125zM0 875h125v-125h-125v125zM125 1000h125v-125h-125v125zM250 1000h125v-125h-125v125zM375 1000h125v-125h-125v125zM500 875h125v-125h-125v125zM500 750h125v-125h-125
v125z" />
    <glyph glyph-name="nine" unicode="9" 
d="M0 875h125v-125h-125v125zM500 875h125v-125h-125v125zM0 750h125v-125h-125v125zM500 750h125v-125h-125v125zM0 625h125v-125h-125v125zM500 625h125v-125h-125v125zM125 500h125v-125h-125v125zM250 500h125v-125h-125v125zM500 500h125v-125h-125v125zM500 375h125
v-125h-125v125zM0 250h125v-125h-125v125zM500 250h125v-125h-125v125zM125 125h125v-125h-125v125zM250 125h125v-125h-125v125zM375 125h125v-125h-125v125zM125 1000h125v-125h-125v125zM250 1000h125v-125h-125v125zM375 1000h125v-125h-125v125zM375 500h125v-125h-125
v125z" />
    <glyph glyph-name="colon" unicode=":" horiz-adv-x="250" 
d="M0 125h125v-125h-125v125zM0 750h125v-125h-125v125z" />
    <glyph glyph-name="semicolon" unicode=";" horiz-adv-x="375" 
d="M125 125h125v-125h-125v125zM125 0h125v-125h-125v125zM0 -125h125v-125h-125v125zM125 750h125v-125h-125v125z" />
    <glyph glyph-name="less" unicode="&#x3c;" horiz-adv-x="500" 
d="M0 500h125v-125h-125v125zM125 625h125v-125h-125v125zM250 750h125v-125h-125v125zM125 375h125v-125h-125v125zM250 250h125v-125h-125v125z" />
    <glyph glyph-name="equal" unicode="=" 
d="M0 375h125v-125h-125v125zM125 375h125v-125h-125v125zM250 375h125v-125h-125v125zM375 375h125v-125h-125v125zM0 625h125v-125h-125v125zM125 625h125v-125h-125v125zM250 625h125v-125h-125v125zM375 625h125v-125h-125v125zM500 625h125v-125h-125v125zM500 375h125
v-125h-125v125z" />
    <glyph glyph-name="greater" unicode="&#x3e;" horiz-adv-x="500" 
d="M250 500h125v-125h-125v125zM125 625h125v-125h-125v125zM0 750h125v-125h-125v125zM125 375h125v-125h-125v125zM0 250h125v-125h-125v125z" />
    <glyph glyph-name="question" unicode="?" 
d="M125 1000h125v-125h-125v125zM250 1000h125v-125h-125v125zM375 1000h125v-125h-125v125zM500 875h125v-125h-125v125zM500 750h125v-125h-125v125zM250 375h125v-125h-125v125zM250 500h125v-125h-125v125zM375 625h125v-125h-125v125zM250 125h125v-125h-125v125z
M0 875h125v-125h-125v125z" />
    <glyph glyph-name="at" unicode="@" horiz-adv-x="1250" 
d="M500 125h125v-125h-125v125zM375 125h125v-125h-125v125zM250 250h125v-125h-125v125zM375 750h125v-125h-125v125zM500 750h125v-125h-125v125zM625 750h125v-125h-125v125zM750 625h125v-125h-125v125zM750 500h125v-125h-125v125zM750 375h125v-125h-125v125zM750 250
h125v-125h-125v125zM750 125h125v-125h-125v125zM625 125h125v-125h-125v125zM875 125h125v-125h-125v125zM750 1000h125v-125h-125v125zM625 1000h125v-125h-125v125zM500 1000h125v-125h-125v125zM375 1000h125v-125h-125v125zM250 1000h125v-125h-125v125zM125 875h125
v-125h-125v125zM0 750h125v-125h-125v125zM0 625h125v-125h-125v125zM0 500h125v-125h-125v125zM0 375h125v-125h-125v125zM0 250h125v-125h-125v125zM0 125h125v-125h-125v125zM125 0h125v-125h-125v125zM250 -125h125v-125h-125v125zM375 -125h125v-125h-125v125z
M500 -125h125v-125h-125v125zM625 -125h125v-125h-125v125zM750 -125h125v-125h-125v125zM1000 250h125v-125h-125v125zM1000 375h125v-125h-125v125zM1000 500h125v-125h-125v125zM1000 625h125v-125h-125v125zM1000 750h125v-125h-125v125zM875 875h125v-125h-125v125z
M500 500h125v-125h-125v125zM625 500h125v-125h-125v125zM250 375h125v-125h-125v125zM375 500h125v-125h-125v125z" />
    <glyph glyph-name="A" unicode="A" horiz-adv-x="1000" 
d="M250 750h125v-125h-125v125zM500 750h125v-125h-125v125zM125 500h125v-125h-125v125zM625 500h125v-125h-125v125zM125 375h125v-125h-125v125zM625 375h125v-125h-125v125zM0 250h125v-125h-125v125zM750 250h125v-125h-125v125zM0 125h125v-125h-125v125zM750 125h125
v-125h-125v125zM375 1000h125v-125h-125v125zM250 625h125v-125h-125v125zM500 625h125v-125h-125v125zM375 875h125v-125h-125v125zM250 375h125v-125h-125v125zM375 375h125v-125h-125v125zM500 375h125v-125h-125v125z" />
    <glyph glyph-name="B" unicode="B" horiz-adv-x="875" 
d="M0 125h125v-125h-125v125zM125 125h125v-125h-125v125zM250 125h125v-125h-125v125zM375 125h125v-125h-125v125zM500 125h125v-125h-125v125zM625 250h125v-125h-125v125zM625 375h125v-125h-125v125zM625 500h125v-125h-125v125zM500 625h125v-125h-125v125zM625 750
h125v-125h-125v125zM625 875h125v-125h-125v125zM500 1000h125v-125h-125v125zM375 1000h125v-125h-125v125zM250 1000h125v-125h-125v125zM125 1000h125v-125h-125v125zM0 1000h125v-125h-125v125zM0 875h125v-125h-125v125zM0 750h125v-125h-125v125zM0 625h125v-125h-125
v125zM0 500h125v-125h-125v125zM0 375h125v-125h-125v125zM0 250h125v-125h-125v125zM125 625h125v-125h-125v125zM250 625h125v-125h-125v125zM375 625h125v-125h-125v125z" />
    <glyph glyph-name="C" unicode="C" horiz-adv-x="875" 
d="M250 125h125v-125h-125v125zM125 250h125v-125h-125v125zM0 375h125v-125h-125v125zM0 500h125v-125h-125v125zM0 625h125v-125h-125v125zM0 750h125v-125h-125v125zM250 1000h125v-125h-125v125zM125 875h125v-125h-125v125zM375 125h125v-125h-125v125zM500 125h125
v-125h-125v125zM375 1000h125v-125h-125v125zM500 1000h125v-125h-125v125zM625 875h125v-125h-125v125zM625 250h125v-125h-125v125z" />
    <glyph glyph-name="D" unicode="D" horiz-adv-x="875" 
d="M0 1000h125v-125h-125v125zM0 875h125v-125h-125v125zM0 750h125v-125h-125v125zM0 625h125v-125h-125v125zM0 500h125v-125h-125v125zM0 375h125v-125h-125v125zM0 250h125v-125h-125v125zM0 125h125v-125h-125v125zM125 125h125v-125h-125v125zM250 125h125v-125h-125
v125zM375 125h125v-125h-125v125zM625 375h125v-125h-125v125zM625 500h125v-125h-125v125zM625 625h125v-125h-125v125zM625 750h125v-125h-125v125zM375 1000h125v-125h-125v125zM250 1000h125v-125h-125v125zM125 1000h125v-125h-125v125zM500 875h125v-125h-125v125z
M500 250h125v-125h-125v125z" />
    <glyph glyph-name="E" unicode="E" horiz-adv-x="875" 
d="M0 125h125v-125h-125v125zM125 125h125v-125h-125v125zM250 125h125v-125h-125v125zM375 125h125v-125h-125v125zM500 125h125v-125h-125v125zM625 125h125v-125h-125v125zM0 250h125v-125h-125v125zM0 375h125v-125h-125v125zM0 500h125v-125h-125v125zM0 625h125v-125
h-125v125zM0 750h125v-125h-125v125zM0 875h125v-125h-125v125zM625 1000h125v-125h-125v125zM500 1000h125v-125h-125v125zM375 1000h125v-125h-125v125zM250 1000h125v-125h-125v125zM125 1000h125v-125h-125v125zM0 1000h125v-125h-125v125zM125 625h125v-125h-125v125z
M250 625h125v-125h-125v125zM375 625h125v-125h-125v125zM500 625h125v-125h-125v125zM625 625h125v-125h-125v125z" />
    <glyph glyph-name="F" unicode="F" horiz-adv-x="875" 
d="M250 625h125v-125h-125v125zM375 625h125v-125h-125v125zM500 625h125v-125h-125v125zM0 1000h125v-125h-125v125zM0 875h125v-125h-125v125zM0 750h125v-125h-125v125zM0 625h125v-125h-125v125zM0 500h125v-125h-125v125zM0 375h125v-125h-125v125zM0 250h125v-125
h-125v125zM0 125h125v-125h-125v125zM125 625h125v-125h-125v125zM625 625h125v-125h-125v125zM125 1000h125v-125h-125v125zM250 1000h125v-125h-125v125zM375 1000h125v-125h-125v125zM500 1000h125v-125h-125v125zM625 1000h125v-125h-125v125z" />
    <glyph glyph-name="G" unicode="G" horiz-adv-x="1000" 
d="M250 125h125v-125h-125v125zM125 250h125v-125h-125v125zM0 375h125v-125h-125v125zM0 500h125v-125h-125v125zM0 625h125v-125h-125v125zM0 750h125v-125h-125v125zM125 875h125v-125h-125v125zM250 1000h125v-125h-125v125zM375 1000h125v-125h-125v125zM500 1000h125
v-125h-125v125zM375 125h125v-125h-125v125zM500 125h125v-125h-125v125zM625 250h125v-125h-125v125zM625 875h125v-125h-125v125zM750 750h125v-125h-125v125zM750 375h125v-125h-125v125zM750 500h125v-125h-125v125zM625 500h125v-125h-125v125zM500 500h125v-125h-125
v125z" />
    <glyph glyph-name="H" unicode="H" horiz-adv-x="875" 
d="M0 1000h125v-125h-125v125zM0 875h125v-125h-125v125zM0 750h125v-125h-125v125zM0 625h125v-125h-125v125zM0 500h125v-125h-125v125zM0 375h125v-125h-125v125zM0 250h125v-125h-125v125zM0 125h125v-125h-125v125zM125 625h125v-125h-125v125zM250 625h125v-125h-125
v125zM375 625h125v-125h-125v125zM500 625h125v-125h-125v125zM625 1000h125v-125h-125v125zM625 875h125v-125h-125v125zM625 750h125v-125h-125v125zM625 625h125v-125h-125v125zM625 500h125v-125h-125v125zM625 375h125v-125h-125v125zM625 250h125v-125h-125v125z
M625 125h125v-125h-125v125z" />
    <glyph glyph-name="I" unicode="I" horiz-adv-x="250" 
d="M0 1000h125v-125h-125v125zM0 875h125v-125h-125v125zM0 750h125v-125h-125v125zM0 625h125v-125h-125v125zM0 500h125v-125h-125v125zM0 375h125v-125h-125v125zM0 250h125v-125h-125v125zM0 125h125v-125h-125v125z" />
    <glyph glyph-name="J" unicode="J" 
d="M125 125h125v-125h-125v125zM250 125h125v-125h-125v125zM375 125h125v-125h-125v125zM500 250h125v-125h-125v125zM500 375h125v-125h-125v125zM500 500h125v-125h-125v125zM500 625h125v-125h-125v125zM500 750h125v-125h-125v125zM500 875h125v-125h-125v125z
M500 1000h125v-125h-125v125zM0 375h125v-125h-125v125zM0 250h125v-125h-125v125z" />
    <glyph glyph-name="K" unicode="K" horiz-adv-x="875" 
d="M0 125h125v-125h-125v125zM0 250h125v-125h-125v125zM0 375h125v-125h-125v125zM0 500h125v-125h-125v125zM0 625h125v-125h-125v125zM0 750h125v-125h-125v125zM0 875h125v-125h-125v125zM0 1000h125v-125h-125v125zM625 1000h125v-125h-125v125zM500 875h125v-125h-125
v125zM375 750h125v-125h-125v125zM250 625h125v-125h-125v125zM125 500h125v-125h-125v125zM625 125h125v-125h-125v125zM625 250h125v-125h-125v125zM500 375h125v-125h-125v125zM375 500h125v-125h-125v125z" />
    <glyph glyph-name="L" unicode="L" horiz-adv-x="875" 
d="M0 1000h125v-125h-125v125zM0 875h125v-125h-125v125zM0 750h125v-125h-125v125zM0 625h125v-125h-125v125zM0 500h125v-125h-125v125zM0 375h125v-125h-125v125zM0 250h125v-125h-125v125zM0 125h125v-125h-125v125zM125 125h125v-125h-125v125zM250 125h125v-125h-125
v125zM375 125h125v-125h-125v125zM500 125h125v-125h-125v125zM625 125h125v-125h-125v125z" />
    <glyph glyph-name="M" unicode="M" horiz-adv-x="1000" 
d="M0 1000h125v-125h-125v125zM750 1000h125v-125h-125v125zM0 875h125v-125h-125v125zM125 875h125v-125h-125v125zM625 875h125v-125h-125v125zM750 875h125v-125h-125v125zM0 750h125v-125h-125v125zM750 750h125v-125h-125v125zM0 625h125v-125h-125v125zM750 625h125
v-125h-125v125zM0 500h125v-125h-125v125zM750 500h125v-125h-125v125zM0 375h125v-125h-125v125zM750 375h125v-125h-125v125zM0 250h125v-125h-125v125zM750 250h125v-125h-125v125zM0 125h125v-125h-125v125zM750 125h125v-125h-125v125zM250 750h125v-125h-125v125z
M375 625h125v-125h-125v125zM500 750h125v-125h-125v125z" />
    <glyph glyph-name="N" unicode="N" horiz-adv-x="875" 
d="M0 125h125v-125h-125v125zM0 250h125v-125h-125v125zM0 375h125v-125h-125v125zM0 500h125v-125h-125v125zM0 625h125v-125h-125v125zM0 750h125v-125h-125v125zM0 875h125v-125h-125v125zM0 1000h125v-125h-125v125zM625 125h125v-125h-125v125zM625 250h125v-125h-125
v125zM625 375h125v-125h-125v125zM625 500h125v-125h-125v125zM625 625h125v-125h-125v125zM625 750h125v-125h-125v125zM625 875h125v-125h-125v125zM625 1000h125v-125h-125v125zM125 875h125v-125h-125v125zM250 750h125v-125h-125v125zM375 625h125v-125h-125v125z
M500 500h125v-125h-125v125z" />
    <glyph glyph-name="O" unicode="O" horiz-adv-x="1000" 
d="M250 125h125v-125h-125v125zM375 125h125v-125h-125v125zM500 125h125v-125h-125v125zM125 250h125v-125h-125v125zM0 375h125v-125h-125v125zM0 500h125v-125h-125v125zM0 625h125v-125h-125v125zM0 750h125v-125h-125v125zM250 1000h125v-125h-125v125zM125 875h125
v-125h-125v125zM375 1000h125v-125h-125v125zM500 1000h125v-125h-125v125zM625 875h125v-125h-125v125zM750 750h125v-125h-125v125zM750 625h125v-125h-125v125zM750 500h125v-125h-125v125zM750 375h125v-125h-125v125zM625 250h125v-125h-125v125z" />
    <glyph glyph-name="P" unicode="P" horiz-adv-x="875" 
d="M0 1000h125v-125h-125v125zM0 875h125v-125h-125v125zM0 750h125v-125h-125v125zM0 625h125v-125h-125v125zM0 500h125v-125h-125v125zM0 375h125v-125h-125v125zM0 250h125v-125h-125v125zM0 125h125v-125h-125v125zM625 750h125v-125h-125v125zM625 875h125v-125h-125
v125zM125 1000h125v-125h-125v125zM250 1000h125v-125h-125v125zM375 1000h125v-125h-125v125zM500 1000h125v-125h-125v125zM125 500h125v-125h-125v125zM250 500h125v-125h-125v125zM375 500h125v-125h-125v125zM500 500h125v-125h-125v125zM625 625h125v-125h-125v125z
" />
    <glyph glyph-name="Q" unicode="Q" horiz-adv-x="1000" 
d="M250 125h125v-125h-125v125zM125 250h125v-125h-125v125zM0 375h125v-125h-125v125zM375 125h125v-125h-125v125zM500 125h125v-125h-125v125zM625 250h125v-125h-125v125zM750 375h125v-125h-125v125zM0 500h125v-125h-125v125zM0 625h125v-125h-125v125zM0 750h125
v-125h-125v125zM250 1000h125v-125h-125v125zM125 875h125v-125h-125v125zM375 1000h125v-125h-125v125zM500 1000h125v-125h-125v125zM625 875h125v-125h-125v125zM750 750h125v-125h-125v125zM750 625h125v-125h-125v125zM750 500h125v-125h-125v125zM750 125h125v-125
h-125v125zM500 375h125v-125h-125v125z" />
    <glyph glyph-name="R" unicode="R" horiz-adv-x="875" 
d="M0 1000h125v-125h-125v125zM0 875h125v-125h-125v125zM0 750h125v-125h-125v125zM0 625h125v-125h-125v125zM0 500h125v-125h-125v125zM0 375h125v-125h-125v125zM0 250h125v-125h-125v125zM0 125h125v-125h-125v125zM125 1000h125v-125h-125v125zM250 1000h125v-125
h-125v125zM375 1000h125v-125h-125v125zM500 1000h125v-125h-125v125zM625 875h125v-125h-125v125zM625 750h125v-125h-125v125zM625 375h125v-125h-125v125zM625 250h125v-125h-125v125zM625 125h125v-125h-125v125zM125 625h125v-125h-125v125zM250 625h125v-125h-125v125
zM375 625h125v-125h-125v125zM500 625h125v-125h-125v125zM625 500h125v-125h-125v125z" />
    <glyph glyph-name="S" unicode="S" horiz-adv-x="875" 
d="M125 125h125v-125h-125v125zM250 125h125v-125h-125v125zM375 125h125v-125h-125v125zM500 125h125v-125h-125v125zM125 1000h125v-125h-125v125zM250 1000h125v-125h-125v125zM375 1000h125v-125h-125v125zM500 1000h125v-125h-125v125zM0 875h125v-125h-125v125zM0 750
h125v-125h-125v125zM125 625h125v-125h-125v125zM250 625h125v-125h-125v125zM375 625h125v-125h-125v125zM500 625h125v-125h-125v125zM625 500h125v-125h-125v125zM625 375h125v-125h-125v125zM625 250h125v-125h-125v125zM0 250h125v-125h-125v125zM625 875h125v-125
h-125v125z" />
    <glyph glyph-name="T" unicode="T" horiz-adv-x="1000" 
d="M375 125h125v-125h-125v125zM375 250h125v-125h-125v125zM375 375h125v-125h-125v125zM375 500h125v-125h-125v125zM375 625h125v-125h-125v125zM375 750h125v-125h-125v125zM375 875h125v-125h-125v125zM375 1000h125v-125h-125v125zM0 1000h125v-125h-125v125z
M125 1000h125v-125h-125v125zM250 1000h125v-125h-125v125zM750 1000h125v-125h-125v125zM500 1000h125v-125h-125v125zM625 1000h125v-125h-125v125z" />
    <glyph glyph-name="U" unicode="U" horiz-adv-x="1000" 
d="M0 1000h125v-125h-125v125zM0 875h125v-125h-125v125zM0 750h125v-125h-125v125zM0 625h125v-125h-125v125zM0 500h125v-125h-125v125zM0 375h125v-125h-125v125zM125 250h125v-125h-125v125zM250 125h125v-125h-125v125zM375 125h125v-125h-125v125zM500 125h125v-125
h-125v125zM625 250h125v-125h-125v125zM750 375h125v-125h-125v125zM750 500h125v-125h-125v125zM750 625h125v-125h-125v125zM750 750h125v-125h-125v125zM750 875h125v-125h-125v125zM750 1000h125v-125h-125v125z" />
    <glyph glyph-name="V" unicode="V" horiz-adv-x="1000" 
d="M0 1000h125v-125h-125v125zM0 875h125v-125h-125v125zM125 750h125v-125h-125v125zM125 625h125v-125h-125v125zM250 500h125v-125h-125v125zM250 375h125v-125h-125v125zM375 250h125v-125h-125v125zM375 125h125v-125h-125v125zM500 375h125v-125h-125v125zM500 500
h125v-125h-125v125zM625 625h125v-125h-125v125zM625 750h125v-125h-125v125zM750 875h125v-125h-125v125zM750 1000h125v-125h-125v125z" />
    <glyph glyph-name="W" unicode="W" horiz-adv-x="1250" 
d="M0 1000h125v-125h-125v125zM0 875h125v-125h-125v125zM125 625h125v-125h-125v125zM125 500h125v-125h-125v125zM250 375h125v-125h-125v125zM250 250h125v-125h-125v125zM250 125h125v-125h-125v125zM125 750h125v-125h-125v125zM375 500h125v-125h-125v125zM375 625
h125v-125h-125v125zM500 875h125v-125h-125v125zM500 1000h125v-125h-125v125zM625 625h125v-125h-125v125zM625 500h125v-125h-125v125zM750 375h125v-125h-125v125zM750 250h125v-125h-125v125zM750 125h125v-125h-125v125zM875 500h125v-125h-125v125zM875 625h125v-125
h-125v125zM875 750h125v-125h-125v125zM1000 875h125v-125h-125v125zM1000 1000h125v-125h-125v125zM500 750h125v-125h-125v125z" />
    <glyph glyph-name="X" unicode="X" horiz-adv-x="1000" 
d="M0 1000h125v-125h-125v125zM625 875h125v-125h-125v125zM500 750h125v-125h-125v125zM500 375h125v-125h-125v125zM375 625h125v-125h-125v125zM125 875h125v-125h-125v125zM250 750h125v-125h-125v125zM375 500h125v-125h-125v125zM250 375h125v-125h-125v125zM125 250
h125v-125h-125v125zM0 125h125v-125h-125v125zM750 125h125v-125h-125v125zM625 250h125v-125h-125v125zM750 1000h125v-125h-125v125z" />
    <glyph glyph-name="Y" unicode="Y" horiz-adv-x="1000" 
d="M0 1000h125v-125h-125v125zM125 875h125v-125h-125v125zM250 750h125v-125h-125v125zM375 625h125v-125h-125v125zM500 750h125v-125h-125v125zM625 875h125v-125h-125v125zM750 1000h125v-125h-125v125zM375 500h125v-125h-125v125zM375 375h125v-125h-125v125zM375 250
h125v-125h-125v125zM375 125h125v-125h-125v125z" />
    <glyph glyph-name="Z" unicode="Z" horiz-adv-x="875" 
d="M0 1000h125v-125h-125v125zM125 1000h125v-125h-125v125zM250 1000h125v-125h-125v125zM375 1000h125v-125h-125v125zM500 1000h125v-125h-125v125zM0 125h125v-125h-125v125zM125 125h125v-125h-125v125zM250 125h125v-125h-125v125zM375 125h125v-125h-125v125z
M500 125h125v-125h-125v125zM625 125h125v-125h-125v125zM625 1000h125v-125h-125v125zM0 250h125v-125h-125v125zM125 375h125v-125h-125v125zM250 500h125v-125h-125v125zM375 625h125v-125h-125v125zM500 750h125v-125h-125v125zM625 875h125v-125h-125v125z" />
    <glyph glyph-name="bracketleft" unicode="[" horiz-adv-x="375" 
d="M0 1000h125v-125h-125v125zM0 875h125v-125h-125v125zM0 1125h125v-125h-125v125zM125 1125h125v-125h-125v125zM0 750h125v-125h-125v125zM0 625h125v-125h-125v125zM0 500h125v-125h-125v125zM0 375h125v-125h-125v125zM0 250h125v-125h-125v125zM0 125h125v-125h-125
v125zM0 0h125v-125h-125v125zM0 -125h125v-125h-125v125zM125 -125h125v-125h-125v125z" />
    <glyph glyph-name="backslash" unicode="\" horiz-adv-x="625" 
d="M0 1000h125v-125h-125v125zM0 875h125v-125h-125v125zM125 750h125v-125h-125v125zM125 625h125v-125h-125v125zM250 500h125v-125h-125v125zM250 375h125v-125h-125v125zM375 250h125v-125h-125v125zM375 125h125v-125h-125v125z" />
    <glyph glyph-name="bracketright" unicode="]" horiz-adv-x="375" 
d="M125 125h125v-125h-125v125zM125 250h125v-125h-125v125zM125 375h125v-125h-125v125zM125 500h125v-125h-125v125zM125 625h125v-125h-125v125zM125 750h125v-125h-125v125zM125 875h125v-125h-125v125zM125 1000h125v-125h-125v125zM125 1125h125v-125h-125v125z
M0 1125h125v-125h-125v125zM125 0h125v-125h-125v125zM125 -125h125v-125h-125v125zM0 -125h125v-125h-125v125z" />
    <glyph glyph-name="asciicircum" unicode="^" 
d="M250 1000h125v-125h-125v125zM125 875h125v-125h-125v125zM0 750h125v-125h-125v125zM375 875h125v-125h-125v125zM500 750h125v-125h-125v125z" />
    <glyph glyph-name="underscore" unicode="_" horiz-adv-x="875" 
d="M0 -125h125v-125h-125v125zM125 -125h125v-125h-125v125zM250 -125h125v-125h-125v125zM375 -125h125v-125h-125v125zM500 -125h125v-125h-125v125zM625 -125h125v-125h-125v125z" />
    <glyph glyph-name="grave" unicode="`" horiz-adv-x="375" 
d="M0 1125h125v-125h-125v125zM125 1000h125v-125h-125v125z" />
    <glyph glyph-name="a" unicode="a" 
d="M122 753h381v-125h125v-631h-506v125h-125v256h125v125h375v119h-375v131zM128 128h369v244h-369v-244z" />
    <glyph glyph-name="b" unicode="b" 
d="M0 125h125v-125h-125v125zM0 250h125v-125h-125v125zM0 375h125v-125h-125v125zM0 500h125v-125h-125v125zM0 625h125v-125h-125v125zM0 750h125v-125h-125v125zM250 125h125v-125h-125v125zM125 125h125v-125h-125v125zM125 750h125v-125h-125v125zM250 750h125v-125
h-125v125zM500 625h125v-125h-125v125zM500 500h125v-125h-125v125zM500 375h125v-125h-125v125zM500 250h125v-125h-125v125zM375 750h125v-125h-125v125zM375 125h125v-125h-125v125zM0 875h125v-125h-125v125zM0 1000h125v-125h-125v125z" />
    <glyph glyph-name="c" unicode="c" 
d="M125 125h125v-125h-125v125zM250 125h125v-125h-125v125zM375 125h125v-125h-125v125zM0 250h125v-125h-125v125zM0 375h125v-125h-125v125zM0 500h125v-125h-125v125zM0 625h125v-125h-125v125zM125 750h125v-125h-125v125zM250 750h125v-125h-125v125zM375 750h125
v-125h-125v125zM500 625h125v-125h-125v125zM500 250h125v-125h-125v125z" />
    <glyph glyph-name="d" unicode="d" 
d="M0 250h125v-125h-125v125zM125 125h125v-125h-125v125zM250 125h125v-125h-125v125zM375 125h125v-125h-125v125zM500 125h125v-125h-125v125zM500 250h125v-125h-125v125zM500 375h125v-125h-125v125zM500 500h125v-125h-125v125zM500 625h125v-125h-125v125zM500 750
h125v-125h-125v125zM500 875h125v-125h-125v125zM500 1000h125v-125h-125v125zM0 375h125v-125h-125v125zM0 500h125v-125h-125v125zM0 625h125v-125h-125v125zM125 750h125v-125h-125v125zM250 750h125v-125h-125v125zM375 750h125v-125h-125v125z" />
    <glyph glyph-name="e" unicode="e" 
d="M125 125h125v-125h-125v125zM250 125h125v-125h-125v125zM375 125h125v-125h-125v125zM0 250h125v-125h-125v125zM0 375h125v-125h-125v125zM0 500h125v-125h-125v125zM0 625h125v-125h-125v125zM125 750h125v-125h-125v125zM250 750h125v-125h-125v125zM375 750h125
v-125h-125v125zM500 625h125v-125h-125v125zM500 500h125v-125h-125v125zM375 500h125v-125h-125v125zM250 500h125v-125h-125v125zM125 500h125v-125h-125v125zM500 250h125v-125h-125v125z" />
    <glyph glyph-name="f" unicode="f" horiz-adv-x="625" 
d="M125 125h125v-125h-125v125zM125 250h125v-125h-125v125zM125 375h125v-125h-125v125zM125 500h125v-125h-125v125zM125 625h125v-125h-125v125zM125 750h125v-125h-125v125zM0 750h125v-125h-125v125zM250 750h125v-125h-125v125zM125 875h125v-125h-125v125zM125 1000
h125v-125h-125v125zM250 1125h125v-125h-125v125zM375 1125h125v-125h-125v125zM375 750h125v-125h-125v125z" />
    <glyph glyph-name="g" unicode="g" 
d="M0 250h125v-125h-125v125zM0 375h125v-125h-125v125zM0 500h125v-125h-125v125zM0 625h125v-125h-125v125zM125 125h125v-125h-125v125zM250 125h125v-125h-125v125zM375 125h125v-125h-125v125zM125 750h125v-125h-125v125zM250 750h125v-125h-125v125zM375 750h125
v-125h-125v125zM500 750h125v-125h-125v125zM500 625h125v-125h-125v125zM500 500h125v-125h-125v125zM500 375h125v-125h-125v125zM500 250h125v-125h-125v125zM500 125h125v-125h-125v125zM500 0h125v-125h-125v125zM375 -125h125v-125h-125v125zM250 -125h125v-125h-125
v125zM125 -125h125v-125h-125v125z" />
    <glyph glyph-name="h" unicode="h" 
d="M0 125h125v-125h-125v125zM0 250h125v-125h-125v125zM0 375h125v-125h-125v125zM0 500h125v-125h-125v125zM0 625h125v-125h-125v125zM0 750h125v-125h-125v125zM0 875h125v-125h-125v125zM0 1000h125v-125h-125v125zM125 750h125v-125h-125v125zM250 750h125v-125h-125
v125zM375 750h125v-125h-125v125zM500 625h125v-125h-125v125zM500 500h125v-125h-125v125zM500 375h125v-125h-125v125zM500 250h125v-125h-125v125zM500 125h125v-125h-125v125z" />
    <glyph glyph-name="i" unicode="i" horiz-adv-x="250" 
d="M0 125h125v-125h-125v125zM0 250h125v-125h-125v125zM0 375h125v-125h-125v125zM0 500h125v-125h-125v125zM0 625h125v-125h-125v125zM0 750h125v-125h-125v125zM0 1000h125v-125h-125v125z" />
    <glyph glyph-name="j" unicode="j" horiz-adv-x="375" 
d="M125 500h125v-125h-125v125zM125 625h125v-125h-125v125zM125 750h125v-125h-125v125zM125 375h125v-125h-125v125zM125 250h125v-125h-125v125zM125 125h125v-125h-125v125zM125 1000h125v-125h-125v125zM125 0h125v-125h-125v125zM0 -125h125v-125h-125v125z" />
    <glyph glyph-name="k" unicode="k" horiz-adv-x="625" 
d="M0 1000h125v-125h-125v125zM0 875h125v-125h-125v125zM0 750h125v-125h-125v125zM0 625h125v-125h-125v125zM0 500h125v-125h-125v125zM0 375h125v-125h-125v125zM0 125h125v-125h-125v125zM0 250h125v-125h-125v125zM250 250h125v-125h-125v125zM375 125h125v-125h-125
v125zM125 375h125v-125h-125v125zM125 500h125v-125h-125v125zM250 625h125v-125h-125v125zM375 750h125v-125h-125v125z" />
    <glyph glyph-name="l" unicode="l" horiz-adv-x="250" 
d="M0 1000h125v-125h-125v125zM0 875h125v-125h-125v125zM0 750h125v-125h-125v125zM0 625h125v-125h-125v125zM0 500h125v-125h-125v125zM0 375h125v-125h-125v125zM0 250h125v-125h-125v125zM0 125h125v-125h-125v125z" />
    <glyph glyph-name="m" unicode="m" horiz-adv-x="1000" 
d="M0 125h125v-125h-125v125zM0 250h125v-125h-125v125zM0 375h125v-125h-125v125zM0 500h125v-125h-125v125zM0 625h125v-125h-125v125zM0 750h125v-125h-125v125zM125 750h125v-125h-125v125zM250 750h125v-125h-125v125zM375 625h125v-125h-125v125zM375 500h125v-125
h-125v125zM375 375h125v-125h-125v125zM375 250h125v-125h-125v125zM375 125h125v-125h-125v125zM500 750h125v-125h-125v125zM625 750h125v-125h-125v125zM750 625h125v-125h-125v125zM750 500h125v-125h-125v125zM750 375h125v-125h-125v125zM750 250h125v-125h-125v125z
M750 125h125v-125h-125v125z" />
    <glyph glyph-name="n" unicode="n" 
d="M0 125h125v-125h-125v125zM0 250h125v-125h-125v125zM0 375h125v-125h-125v125zM0 500h125v-125h-125v125zM0 625h125v-125h-125v125zM0 750h125v-125h-125v125zM125 750h125v-125h-125v125zM250 750h125v-125h-125v125zM375 750h125v-125h-125v125zM500 625h125v-125
h-125v125zM500 500h125v-125h-125v125zM500 375h125v-125h-125v125zM500 250h125v-125h-125v125zM500 125h125v-125h-125v125z" />
    <glyph glyph-name="o" unicode="o" 
d="M0 250h125v-125h-125v125zM0 375h125v-125h-125v125zM0 500h125v-125h-125v125zM0 625h125v-125h-125v125zM125 750h125v-125h-125v125zM250 750h125v-125h-125v125zM375 750h125v-125h-125v125zM500 625h125v-125h-125v125zM500 500h125v-125h-125v125zM500 250h125
v-125h-125v125zM500 375h125v-125h-125v125zM125 125h125v-125h-125v125zM250 125h125v-125h-125v125zM375 125h125v-125h-125v125z" />
    <glyph glyph-name="p" unicode="p" 
d="M0 125h125v-125h-125v125zM0 250h125v-125h-125v125zM0 375h125v-125h-125v125zM0 500h125v-125h-125v125zM0 625h125v-125h-125v125zM0 750h125v-125h-125v125zM125 750h125v-125h-125v125zM250 750h125v-125h-125v125zM375 750h125v-125h-125v125zM500 625h125v-125
h-125v125zM500 500h125v-125h-125v125zM500 375h125v-125h-125v125zM500 250h125v-125h-125v125zM375 125h125v-125h-125v125zM250 125h125v-125h-125v125zM125 125h125v-125h-125v125zM0 0h125v-125h-125v125zM0 -125h125v-125h-125v125z" />
    <glyph glyph-name="q" unicode="q" 
d="M0 625h125v-125h-125v125zM0 500h125v-125h-125v125zM0 375h125v-125h-125v125zM0 250h125v-125h-125v125zM125 125h125v-125h-125v125zM250 125h125v-125h-125v125zM375 125h125v-125h-125v125zM500 750h125v-125h-125v125zM500 625h125v-125h-125v125zM500 500h125
v-125h-125v125zM500 375h125v-125h-125v125zM500 250h125v-125h-125v125zM500 125h125v-125h-125v125zM375 750h125v-125h-125v125zM250 750h125v-125h-125v125zM125 750h125v-125h-125v125zM500 0h125v-125h-125v125zM500 -125h125v-125h-125v125z" />
    <glyph glyph-name="r" unicode="r" horiz-adv-x="625" 
d="M0 125h125v-125h-125v125zM0 250h125v-125h-125v125zM0 375h125v-125h-125v125zM0 500h125v-125h-125v125zM0 625h125v-125h-125v125zM0 750h125v-125h-125v125zM125 625h125v-125h-125v125zM250 750h125v-125h-125v125zM375 750h125v-125h-125v125z" />
    <glyph glyph-name="s" unicode="s" 
d="M125 125h125v-125h-125v125zM250 125h125v-125h-125v125zM375 125h125v-125h-125v125zM500 250h125v-125h-125v125zM250 500h125v-125h-125v125zM125 500h125v-125h-125v125zM125 750h125v-125h-125v125zM375 750h125v-125h-125v125zM250 750h125v-125h-125v125zM0 625
h125v-125h-125v125zM500 625h125v-125h-125v125zM375 375h125v-125h-125v125zM0 250h125v-125h-125v125z" />
    <glyph glyph-name="t" unicode="t" horiz-adv-x="625" 
d="M125 250h125v-125h-125v125zM250 125h125v-125h-125v125zM125 375h125v-125h-125v125zM125 500h125v-125h-125v125zM125 625h125v-125h-125v125zM125 750h125v-125h-125v125zM125 875h125v-125h-125v125zM125 1000h125v-125h-125v125zM0 750h125v-125h-125v125zM250 750
h125v-125h-125v125zM375 750h125v-125h-125v125zM375 125h125v-125h-125v125z" />
    <glyph glyph-name="u" unicode="u" 
d="M125 125h125v-125h-125v125zM0 250h125v-125h-125v125zM0 375h125v-125h-125v125zM0 500h125v-125h-125v125zM0 625h125v-125h-125v125zM0 750h125v-125h-125v125zM250 125h125v-125h-125v125zM500 125h125v-125h-125v125zM500 250h125v-125h-125v125zM500 375h125v-125
h-125v125zM500 500h125v-125h-125v125zM500 625h125v-125h-125v125zM500 750h125v-125h-125v125zM375 125h125v-125h-125v125z" />
    <glyph glyph-name="v" unicode="v" 
d="M250 125h125v-125h-125v125zM250 250h125v-125h-125v125zM125 375h125v-125h-125v125zM125 500h125v-125h-125v125zM0 625h125v-125h-125v125zM0 750h125v-125h-125v125zM375 375h125v-125h-125v125zM375 500h125v-125h-125v125zM500 625h125v-125h-125v125zM500 750h125
v-125h-125v125z" />
    <glyph glyph-name="w" unicode="w" horiz-adv-x="1250" 
d="M250 125h125v-125h-125v125zM250 250h125v-125h-125v125zM125 500h125v-125h-125v125zM125 375h125v-125h-125v125zM0 625h125v-125h-125v125zM0 750h125v-125h-125v125zM375 375h125v-125h-125v125zM375 500h125v-125h-125v125zM500 625h125v-125h-125v125zM500 750h125
v-125h-125v125zM625 500h125v-125h-125v125zM625 375h125v-125h-125v125zM750 250h125v-125h-125v125zM750 125h125v-125h-125v125zM875 375h125v-125h-125v125zM875 500h125v-125h-125v125zM1000 625h125v-125h-125v125zM1000 750h125v-125h-125v125z" />
    <glyph glyph-name="x" unicode="x" 
d="M0 125h125v-125h-125v125zM125 250h125v-125h-125v125zM0 750h125v-125h-125v125zM125 625h125v-125h-125v125zM250 500h125v-125h-125v125zM250 375h125v-125h-125v125zM375 625h125v-125h-125v125zM500 750h125v-125h-125v125zM375 250h125v-125h-125v125zM500 125h125
v-125h-125v125z" />
    <glyph glyph-name="y" unicode="y" 
d="M250 125h125v-125h-125v125zM125 500h125v-125h-125v125zM125 375h125v-125h-125v125zM0 625h125v-125h-125v125zM0 750h125v-125h-125v125zM500 750h125v-125h-125v125zM500 625h125v-125h-125v125zM375 500h125v-125h-125v125zM375 375h125v-125h-125v125zM250 0h125
v-125h-125v125zM125 -125h125v-125h-125v125zM250 250h125v-125h-125v125z" />
    <glyph glyph-name="z" unicode="z" 
d="M0 125h125v-125h-125v125zM125 125h125v-125h-125v125zM250 125h125v-125h-125v125zM375 125h125v-125h-125v125zM0 750h125v-125h-125v125zM125 750h125v-125h-125v125zM250 750h125v-125h-125v125zM375 750h125v-125h-125v125zM500 750h125v-125h-125v125zM500 625h125
v-125h-125v125zM375 500h125v-125h-125v125zM250 375h125v-125h-125v125zM125 250h125v-125h-125v125zM500 125h125v-125h-125v125z" />
    <glyph glyph-name="braceleft" unicode="{" horiz-adv-x="500" 
d="M250 1125h125v-125h-125v125zM125 1000h125v-125h-125v125zM125 875h125v-125h-125v125zM125 750h125v-125h-125v125zM125 125h125v-125h-125v125zM125 250h125v-125h-125v125zM125 375h125v-125h-125v125zM125 625h125v-125h-125v125zM0 500h125v-125h-125v125zM125 0
h125v-125h-125v125zM250 -125h125v-125h-125v125z" />
    <glyph glyph-name="bar" unicode="|" horiz-adv-x="250" 
d="M0 1125h125v-125h-125v125zM0 1000h125v-125h-125v125zM0 875h125v-125h-125v125zM0 750h125v-125h-125v125zM0 625h125v-125h-125v125zM0 500h125v-125h-125v125zM0 375h125v-125h-125v125zM0 250h125v-125h-125v125zM0 125h125v-125h-125v125zM0 0h125v-125h-125v125z
M0 -125h125v-125h-125v125z" />
    <glyph glyph-name="braceright" unicode="}" horiz-adv-x="500" 
d="M125 250h125v-125h-125v125zM125 375h125v-125h-125v125zM0 1125h125v-125h-125v125zM125 1000h125v-125h-125v125zM125 875h125v-125h-125v125zM125 750h125v-125h-125v125zM250 500h125v-125h-125v125zM125 625h125v-125h-125v125zM125 0h125v-125h-125v125zM125 125
h125v-125h-125v125zM0 -125h125v-125h-125v125z" />
    <glyph glyph-name="asciitilde" unicode="~" horiz-adv-x="1000" 
d="M0 500h125v-125h-125v125zM375 500h125v-125h-125v125zM250 625h125v-125h-125v125zM125 625h125v-125h-125v125zM500 375h125v-125h-125v125zM625 375h125v-125h-125v125zM750 500h125v-125h-125v125z" />
    <glyph glyph-name="uni00A0" unicode="&#xa0;" horiz-adv-x="375" 
 />
    <glyph glyph-name="exclamdown" unicode="&#xa1;" horiz-adv-x="250" 
d="M124.992 -249.984h-124.992v124.992h124.992v-124.992zM124.992 -124.992h-124.992v124.992h124.992v-124.992zM124.992 0h-124.992v124.992h124.992v-124.992zM124.992 124.992h-124.992v124.992h124.992v-124.992zM124.992 249.984h-124.992v124.993h124.992v-124.993z
M124.992 374.978h-124.992v124.992h124.992v-124.992zM124.992 624.962h-124.992v124.992h124.992v-124.992z" />
    <glyph glyph-name="cent" unicode="&#xa2;" 
d="M125 125h125v-125h-125v125zM250 125h125v-125h-125v125zM375 125h125v-125h-125v125zM0 250h125v-125h-125v125zM0 375h125v-125h-125v125zM0 500h125v-125h-125v125zM0 625h125v-125h-125v125zM125 750h125v-125h-125v125zM250 750h125v-125h-125v125zM375 750h125
v-125h-125v125zM500 625h125v-125h-125v125zM500 250h125v-125h-125v125zM250 875h125v-125h-125v125zM250 0h125v-125h-125v125z" />
    <glyph glyph-name="sterling" unicode="&#xa3;" horiz-adv-x="875" 
d="M125 125h125v-125h-125v125zM0 125h125v-125h-125v125zM250 125h125v-125h-125v125zM375 125h125v-125h-125v125zM500 125h125v-125h-125v125zM125 250h125v-125h-125v125zM125 375h125v-125h-125v125zM125 500h125v-125h-125v125zM125 625h125v-125h-125v125zM125 750
h125v-125h-125v125zM125 875h125v-125h-125v125zM250 1000h125v-125h-125v125zM375 1000h125v-125h-125v125zM0 500h125v-125h-125v125zM250 500h125v-125h-125v125zM375 500h125v-125h-125v125zM500 875h125v-125h-125v125zM625 125h125v-125h-125v125z" />
    <glyph glyph-name="currency" unicode="&#xa4;" horiz-adv-x="1000" 
d="M0 375h125v-125h-125v125zM0 625h125v-125h-125v125zM0 500h125v-125h-125v125zM125 750h125v-125h-125v125zM250 875h125v-125h-125v125zM375 875h125v-125h-125v125zM500 875h125v-125h-125v125zM625 750h125v-125h-125v125zM750 625h125v-125h-125v125zM750 500h125
v-125h-125v125zM750 375h125v-125h-125v125zM125 250h125v-125h-125v125zM250 125h125v-125h-125v125zM375 125h125v-125h-125v125zM500 125h125v-125h-125v125zM625 250h125v-125h-125v125zM0 125h125v-125h-125v125zM0 875h125v-125h-125v125zM750 875h125v-125h-125v125z
M750 125h125v-125h-125v125z" />
    <glyph glyph-name="yen" unicode="&#xa5;" horiz-adv-x="1000" 
d="M0 1000h125v-125h-125v125zM125 875h125v-125h-125v125zM250 750h125v-125h-125v125zM375 625h125v-125h-125v125zM500 750h125v-125h-125v125zM625 875h125v-125h-125v125zM750 1000h125v-125h-125v125zM375 500h125v-125h-125v125zM375 375h125v-125h-125v125zM375 250
h125v-125h-125v125zM375 125h125v-125h-125v125zM0 500h125v-125h-125v125zM125 500h125v-125h-125v125zM250 500h125v-125h-125v125zM500 500h125v-125h-125v125zM625 500h125v-125h-125v125zM750 500h125v-125h-125v125z" />
    <glyph glyph-name="brokenbar" unicode="&#xa6;" horiz-adv-x="250" 
d="M0 1125h125v-125h-125v125zM0 1000h125v-125h-125v125zM0 875h125v-125h-125v125zM0 750h125v-125h-125v125zM0 250h125v-125h-125v125zM0 125h125v-125h-125v125zM0 0h125v-125h-125v125zM0 -125h125v-125h-125v125zM0 375h125v-125h-125v125zM0 625h125v-125h-125v125z
" />
    <glyph glyph-name="section" unicode="&#xa7;" 
d="M125 0h125v-125h-125v125zM250 0h125v-125h-125v125zM375 0h125v-125h-125v125zM500 125h125v-125h-125v125zM375 625h125v-125h-125v125zM0 500h125v-125h-125v125zM500 500h125v-125h-125v125zM0 125h125v-125h-125v125zM125 375h125v-125h-125v125zM500 500h125v-125
h-125v125zM125 1000h125v-125h-125v125zM375 1000h125v-125h-125v125zM250 1000h125v-125h-125v125zM0 875h125v-125h-125v125zM500 875h125v-125h-125v125zM375 625h125v-125h-125v125zM0 500h125v-125h-125v125zM500 250h125v-125h-125v125zM0 750h125v-125h-125v125z
M125 625h125v-125h-125v125zM250 625h125v-125h-125v125zM250 375h125v-125h-125v125zM375 375h125v-125h-125v125z" />
    <glyph glyph-name="dieresis" unicode="&#xa8;" horiz-adv-x="500" 
d="M0 1000h125v-125h-125v125zM250 1000h125v-125h-125v125z" />
    <glyph glyph-name="copyright" unicode="&#xa9;" horiz-adv-x="1375" 
d="M0 625h125v-125h-125v125zM0 500h125v-125h-125v125zM250 500h125v-125h-125v125zM0 375h125v-125h-125v125zM250 375h125v-125h-125v125zM0 250h125v-125h-125v125zM375 250h125v-125h-125v125zM500 250h125v-125h-125v125zM125 125h125v-125h-125v125zM250 0h125v-125
h-125v125zM375 0h125v-125h-125v125zM500 0h125v-125h-125v125zM625 0h125v-125h-125v125zM375 875h125v-125h-125v125zM500 875h125v-125h-125v125zM625 875h125v-125h-125v125zM625 250h125v-125h-125v125zM750 250h125v-125h-125v125zM250 625h125v-125h-125v125z
M250 750h125v-125h-125v125zM0 750h125v-125h-125v125zM0 875h125v-125h-125v125zM750 875h125v-125h-125v125zM750 0h125v-125h-125v125zM875 0h125v-125h-125v125zM1000 125h125v-125h-125v125zM125 1000h125v-125h-125v125zM250 1125h125v-125h-125v125zM375 1125h125
v-125h-125v125zM500 1125h125v-125h-125v125zM625 1125h125v-125h-125v125zM750 1125h125v-125h-125v125zM875 1125h125v-125h-125v125zM1000 1000h125v-125h-125v125zM1125 875h125v-125h-125v125zM1125 750h125v-125h-125v125zM1125 625h125v-125h-125v125zM1125 500h125
v-125h-125v125zM1125 375h125v-125h-125v125zM1125 250h125v-125h-125v125z" />
    <glyph glyph-name="ordfeminine" unicode="&#xaa;" horiz-adv-x="625" 
d="M125 1000h125v-125h-125v125zM250 1000h125v-125h-125v125zM250 750h125v-125h-125v125zM125 750h125v-125h-125v125zM0 625h125v-125h-125v125zM375 750h125v-125h-125v125zM375 875h125v-125h-125v125zM375 625h125v-125h-125v125zM375 500h125v-125h-125v125zM125 500
h125v-125h-125v125zM250 500h125v-125h-125v125z" />
    <glyph glyph-name="guillemotleft" unicode="&#xab;" 
d="M0 500h125v-125h-125v125zM125 375h125v-125h-125v125zM250 250h125v-125h-125v125zM125 625h125v-125h-125v125zM250 750h125v-125h-125v125zM500 750h125v-125h-125v125zM375 625h125v-125h-125v125zM250 500h125v-125h-125v125zM375 375h125v-125h-125v125zM500 250
h125v-125h-125v125z" />
    <glyph glyph-name="logicalnot" unicode="&#xac;" 
d="M0 625h125v-125h-125v125zM125 625h125v-125h-125v125zM250 625h125v-125h-125v125zM375 625h125v-125h-125v125zM500 625h125v-125h-125v125zM500 500h125v-125h-125v125zM500 375h125v-125h-125v125zM500 250h125v-125h-125v125z" />
    <glyph glyph-name="registered" unicode="&#xae;" horiz-adv-x="1375" 
d="M0 625h125v-125h-125v125zM0 500h125v-125h-125v125zM0 375h125v-125h-125v125zM0 250h125v-125h-125v125zM125 125h125v-125h-125v125zM250 0h125v-125h-125v125zM375 0h125v-125h-125v125zM500 0h125v-125h-125v125zM625 0h125v-125h-125v125zM375 875h125v-125h-125
v125zM500 875h125v-125h-125v125zM625 875h125v-125h-125v125zM0 750h125v-125h-125v125zM0 875h125v-125h-125v125zM750 0h125v-125h-125v125zM875 0h125v-125h-125v125zM1000 125h125v-125h-125v125zM125 1000h125v-125h-125v125zM250 1125h125v-125h-125v125zM375 1125
h125v-125h-125v125zM500 1125h125v-125h-125v125zM625 1125h125v-125h-125v125zM750 1125h125v-125h-125v125zM875 1125h125v-125h-125v125zM1000 1000h125v-125h-125v125zM1125 875h125v-125h-125v125zM1125 750h125v-125h-125v125zM1125 625h125v-125h-125v125zM1125 500
h125v-125h-125v125zM1125 375h125v-125h-125v125zM1125 250h125v-125h-125v125zM375 750h125v-125h-125v125zM375 625h125v-125h-125v125zM375 500h125v-125h-125v125zM375 375h125v-125h-125v125zM750 750h125v-125h-125v125zM750 375h125v-125h-125v125zM375 250h125v-125
h-125v125zM750 250h125v-125h-125v125zM500 625h125v-125h-125v125zM625 625h125v-125h-125v125zM750 500h125v-125h-125v125z" />
    <glyph glyph-name="macron" unicode="&#xaf;" 
d="M0 1250h125v-125h-125v125zM125 1250h125v-125h-125v125zM250 1250h125v-125h-125v125zM375 1250h125v-125h-125v125zM500 1250h125v-125h-125v125z" />
    <glyph glyph-name="degree" unicode="&#xb0;" horiz-adv-x="625" 
d="M125 1000h125v-125h-125v125zM250 1000h125v-125h-125v125zM0 875h125v-125h-125v125zM0 750h125v-125h-125v125zM125 625h125v-125h-125v125zM250 625h125v-125h-125v125zM375 750h125v-125h-125v125zM375 875h125v-125h-125v125z" />
    <glyph glyph-name="plusminus" unicode="&#xb1;" 
d="M0 750h125v-125h-125v125zM125 750h125v-125h-125v125zM250 750h125v-125h-125v125zM375 750h125v-125h-125v125zM250 875h125v-125h-125v125zM250 1000h125v-125h-125v125zM250 625h125v-125h-125v125zM250 500h125v-125h-125v125zM500 750h125v-125h-125v125zM0 251
h125v-125h-125v125zM125 251h125v-125h-125v125zM250 251h125v-125h-125v125zM375 251h125v-125h-125v125zM500 251h125v-125h-125v125z" />
    <glyph glyph-name="acute" unicode="&#xb4;" horiz-adv-x="375" 
d="M0 1000h125v-125h-125v125zM125 1125h125v-125h-125v125z" />
    <glyph glyph-name="mu" unicode="&#xb5;" 
d="M0 -125h125v-125h-125v125zM0 0h125v-125h-125v125zM0 125h125v-125h-125v125zM0 250h125v-125h-125v125zM0 375h125v-125h-125v125zM0 500h125v-125h-125v125zM0 625h125v-125h-125v125zM0 750h125v-125h-125v125zM250 125h125v-125h-125v125zM375 125h125v-125h-125
v125zM500 250h125v-125h-125v125zM500 375h125v-125h-125v125zM500 500h125v-125h-125v125zM500 625h125v-125h-125v125zM500 750h125v-125h-125v125zM125 125h125v-125h-125v125z" />
    <glyph glyph-name="paragraph" unicode="&#xb6;" horiz-adv-x="875" 
d="M125 1000h125v-125h-125v125zM250 1000h125v-125h-125v125zM375 1000h125v-125h-125v125zM625 1000h125v-125h-125v125zM375 875h125v-125h-125v125zM625 875h125v-125h-125v125zM375 750h125v-125h-125v125zM625 750h125v-125h-125v125zM250 625h125v-125h-125v125z
M375 625h125v-125h-125v125zM625 625h125v-125h-125v125zM375 500h125v-125h-125v125zM625 500h125v-125h-125v125zM375 375h125v-125h-125v125zM625 375h125v-125h-125v125zM375 250h125v-125h-125v125zM625 250h125v-125h-125v125zM375 125h125v-125h-125v125zM625 125
h125v-125h-125v125zM375 0h125v-125h-125v125zM625 0h125v-125h-125v125zM375 -125h125v-125h-125v125zM625 -125h125v-125h-125v125zM0 875h125v-125h-125v125zM0 750h125v-125h-125v125zM125 625h125v-125h-125v125zM500 1000h125v-125h-125v125zM250 750h125v-125h-125
v125zM250 875h125v-125h-125v125zM125 875h125v-125h-125v125zM125 750h125v-125h-125v125z" />
    <glyph glyph-name="periodcentered" unicode="&#xb7;" horiz-adv-x="250" 
d="M0 500h125v-125h-125v125z" />
    <glyph glyph-name="cedilla" unicode="&#xb8;" horiz-adv-x="375" 
d="M125 0h125v-125h-125v125zM0 -125h125v-125h-125v125z" />
    <glyph glyph-name="ordmasculine" unicode="&#xba;" horiz-adv-x="625" 
d="M125 1000h125v-125h-125v125zM250 1000h125v-125h-125v125zM0 875h125v-125h-125v125zM0 750h125v-125h-125v125zM0 625h125v-125h-125v125zM250 500h125v-125h-125v125zM125 500h125v-125h-125v125zM375 750h125v-125h-125v125zM375 625h125v-125h-125v125zM375 875h125
v-125h-125v125z" />
    <glyph glyph-name="guillemotright" unicode="&#xbb;" 
d="M624.962 500h-124.992v-125h124.992v125zM499.97 375h-124.992v-125h124.992v125zM374.978 250h-124.993v-125h124.993v125zM499.97 625h-124.992v-125h124.992v125zM374.978 750h-124.993v-125h124.993v125zM124.992 750h-124.992v-125h124.992v125zM249.984 625
h-124.992v-125h124.992v125zM374.978 500h-124.993v-125h124.993v125zM249.984 375h-124.992v-125h124.992v125zM124.992 250h-124.992v-125h124.992v125z" />
    <glyph glyph-name="onequarter" unicode="&#xbc;" horiz-adv-x="1500" 
d="M750 375h125v-125h-125v125zM875 500h125v-125h-125v125zM250 1000h125v-125h-125v125zM250 875h125v-125h-125v125zM250 750h125v-125h-125v125zM250 625h125v-125h-125v125zM1000 625h125v-125h-125v125zM875 375h125v-125h-125v125zM1000 375h125v-125h-125v125z
M1125 750h125v-125h-125v125zM1125 625h125v-125h-125v125zM1125 500h125v-125h-125v125zM1125 375h125v-125h-125v125zM1125 250h125v-125h-125v125zM1125 125h125v-125h-125v125zM1250 375h125v-125h-125v125zM250 1125h125v-125h-125v125zM125 125h125v-125h-125v125z
M250 250h125v-125h-125v125zM375 375h125v-125h-125v125zM500 500h125v-125h-125v125zM625 625h125v-125h-125v125zM750 750h125v-125h-125v125zM875 875h125v-125h-125v125zM1000 1000h125v-125h-125v125zM1125 1125h125v-125h-125v125zM250 500h125v-125h-125v125z
M125 1000h125v-125h-125v125zM0 875h125v-125h-125v125z" />
    <glyph glyph-name="onehalf" unicode="&#xbd;" horiz-adv-x="1500" 
d="M250 1000h125v-125h-125v125zM250 875h125v-125h-125v125zM250 750h125v-125h-125v125zM250 625h125v-125h-125v125zM250 1125h125v-125h-125v125zM125 125h125v-125h-125v125zM250 250h125v-125h-125v125zM375 375h125v-125h-125v125zM500 500h125v-125h-125v125z
M625 625h125v-125h-125v125zM750 750h125v-125h-125v125zM875 875h125v-125h-125v125zM1000 1000h125v-125h-125v125zM1125 1125h125v-125h-125v125zM250 500h125v-125h-125v125zM125 1000h125v-125h-125v125zM0 875h125v-125h-125v125zM1000 750h125v-125h-125v125z
M1125 750h125v-125h-125v125zM1250 625h125v-125h-125v125zM1250 500h125v-125h-125v125zM875 625h125v-125h-125v125zM1125 375h125v-125h-125v125zM1000 250h125v-125h-125v125zM875 125h125v-125h-125v125zM1000 125h125v-125h-125v125zM1125 125h125v-125h-125v125z
M1250 125h125v-125h-125v125z" />
    <glyph glyph-name="threequarters" unicode="&#xbe;" horiz-adv-x="1500" 
d="M750 375h125v-125h-125v125zM875 500h125v-125h-125v125zM1000 625h125v-125h-125v125zM875 375h125v-125h-125v125zM1000 375h125v-125h-125v125zM1125 750h125v-125h-125v125zM1125 625h125v-125h-125v125zM1125 500h125v-125h-125v125zM1125 375h125v-125h-125v125z
M1125 250h125v-125h-125v125zM1125 125h125v-125h-125v125zM1250 375h125v-125h-125v125zM125 125h125v-125h-125v125zM250 250h125v-125h-125v125zM375 375h125v-125h-125v125zM500 500h125v-125h-125v125zM625 625h125v-125h-125v125zM750 750h125v-125h-125v125zM875 875
h125v-125h-125v125zM1000 1000h125v-125h-125v125zM1125 1125h125v-125h-125v125zM375 750h125v-125h-125v125zM125 625h125v-125h-125v125zM250 625h125v-125h-125v125zM0 750h125v-125h-125v125zM0 1125h125v-125h-125v125zM125 1250h125v-125h-125v125zM250 1250h125
v-125h-125v125zM375 1125h125v-125h-125v125zM250 1000h125v-125h-125v125zM375 875h125v-125h-125v125z" />
    <glyph glyph-name="questiondown" unicode="&#xbf;" 
d="M499.97 -249.984h-124.992v124.992h124.992v-124.992zM374.978 -249.984h-124.993v124.992h124.993v-124.992zM249.984 -249.984h-124.992v124.992h124.992v-124.992zM124.992 -124.992h-124.992v124.992h124.992v-124.992zM124.992 0h-124.992v124.992h124.992v-124.992
zM374.978 374.978h-124.993v124.992h124.993v-124.992zM374.978 249.984h-124.993v124.993h124.993v-124.993zM249.984 124.992h-124.992v124.992h124.992v-124.992zM374.978 624.962h-124.993v124.992h124.993v-124.992zM624.962 -124.992h-124.992v124.992h124.992
v-124.992z" />
    <glyph glyph-name="Agrave" unicode="&#xc0;" horiz-adv-x="1000" 
d="M250 750h125v-125h-125v125zM500 750h125v-125h-125v125zM125 500h125v-125h-125v125zM625 500h125v-125h-125v125zM125 375h125v-125h-125v125zM625 375h125v-125h-125v125zM0 250h125v-125h-125v125zM750 250h125v-125h-125v125zM0 125h125v-125h-125v125zM750 125h125
v-125h-125v125zM375 1000h125v-125h-125v125zM250 625h125v-125h-125v125zM500 625h125v-125h-125v125zM375 875h125v-125h-125v125zM250 375h125v-125h-125v125zM375 375h125v-125h-125v125zM500 375h125v-125h-125v125zM250 1375h125v-125h-125v125zM375 1250h125v-125
h-125v125z" />
    <glyph glyph-name="Aacute" unicode="&#xc1;" horiz-adv-x="1000" 
d="M250 750h125v-125h-125v125zM500 750h125v-125h-125v125zM125 500h125v-125h-125v125zM625 500h125v-125h-125v125zM125 375h125v-125h-125v125zM625 375h125v-125h-125v125zM0 250h125v-125h-125v125zM750 250h125v-125h-125v125zM0 125h125v-125h-125v125zM750 125h125
v-125h-125v125zM375 1000h125v-125h-125v125zM250 625h125v-125h-125v125zM500 625h125v-125h-125v125zM375 875h125v-125h-125v125zM250 375h125v-125h-125v125zM375 375h125v-125h-125v125zM500 375h125v-125h-125v125zM375 1250h125v-125h-125v125zM500 1375h125v-125
h-125v125z" />
    <glyph glyph-name="Acircumflex" unicode="&#xc2;" horiz-adv-x="1000" 
d="M250 750h125v-125h-125v125zM500 750h125v-125h-125v125zM125 500h125v-125h-125v125zM625 500h125v-125h-125v125zM125 375h125v-125h-125v125zM625 375h125v-125h-125v125zM0 250h125v-125h-125v125zM750 250h125v-125h-125v125zM0 125h125v-125h-125v125zM750 125h125
v-125h-125v125zM375 1000h125v-125h-125v125zM250 625h125v-125h-125v125zM500 625h125v-125h-125v125zM375 875h125v-125h-125v125zM250 375h125v-125h-125v125zM375 375h125v-125h-125v125zM500 375h125v-125h-125v125zM250 1250h125v-125h-125v125zM375 1375h125v-125
h-125v125zM500 1250h125v-125h-125v125z" />
    <glyph glyph-name="Atilde" unicode="&#xc3;" horiz-adv-x="1000" 
d="M250 750h125v-125h-125v125zM500 750h125v-125h-125v125zM125 500h125v-125h-125v125zM625 500h125v-125h-125v125zM125 375h125v-125h-125v125zM625 375h125v-125h-125v125zM0 250h125v-125h-125v125zM750 250h125v-125h-125v125zM0 125h125v-125h-125v125zM750 125h125
v-125h-125v125zM375 1000h125v-125h-125v125zM250 625h125v-125h-125v125zM500 625h125v-125h-125v125zM375 875h125v-125h-125v125zM250 375h125v-125h-125v125zM375 375h125v-125h-125v125zM500 375h125v-125h-125v125zM125 1250h125v-125h-125v125zM250 1375h125v-125
h-125v125zM375 1375h125v-125h-125v125zM500 1250h125v-125h-125v125zM625 1250h125v-125h-125v125zM750 1375h125v-125h-125v125z" />
    <glyph glyph-name="Adieresis" unicode="&#xc4;" horiz-adv-x="1000" 
d="M250 750h125v-125h-125v125zM500 750h125v-125h-125v125zM125 500h125v-125h-125v125zM625 500h125v-125h-125v125zM125 375h125v-125h-125v125zM625 375h125v-125h-125v125zM0 250h125v-125h-125v125zM750 250h125v-125h-125v125zM0 125h125v-125h-125v125zM750 125h125
v-125h-125v125zM375 1000h125v-125h-125v125zM250 625h125v-125h-125v125zM500 625h125v-125h-125v125zM375 875h125v-125h-125v125zM250 375h125v-125h-125v125zM375 375h125v-125h-125v125zM500 375h125v-125h-125v125zM250 1250h125v-125h-125v125zM500 1250h125v-125
h-125v125z" />
    <glyph glyph-name="Aring" unicode="&#xc5;" horiz-adv-x="1000" 
d="M250 750h125v-125h-125v125zM500 750h125v-125h-125v125zM125 500h125v-125h-125v125zM625 500h125v-125h-125v125zM125 375h125v-125h-125v125zM625 375h125v-125h-125v125zM0 250h125v-125h-125v125zM750 250h125v-125h-125v125zM0 125h125v-125h-125v125zM750 125h125
v-125h-125v125zM375 1000h125v-125h-125v125zM250 625h125v-125h-125v125zM500 625h125v-125h-125v125zM375 875h125v-125h-125v125zM250 375h125v-125h-125v125zM375 375h125v-125h-125v125zM500 375h125v-125h-125v125zM375 1250h125v-125h-125v125zM250 1375h125v-125
h-125v125zM375 1500h125v-125h-125v125zM500 1375h125v-125h-125v125z" />
    <glyph glyph-name="AE" unicode="&#xc6;" horiz-adv-x="1625" 
d="M250 750h125v-125h-125v125zM500 750h125v-125h-125v125zM125 500h125v-125h-125v125zM625 500h125v-125h-125v125zM125 375h125v-125h-125v125zM625 375h125v-125h-125v125zM0 250h125v-125h-125v125zM750 250h125v-125h-125v125zM0 125h125v-125h-125v125zM750 125h125
v-125h-125v125zM375 1000h125v-125h-125v125zM250 625h125v-125h-125v125zM500 625h125v-125h-125v125zM375 875h125v-125h-125v125zM250 375h125v-125h-125v125zM375 375h125v-125h-125v125zM500 375h125v-125h-125v125zM750 125h125v-125h-125v125zM875 125h125v-125h-125
v125zM1000 125h125v-125h-125v125zM1125 125h125v-125h-125v125zM1250 125h125v-125h-125v125zM1375 125h125v-125h-125v125zM750 250h125v-125h-125v125zM750 375h125v-125h-125v125zM750 500h125v-125h-125v125zM750 625h125v-125h-125v125zM750 750h125v-125h-125v125z
M750 875h125v-125h-125v125zM1375 1000h125v-125h-125v125zM1250 1000h125v-125h-125v125zM1125 1000h125v-125h-125v125zM1000 1000h125v-125h-125v125zM875 1000h125v-125h-125v125zM750 1000h125v-125h-125v125zM875 625h125v-125h-125v125zM1000 625h125v-125h-125v125z
M1125 625h125v-125h-125v125zM1250 625h125v-125h-125v125zM1375 625h125v-125h-125v125z" />
    <glyph glyph-name="Ccedilla" unicode="&#xc7;" horiz-adv-x="875" 
d="M250 125h125v-125h-125v125zM125 250h125v-125h-125v125zM0 375h125v-125h-125v125zM0 500h125v-125h-125v125zM0 625h125v-125h-125v125zM0 750h125v-125h-125v125zM250 1000h125v-125h-125v125zM125 875h125v-125h-125v125zM375 125h125v-125h-125v125zM500 125h125
v-125h-125v125zM375 1000h125v-125h-125v125zM500 1000h125v-125h-125v125zM625 875h125v-125h-125v125zM625 250h125v-125h-125v125zM375 0h125v-125h-125v125zM250 -125h125v-125h-125v125z" />
    <glyph glyph-name="Egrave" unicode="&#xc8;" horiz-adv-x="875" 
d="M0 125h125v-125h-125v125zM125 125h125v-125h-125v125zM250 125h125v-125h-125v125zM375 125h125v-125h-125v125zM500 125h125v-125h-125v125zM625 125h125v-125h-125v125zM0 250h125v-125h-125v125zM0 375h125v-125h-125v125zM0 500h125v-125h-125v125zM0 625h125v-125
h-125v125zM0 750h125v-125h-125v125zM0 875h125v-125h-125v125zM625 1000h125v-125h-125v125zM500 1000h125v-125h-125v125zM375 1000h125v-125h-125v125zM250 1000h125v-125h-125v125zM125 1000h125v-125h-125v125zM0 1000h125v-125h-125v125zM125 625h125v-125h-125v125z
M250 625h125v-125h-125v125zM375 625h125v-125h-125v125zM500 625h125v-125h-125v125zM625 625h125v-125h-125v125zM250 1375h125v-125h-125v125zM375 1250h125v-125h-125v125z" />
    <glyph glyph-name="Eacute" unicode="&#xc9;" horiz-adv-x="875" 
d="M0 125h125v-125h-125v125zM125 125h125v-125h-125v125zM250 125h125v-125h-125v125zM375 125h125v-125h-125v125zM500 125h125v-125h-125v125zM625 125h125v-125h-125v125zM0 250h125v-125h-125v125zM0 375h125v-125h-125v125zM0 500h125v-125h-125v125zM0 625h125v-125
h-125v125zM0 750h125v-125h-125v125zM0 875h125v-125h-125v125zM625 1000h125v-125h-125v125zM500 1000h125v-125h-125v125zM375 1000h125v-125h-125v125zM250 1000h125v-125h-125v125zM125 1000h125v-125h-125v125zM0 1000h125v-125h-125v125zM125 625h125v-125h-125v125z
M250 625h125v-125h-125v125zM375 625h125v-125h-125v125zM500 625h125v-125h-125v125zM625 625h125v-125h-125v125zM250 1250h125v-125h-125v125zM375 1375h125v-125h-125v125z" />
    <glyph glyph-name="Ecircumflex" unicode="&#xca;" horiz-adv-x="875" 
d="M0 125h125v-125h-125v125zM125 125h125v-125h-125v125zM250 125h125v-125h-125v125zM375 125h125v-125h-125v125zM500 125h125v-125h-125v125zM625 125h125v-125h-125v125zM0 250h125v-125h-125v125zM0 375h125v-125h-125v125zM0 500h125v-125h-125v125zM0 625h125v-125
h-125v125zM0 750h125v-125h-125v125zM0 875h125v-125h-125v125zM625 1000h125v-125h-125v125zM500 1000h125v-125h-125v125zM375 1000h125v-125h-125v125zM250 1000h125v-125h-125v125zM125 1000h125v-125h-125v125zM0 1000h125v-125h-125v125zM125 625h125v-125h-125v125z
M250 625h125v-125h-125v125zM375 625h125v-125h-125v125zM500 625h125v-125h-125v125zM625 625h125v-125h-125v125zM125 1250h125v-125h-125v125zM250 1375h125v-125h-125v125zM375 1375h125v-125h-125v125zM500 1250h125v-125h-125v125z" />
    <glyph glyph-name="Edieresis" unicode="&#xcb;" horiz-adv-x="875" 
d="M0 125h125v-125h-125v125zM125 125h125v-125h-125v125zM250 125h125v-125h-125v125zM375 125h125v-125h-125v125zM500 125h125v-125h-125v125zM625 125h125v-125h-125v125zM0 250h125v-125h-125v125zM0 375h125v-125h-125v125zM0 500h125v-125h-125v125zM0 625h125v-125
h-125v125zM0 750h125v-125h-125v125zM0 875h125v-125h-125v125zM625 1000h125v-125h-125v125zM500 1000h125v-125h-125v125zM375 1000h125v-125h-125v125zM250 1000h125v-125h-125v125zM125 1000h125v-125h-125v125zM0 1000h125v-125h-125v125zM125 625h125v-125h-125v125z
M250 625h125v-125h-125v125zM375 625h125v-125h-125v125zM500 625h125v-125h-125v125zM625 625h125v-125h-125v125zM125 1250h125v-125h-125v125zM500 1250h125v-125h-125v125z" />
    <glyph glyph-name="Igrave" unicode="&#xcc;" horiz-adv-x="375" 
d="M124 1000h125v-125h-125v125zM124 875h125v-125h-125v125zM124 750h125v-125h-125v125zM124 625h125v-125h-125v125zM124 500h125v-125h-125v125zM124 375h125v-125h-125v125zM124 250h125v-125h-125v125zM124 125h125v-125h-125v125zM0 1375h125v-125h-125v125z
M125 1250h125v-125h-125v125z" />
    <glyph glyph-name="Iacute" unicode="&#xcd;" horiz-adv-x="250" 
d="M0 1000h125v-125h-125v125zM0 875h125v-125h-125v125zM0 750h125v-125h-125v125zM0 625h125v-125h-125v125zM0 500h125v-125h-125v125zM0 375h125v-125h-125v125zM0 250h125v-125h-125v125zM0 125h125v-125h-125v125zM0 1250h125v-125h-125v125zM125 1375h125v-125h-125
v125z" />
    <glyph glyph-name="Icircumflex" unicode="&#xce;" horiz-adv-x="375" 
d="M125 1000h125v-125h-125v125zM125 875h125v-125h-125v125zM125 750h125v-125h-125v125zM125 625h125v-125h-125v125zM125 500h125v-125h-125v125zM125 375h125v-125h-125v125zM125 250h125v-125h-125v125zM125 125h125v-125h-125v125zM0 1250h125v-125h-125v125z
M125 1375h125v-125h-125v125zM250 1250h125v-125h-125v125z" />
    <glyph glyph-name="Idieresis" unicode="&#xcf;" horiz-adv-x="375" 
d="M125 1000h125v-125h-125v125zM125 875h125v-125h-125v125zM125 750h125v-125h-125v125zM125 625h125v-125h-125v125zM125 500h125v-125h-125v125zM125 375h125v-125h-125v125zM125 250h125v-125h-125v125zM125 125h125v-125h-125v125zM0 1250h125v-125h-125v125z
M250 1250h125v-125h-125v125z" />
    <glyph glyph-name="Eth" unicode="&#xd0;" horiz-adv-x="1000" 
d="M0 625h125v-125h-125v125zM250 625h125v-125h-125v125zM375 625h125v-125h-125v125zM125 1000h125v-125h-125v125zM125 875h125v-125h-125v125zM125 750h125v-125h-125v125zM125 625h125v-125h-125v125zM125 500h125v-125h-125v125zM125 375h125v-125h-125v125zM125 250
h125v-125h-125v125zM125 125h125v-125h-125v125zM250 125h125v-125h-125v125zM375 125h125v-125h-125v125zM500 125h125v-125h-125v125zM750 375h125v-125h-125v125zM750 500h125v-125h-125v125zM750 625h125v-125h-125v125zM750 750h125v-125h-125v125zM500 1000h125v-125
h-125v125zM375 1000h125v-125h-125v125zM250 1000h125v-125h-125v125zM625 875h125v-125h-125v125zM625 250h125v-125h-125v125z" />
    <glyph glyph-name="Ntilde" unicode="&#xd1;" horiz-adv-x="875" 
d="M0 125h125v-125h-125v125zM0 250h125v-125h-125v125zM0 375h125v-125h-125v125zM0 500h125v-125h-125v125zM0 625h125v-125h-125v125zM0 750h125v-125h-125v125zM0 875h125v-125h-125v125zM0 1000h125v-125h-125v125zM625 125h125v-125h-125v125zM625 250h125v-125h-125
v125zM625 375h125v-125h-125v125zM625 500h125v-125h-125v125zM625 625h125v-125h-125v125zM625 750h125v-125h-125v125zM625 875h125v-125h-125v125zM625 1000h125v-125h-125v125zM125 875h125v-125h-125v125zM250 750h125v-125h-125v125zM375 625h125v-125h-125v125z
M500 500h125v-125h-125v125zM0 1250h125v-125h-125v125zM125 1375h125v-125h-125v125zM250 1375h125v-125h-125v125zM375 1250h125v-125h-125v125zM500 1250h125v-125h-125v125zM625 1375h125v-125h-125v125z" />
    <glyph glyph-name="Ograve" unicode="&#xd2;" horiz-adv-x="1000" 
d="M250 125h125v-125h-125v125zM375 125h125v-125h-125v125zM500 125h125v-125h-125v125zM125 250h125v-125h-125v125zM0 375h125v-125h-125v125zM0 500h125v-125h-125v125zM0 625h125v-125h-125v125zM0 750h125v-125h-125v125zM250 1000h125v-125h-125v125zM125 875h125
v-125h-125v125zM375 1000h125v-125h-125v125zM500 1000h125v-125h-125v125zM625 875h125v-125h-125v125zM750 750h125v-125h-125v125zM750 625h125v-125h-125v125zM750 500h125v-125h-125v125zM750 375h125v-125h-125v125zM625 250h125v-125h-125v125zM250 1375h125v-125
h-125v125zM375 1250h125v-125h-125v125z" />
    <glyph glyph-name="Oacute" unicode="&#xd3;" horiz-adv-x="1000" 
d="M250 125h125v-125h-125v125zM375 125h125v-125h-125v125zM500 125h125v-125h-125v125zM125 250h125v-125h-125v125zM0 375h125v-125h-125v125zM0 500h125v-125h-125v125zM0 625h125v-125h-125v125zM0 750h125v-125h-125v125zM250 1000h125v-125h-125v125zM125 875h125
v-125h-125v125zM375 1000h125v-125h-125v125zM500 1000h125v-125h-125v125zM625 875h125v-125h-125v125zM750 750h125v-125h-125v125zM750 625h125v-125h-125v125zM750 500h125v-125h-125v125zM750 375h125v-125h-125v125zM625 250h125v-125h-125v125zM375 1250h125v-125
h-125v125zM500 1375h125v-125h-125v125z" />
    <glyph glyph-name="Ocircumflex" unicode="&#xd4;" horiz-adv-x="1000" 
d="M250 125h125v-125h-125v125zM375 125h125v-125h-125v125zM500 125h125v-125h-125v125zM125 250h125v-125h-125v125zM0 375h125v-125h-125v125zM0 500h125v-125h-125v125zM0 625h125v-125h-125v125zM0 750h125v-125h-125v125zM250 1000h125v-125h-125v125zM125 875h125
v-125h-125v125zM375 1000h125v-125h-125v125zM500 1000h125v-125h-125v125zM625 875h125v-125h-125v125zM750 750h125v-125h-125v125zM750 625h125v-125h-125v125zM750 500h125v-125h-125v125zM750 375h125v-125h-125v125zM625 250h125v-125h-125v125zM250 1250h125v-125
h-125v125zM375 1375h125v-125h-125v125zM500 1250h125v-125h-125v125z" />
    <glyph glyph-name="Otilde" unicode="&#xd5;" horiz-adv-x="1000" 
d="M250 125h125v-125h-125v125zM375 125h125v-125h-125v125zM500 125h125v-125h-125v125zM125 250h125v-125h-125v125zM0 375h125v-125h-125v125zM0 500h125v-125h-125v125zM0 625h125v-125h-125v125zM0 750h125v-125h-125v125zM250 1000h125v-125h-125v125zM125 875h125
v-125h-125v125zM375 1000h125v-125h-125v125zM500 1000h125v-125h-125v125zM625 875h125v-125h-125v125zM750 750h125v-125h-125v125zM750 625h125v-125h-125v125zM750 500h125v-125h-125v125zM750 375h125v-125h-125v125zM625 250h125v-125h-125v125zM126 1246h125v-125
h-125v125zM251 1371h125v-125h-125v125zM376 1371h125v-125h-125v125zM501 1246h125v-125h-125v125zM626 1246h125v-125h-125v125zM751 1371h125v-125h-125v125z" />
    <glyph glyph-name="Odieresis" unicode="&#xd6;" horiz-adv-x="1000" 
d="M250 125h125v-125h-125v125zM375 125h125v-125h-125v125zM500 125h125v-125h-125v125zM125 250h125v-125h-125v125zM0 375h125v-125h-125v125zM0 500h125v-125h-125v125zM0 625h125v-125h-125v125zM0 750h125v-125h-125v125zM250 1000h125v-125h-125v125zM125 875h125
v-125h-125v125zM375 1000h125v-125h-125v125zM500 1000h125v-125h-125v125zM625 875h125v-125h-125v125zM750 750h125v-125h-125v125zM750 625h125v-125h-125v125zM750 500h125v-125h-125v125zM750 375h125v-125h-125v125zM625 250h125v-125h-125v125zM250 1250h125v-125
h-125v125zM500 1250h125v-125h-125v125z" />
    <glyph glyph-name="multiply" unicode="&#xd7;" 
d="M250 500h125v-125h-125v125zM0 750h125v-125h-125v125zM125 625h125v-125h-125v125zM375 375h125v-125h-125v125zM500 250h125v-125h-125v125zM0 250h125v-125h-125v125zM125 375h125v-125h-125v125zM375 625h125v-125h-125v125zM500 750h125v-125h-125v125z" />
    <glyph glyph-name="Oslash" unicode="&#xd8;" horiz-adv-x="1125" 
d="M250 125h125v-125h-125v125zM375 125h125v-125h-125v125zM500 125h125v-125h-125v125zM125 250h125v-125h-125v125zM0 375h125v-125h-125v125zM0 500h125v-125h-125v125zM0 625h125v-125h-125v125zM0 750h125v-125h-125v125zM250 1000h125v-125h-125v125zM125 875h125
v-125h-125v125zM375 1000h125v-125h-125v125zM500 1000h125v-125h-125v125zM250 375h125v-125h-125v125zM625 1000h125v-125h-125v125zM750 875h125v-125h-125v125zM625 750h125v-125h-125v125zM500 625h125v-125h-125v125zM375 500h125v-125h-125v125zM875 750h125v-125
h-125v125zM875 625h125v-125h-125v125zM875 500h125v-125h-125v125zM875 375h125v-125h-125v125zM625 125h125v-125h-125v125zM750 250h125v-125h-125v125z" />
    <glyph glyph-name="Ugrave" unicode="&#xd9;" horiz-adv-x="1000" 
d="M0 1000h125v-125h-125v125zM0 875h125v-125h-125v125zM0 750h125v-125h-125v125zM0 625h125v-125h-125v125zM0 500h125v-125h-125v125zM0 375h125v-125h-125v125zM125 250h125v-125h-125v125zM250 125h125v-125h-125v125zM375 125h125v-125h-125v125zM500 125h125v-125
h-125v125zM625 250h125v-125h-125v125zM750 375h125v-125h-125v125zM750 500h125v-125h-125v125zM750 625h125v-125h-125v125zM750 750h125v-125h-125v125zM750 875h125v-125h-125v125zM750 1000h125v-125h-125v125zM250 1375h125v-125h-125v125zM375 1250h125v-125h-125
v125z" />
    <glyph glyph-name="Uacute" unicode="&#xda;" horiz-adv-x="1000" 
d="M0 1000h125v-125h-125v125zM0 875h125v-125h-125v125zM0 750h125v-125h-125v125zM0 625h125v-125h-125v125zM0 500h125v-125h-125v125zM0 375h125v-125h-125v125zM125 250h125v-125h-125v125zM250 125h125v-125h-125v125zM375 125h125v-125h-125v125zM500 125h125v-125
h-125v125zM625 250h125v-125h-125v125zM750 375h125v-125h-125v125zM750 500h125v-125h-125v125zM750 625h125v-125h-125v125zM750 750h125v-125h-125v125zM750 875h125v-125h-125v125zM750 1000h125v-125h-125v125zM375 1250h125v-125h-125v125zM500 1375h125v-125h-125
v125z" />
    <glyph glyph-name="Ucircumflex" unicode="&#xdb;" horiz-adv-x="1000" 
d="M0 1000h125v-125h-125v125zM0 875h125v-125h-125v125zM0 750h125v-125h-125v125zM0 625h125v-125h-125v125zM0 500h125v-125h-125v125zM0 375h125v-125h-125v125zM125 250h125v-125h-125v125zM250 125h125v-125h-125v125zM375 125h125v-125h-125v125zM500 125h125v-125
h-125v125zM625 250h125v-125h-125v125zM750 375h125v-125h-125v125zM750 500h125v-125h-125v125zM750 625h125v-125h-125v125zM750 750h125v-125h-125v125zM750 875h125v-125h-125v125zM750 1000h125v-125h-125v125zM250 1250h125v-125h-125v125zM375 1375h125v-125h-125
v125zM500 1250h125v-125h-125v125z" />
    <glyph glyph-name="Udieresis" unicode="&#xdc;" horiz-adv-x="1000" 
d="M0 1000h125v-125h-125v125zM0 875h125v-125h-125v125zM0 750h125v-125h-125v125zM0 625h125v-125h-125v125zM0 500h125v-125h-125v125zM0 375h125v-125h-125v125zM125 250h125v-125h-125v125zM250 125h125v-125h-125v125zM375 125h125v-125h-125v125zM500 125h125v-125
h-125v125zM625 250h125v-125h-125v125zM750 375h125v-125h-125v125zM750 500h125v-125h-125v125zM750 625h125v-125h-125v125zM750 750h125v-125h-125v125zM750 875h125v-125h-125v125zM750 1000h125v-125h-125v125zM250 1250h125v-125h-125v125zM500 1250h125v-125h-125
v125z" />
    <glyph glyph-name="Yacute" unicode="&#xdd;" horiz-adv-x="1000" 
d="M0 1000h125v-125h-125v125zM125 875h125v-125h-125v125zM250 750h125v-125h-125v125zM375 625h125v-125h-125v125zM500 750h125v-125h-125v125zM625 875h125v-125h-125v125zM750 1000h125v-125h-125v125zM375 500h125v-125h-125v125zM375 375h125v-125h-125v125zM375 250
h125v-125h-125v125zM375 125h125v-125h-125v125zM371 1253h125v-125h-125v125zM496 1378h125v-125h-125v125z" />
    <glyph glyph-name="Thorn" unicode="&#xde;" horiz-adv-x="875" 
d="M0 125h125v-125h-125v125zM0 250h125v-125h-125v125zM0 375h125v-125h-125v125zM0 500h125v-125h-125v125zM0 625h125v-125h-125v125zM0 750h125v-125h-125v125zM125 750h125v-125h-125v125zM250 750h125v-125h-125v125zM375 750h125v-125h-125v125zM0 875h125v-125h-125
v125zM0 1000h125v-125h-125v125zM125 375h125v-125h-125v125zM250 375h125v-125h-125v125zM375 375h125v-125h-125v125zM500 375h125v-125h-125v125zM625 500h125v-125h-125v125zM625 625h125v-125h-125v125zM500 750h125v-125h-125v125z" />
    <glyph glyph-name="germandbls" unicode="&#xdf;" 
d="M0 250h125v-125h-125v125zM0 375h125v-125h-125v125zM0 500h125v-125h-125v125zM0 750h125v-125h-125v125zM0 875h125v-125h-125v125zM125 1000h125v-125h-125v125zM250 1000h125v-125h-125v125zM500 375h125v-125h-125v125zM500 250h125v-125h-125v125zM0 625h125v-125
h-125v125zM250 625h125v-125h-125v125zM375 125h125v-125h-125v125zM250 125h125v-125h-125v125zM0 125h125v-125h-125v125zM375 875h125v-125h-125v125zM375 750h125v-125h-125v125zM375 500h125v-125h-125v125z" />
    <glyph glyph-name="agrave" unicode="&#xe0;" 
d="M122 753h381v-125h125v-631h-506v125h-125v256h125v125h375v119h-375v131zM128 128h369v244h-369v-244zM125 1125h125v-125h-125v125zM250 1000h125v-125h-125v125z" />
    <glyph glyph-name="aacute" unicode="&#xe1;" 
d="M122 753h381v-125h125v-631h-506v125h-125v256h125v125h375v119h-375v131zM128 128h369v244h-369v-244zM250 1000h125v-125h-125v125zM375 1125h125v-125h-125v125z" />
    <glyph glyph-name="acircumflex" unicode="&#xe2;" 
d="M122 753h381v-125h125v-631h-506v125h-125v256h125v125h375v119h-375v131zM128 128h369v244h-369v-244zM125 1000h125v-125h-125v125zM250 1125h125v-125h-125v125zM375 1000h125v-125h-125v125z" />
    <glyph glyph-name="atilde" unicode="&#xe3;" 
d="M122 753h381v-125h125v-631h-506v125h-125v256h125v125h375v119h-375v131zM128 128h369v244h-369v-244zM0 1000h125v-125h-125v125zM125 1125h125v-125h-125v125zM250 1125h125v-125h-125v125zM375 1000h125v-125h-125v125zM500 1000h125v-125h-125v125zM625 1125h125
v-125h-125v125z" />
    <glyph glyph-name="adieresis" unicode="&#xe4;" 
d="M122 753h381v-125h125v-631h-506v125h-125v256h125v125h375v119h-375v131zM128 128h369v244h-369v-244zM125 1000h125v-125h-125v125zM375 1000h125v-125h-125v125z" />
    <glyph glyph-name="aring" unicode="&#xe5;" 
d="M122 753h381v-125h125v-631h-506v125h-125v256h125v125h375v119h-375v131zM128 128h369v244h-369v-244zM250 1000h125v-125h-125v125zM125 1125h125v-125h-125v125zM250 1250h125v-125h-125v125zM375 1125h125v-125h-125v125z" />
    <glyph glyph-name="ae" unicode="&#xe6;" horiz-adv-x="1250" 
d="M125 125h125v-125h-125v125zM250 125h125v-125h-125v125zM375 125h125v-125h-125v125zM500 250h125v-125h-125v125zM0 250h125v-125h-125v125zM0 375h125v-125h-125v125zM125 500h125v-125h-125v125zM250 500h125v-125h-125v125zM375 500h125v-125h-125v125zM500 500h125
v-125h-125v125zM500 375h125v-125h-125v125zM125 750h125v-125h-125v125zM250 750h125v-125h-125v125zM375 750h125v-125h-125v125zM500 625h125v-125h-125v125zM625 125h125v-125h-125v125zM750 125h125v-125h-125v125zM875 125h125v-125h-125v125zM500 250h125v-125h-125
v125zM500 375h125v-125h-125v125zM500 500h125v-125h-125v125zM500 625h125v-125h-125v125zM625 750h125v-125h-125v125zM750 750h125v-125h-125v125zM875 750h125v-125h-125v125zM1000 625h125v-125h-125v125zM1000 500h125v-125h-125v125zM875 500h125v-125h-125v125z
M750 500h125v-125h-125v125zM625 500h125v-125h-125v125zM1000 250h125v-125h-125v125z" />
    <glyph glyph-name="ccedilla" unicode="&#xe7;" 
d="M125 125h125v-125h-125v125zM250 125h125v-125h-125v125zM375 125h125v-125h-125v125zM0 250h125v-125h-125v125zM0 375h125v-125h-125v125zM0 500h125v-125h-125v125zM0 625h125v-125h-125v125zM125 750h125v-125h-125v125zM250 750h125v-125h-125v125zM375 750h125
v-125h-125v125zM500 625h125v-125h-125v125zM500 250h125v-125h-125v125zM250 0h125v-125h-125v125zM125 -125h125v-125h-125v125z" />
    <glyph glyph-name="egrave" unicode="&#xe8;" 
d="M125 125h125v-125h-125v125zM250 125h125v-125h-125v125zM375 125h125v-125h-125v125zM0 250h125v-125h-125v125zM0 375h125v-125h-125v125zM0 500h125v-125h-125v125zM0 625h125v-125h-125v125zM125 750h125v-125h-125v125zM250 750h125v-125h-125v125zM375 750h125
v-125h-125v125zM500 625h125v-125h-125v125zM500 500h125v-125h-125v125zM375 500h125v-125h-125v125zM250 500h125v-125h-125v125zM125 500h125v-125h-125v125zM500 250h125v-125h-125v125zM125 1125h125v-125h-125v125zM250 1000h125v-125h-125v125z" />
    <glyph glyph-name="eacute" unicode="&#xe9;" 
d="M125 125h125v-125h-125v125zM250 125h125v-125h-125v125zM375 125h125v-125h-125v125zM0 250h125v-125h-125v125zM0 375h125v-125h-125v125zM0 500h125v-125h-125v125zM0 625h125v-125h-125v125zM125 750h125v-125h-125v125zM250 750h125v-125h-125v125zM375 750h125
v-125h-125v125zM500 625h125v-125h-125v125zM500 500h125v-125h-125v125zM375 500h125v-125h-125v125zM250 500h125v-125h-125v125zM125 500h125v-125h-125v125zM500 250h125v-125h-125v125zM256 1003h125v-125h-125v125zM381 1128h125v-125h-125v125z" />
    <glyph glyph-name="ecircumflex" unicode="&#xea;" 
d="M125 125h125v-125h-125v125zM250 125h125v-125h-125v125zM375 125h125v-125h-125v125zM0 250h125v-125h-125v125zM0 375h125v-125h-125v125zM0 500h125v-125h-125v125zM0 625h125v-125h-125v125zM125 750h125v-125h-125v125zM250 750h125v-125h-125v125zM375 750h125
v-125h-125v125zM500 625h125v-125h-125v125zM500 500h125v-125h-125v125zM375 500h125v-125h-125v125zM250 500h125v-125h-125v125zM125 500h125v-125h-125v125zM500 250h125v-125h-125v125zM125 1000h125v-125h-125v125zM250 1125h125v-125h-125v125zM375 1000h125v-125
h-125v125z" />
    <glyph glyph-name="edieresis" unicode="&#xeb;" 
d="M125 125h125v-125h-125v125zM250 125h125v-125h-125v125zM375 125h125v-125h-125v125zM0 250h125v-125h-125v125zM0 375h125v-125h-125v125zM0 500h125v-125h-125v125zM0 625h125v-125h-125v125zM125 750h125v-125h-125v125zM250 750h125v-125h-125v125zM375 750h125
v-125h-125v125zM500 625h125v-125h-125v125zM500 500h125v-125h-125v125zM375 500h125v-125h-125v125zM250 500h125v-125h-125v125zM125 500h125v-125h-125v125zM500 250h125v-125h-125v125zM125 1000h125v-125h-125v125zM375 1000h125v-125h-125v125z" />
    <glyph glyph-name="igrave" unicode="&#xec;" horiz-adv-x="375" 
d="M125 125h125v-125h-125v125zM125 250h125v-125h-125v125zM125 375h125v-125h-125v125zM125 500h125v-125h-125v125zM125 625h125v-125h-125v125zM125 750h125v-125h-125v125zM0 1125h125v-125h-125v125zM125 1000h125v-125h-125v125z" />
    <glyph glyph-name="iacute" unicode="&#xed;" horiz-adv-x="250" 
d="M0 125h125v-125h-125v125zM0 250h125v-125h-125v125zM0 375h125v-125h-125v125zM0 500h125v-125h-125v125zM0 625h125v-125h-125v125zM0 750h125v-125h-125v125zM0 1000h125v-125h-125v125zM125 1125h125v-125h-125v125z" />
    <glyph glyph-name="icircumflex" unicode="&#xee;" horiz-adv-x="375" 
d="M125 125h125v-125h-125v125zM125 250h125v-125h-125v125zM125 375h125v-125h-125v125zM125 500h125v-125h-125v125zM125 625h125v-125h-125v125zM125 750h125v-125h-125v125zM0 1000h125v-125h-125v125zM125 1125h125v-125h-125v125zM250 1000h125v-125h-125v125z" />
    <glyph glyph-name="idieresis" unicode="&#xef;" horiz-adv-x="375" 
d="M125 125h125v-125h-125v125zM125 250h125v-125h-125v125zM125 375h125v-125h-125v125zM125 500h125v-125h-125v125zM125 625h125v-125h-125v125zM125 750h125v-125h-125v125zM0 1000h125v-125h-125v125zM250 1000h125v-125h-125v125z" />
    <glyph glyph-name="eth" unicode="&#xf0;" horiz-adv-x="875" 
d="M0 250h125v-125h-125v125zM125 125h125v-125h-125v125zM250 125h125v-125h-125v125zM375 125h125v-125h-125v125zM0 375h125v-125h-125v125zM500 750h125v-125h-125v125zM500 250h125v-125h-125v125zM500 375h125v-125h-125v125zM500 625h125v-125h-125v125zM500 500h125
v-125h-125v125zM375 875h125v-125h-125v125zM375 1000h125v-125h-125v125zM250 875h125v-125h-125v125zM500 875h125v-125h-125v125zM625 875h125v-125h-125v125zM125 625h125v-125h-125v125zM250 625h125v-125h-125v125zM375 625h125v-125h-125v125zM0 500h125v-125h-125
v125z" />
    <glyph glyph-name="ntilde" unicode="&#xf1;" 
d="M0 125h125v-125h-125v125zM0 250h125v-125h-125v125zM0 375h125v-125h-125v125zM0 500h125v-125h-125v125zM0 625h125v-125h-125v125zM0 750h125v-125h-125v125zM125 750h125v-125h-125v125zM250 750h125v-125h-125v125zM375 750h125v-125h-125v125zM500 625h125v-125
h-125v125zM500 500h125v-125h-125v125zM500 375h125v-125h-125v125zM500 250h125v-125h-125v125zM500 125h125v-125h-125v125zM0 1000h125v-125h-125v125zM125 1125h125v-125h-125v125zM250 1125h125v-125h-125v125zM375 1000h125v-125h-125v125zM500 1000h125v-125h-125
v125zM625 1125h125v-125h-125v125z" />
    <glyph glyph-name="ograve" unicode="&#xf2;" 
d="M0 250h125v-125h-125v125zM0 375h125v-125h-125v125zM0 500h125v-125h-125v125zM0 625h125v-125h-125v125zM125 750h125v-125h-125v125zM250 750h125v-125h-125v125zM375 750h125v-125h-125v125zM500 625h125v-125h-125v125zM500 500h125v-125h-125v125zM500 250h125
v-125h-125v125zM500 375h125v-125h-125v125zM125 125h125v-125h-125v125zM250 125h125v-125h-125v125zM375 125h125v-125h-125v125zM125 1125h125v-125h-125v125zM250 1000h125v-125h-125v125z" />
    <glyph glyph-name="oacute" unicode="&#xf3;" 
d="M0 250h125v-125h-125v125zM0 375h125v-125h-125v125zM0 500h125v-125h-125v125zM0 625h125v-125h-125v125zM125 750h125v-125h-125v125zM250 750h125v-125h-125v125zM375 750h125v-125h-125v125zM500 625h125v-125h-125v125zM500 500h125v-125h-125v125zM500 250h125
v-125h-125v125zM500 375h125v-125h-125v125zM125 125h125v-125h-125v125zM250 125h125v-125h-125v125zM375 125h125v-125h-125v125zM250 1000h125v-125h-125v125zM375 1125h125v-125h-125v125z" />
    <glyph glyph-name="ocircumflex" unicode="&#xf4;" 
d="M0 250h125v-125h-125v125zM0 375h125v-125h-125v125zM0 500h125v-125h-125v125zM0 625h125v-125h-125v125zM125 750h125v-125h-125v125zM250 750h125v-125h-125v125zM375 750h125v-125h-125v125zM500 625h125v-125h-125v125zM500 500h125v-125h-125v125zM500 250h125
v-125h-125v125zM500 375h125v-125h-125v125zM125 125h125v-125h-125v125zM250 125h125v-125h-125v125zM375 125h125v-125h-125v125zM125 1000h125v-125h-125v125zM250 1125h125v-125h-125v125zM375 1000h125v-125h-125v125z" />
    <glyph glyph-name="otilde" unicode="&#xf5;" 
d="M0 250h125v-125h-125v125zM0 375h125v-125h-125v125zM0 500h125v-125h-125v125zM0 625h125v-125h-125v125zM125 750h125v-125h-125v125zM250 750h125v-125h-125v125zM375 750h125v-125h-125v125zM500 625h125v-125h-125v125zM500 500h125v-125h-125v125zM500 250h125
v-125h-125v125zM500 375h125v-125h-125v125zM125 125h125v-125h-125v125zM250 125h125v-125h-125v125zM375 125h125v-125h-125v125zM0 1000h125v-125h-125v125zM125 1125h125v-125h-125v125zM250 1125h125v-125h-125v125zM375 1000h125v-125h-125v125zM500 1000h125v-125
h-125v125zM625 1125h125v-125h-125v125z" />
    <glyph glyph-name="odieresis" unicode="&#xf6;" 
d="M0 250h125v-125h-125v125zM0 375h125v-125h-125v125zM0 500h125v-125h-125v125zM0 625h125v-125h-125v125zM125 750h125v-125h-125v125zM250 750h125v-125h-125v125zM375 750h125v-125h-125v125zM500 625h125v-125h-125v125zM500 500h125v-125h-125v125zM500 250h125
v-125h-125v125zM500 375h125v-125h-125v125zM125 125h125v-125h-125v125zM250 125h125v-125h-125v125zM375 125h125v-125h-125v125zM125 1000h125v-125h-125v125zM375 1000h125v-125h-125v125z" />
    <glyph glyph-name="divide" unicode="&#xf7;" 
d="M250 500h125v-125h-125v125zM0 500h125v-125h-125v125zM125 500h125v-125h-125v125zM375 500h125v-125h-125v125zM500 500h125v-125h-125v125zM250 750h125v-125h-125v125zM250 250h125v-125h-125v125z" />
    <glyph glyph-name="oslash" unicode="&#xf8;" horiz-adv-x="875" 
d="M0 375h125v-125h-125v125zM0 500h125v-125h-125v125zM250 750h125v-125h-125v125zM375 750h125v-125h-125v125zM250 125h125v-125h-125v125zM375 125h125v-125h-125v125zM625 500h125v-125h-125v125zM625 375h125v-125h-125v125zM250 375h125v-125h-125v125zM375 500h125
v-125h-125v125zM625 750h125v-125h-125v125zM500 625h125v-125h-125v125zM125 250h125v-125h-125v125zM0 125h125v-125h-125v125zM125 625h125v-125h-125v125zM500 250h125v-125h-125v125z" />
    <glyph glyph-name="ugrave" unicode="&#xf9;" 
d="M125 125h125v-125h-125v125zM0 250h125v-125h-125v125zM0 375h125v-125h-125v125zM0 500h125v-125h-125v125zM0 625h125v-125h-125v125zM0 750h125v-125h-125v125zM250 125h125v-125h-125v125zM500 125h125v-125h-125v125zM500 250h125v-125h-125v125zM500 375h125v-125
h-125v125zM500 500h125v-125h-125v125zM500 625h125v-125h-125v125zM500 750h125v-125h-125v125zM375 125h125v-125h-125v125zM125 1125h125v-125h-125v125zM250 1000h125v-125h-125v125z" />
    <glyph glyph-name="uacute" unicode="&#xfa;" 
d="M125 125h125v-125h-125v125zM0 250h125v-125h-125v125zM0 375h125v-125h-125v125zM0 500h125v-125h-125v125zM0 625h125v-125h-125v125zM0 750h125v-125h-125v125zM250 125h125v-125h-125v125zM500 125h125v-125h-125v125zM500 250h125v-125h-125v125zM500 375h125v-125
h-125v125zM500 500h125v-125h-125v125zM500 625h125v-125h-125v125zM500 750h125v-125h-125v125zM375 125h125v-125h-125v125zM250 1000h125v-125h-125v125zM375 1125h125v-125h-125v125z" />
    <glyph glyph-name="ucircumflex" unicode="&#xfb;" 
d="M125 125h125v-125h-125v125zM0 250h125v-125h-125v125zM0 375h125v-125h-125v125zM0 500h125v-125h-125v125zM0 625h125v-125h-125v125zM0 750h125v-125h-125v125zM250 125h125v-125h-125v125zM500 125h125v-125h-125v125zM500 250h125v-125h-125v125zM500 375h125v-125
h-125v125zM500 500h125v-125h-125v125zM500 625h125v-125h-125v125zM500 750h125v-125h-125v125zM375 125h125v-125h-125v125zM125 1000h125v-125h-125v125zM250 1125h125v-125h-125v125zM375 1000h125v-125h-125v125z" />
    <glyph glyph-name="udieresis" unicode="&#xfc;" 
d="M125 125h125v-125h-125v125zM0 250h125v-125h-125v125zM0 375h125v-125h-125v125zM0 500h125v-125h-125v125zM0 625h125v-125h-125v125zM0 750h125v-125h-125v125zM250 125h125v-125h-125v125zM500 125h125v-125h-125v125zM500 250h125v-125h-125v125zM500 375h125v-125
h-125v125zM500 500h125v-125h-125v125zM500 625h125v-125h-125v125zM500 750h125v-125h-125v125zM375 125h125v-125h-125v125zM125 1000h125v-125h-125v125zM375 1000h125v-125h-125v125z" />
    <glyph glyph-name="yacute" unicode="&#xfd;" 
d="M250 125h125v-125h-125v125zM125 500h125v-125h-125v125zM125 375h125v-125h-125v125zM0 625h125v-125h-125v125zM0 750h125v-125h-125v125zM500 750h125v-125h-125v125zM500 625h125v-125h-125v125zM375 500h125v-125h-125v125zM375 375h125v-125h-125v125zM250 0h125
v-125h-125v125zM125 -125h125v-125h-125v125zM250 250h125v-125h-125v125zM250 1000h125v-125h-125v125zM375 1125h125v-125h-125v125z" />
    <glyph glyph-name="thorn" unicode="&#xfe;" 
d="M0 125h125v-125h-125v125zM0 250h125v-125h-125v125zM0 375h125v-125h-125v125zM0 500h125v-125h-125v125zM0 625h125v-125h-125v125zM0 750h125v-125h-125v125zM250 125h125v-125h-125v125zM125 125h125v-125h-125v125zM125 750h125v-125h-125v125zM250 750h125v-125
h-125v125zM500 625h125v-125h-125v125zM500 500h125v-125h-125v125zM500 375h125v-125h-125v125zM500 250h125v-125h-125v125zM375 750h125v-125h-125v125zM375 125h125v-125h-125v125zM0 875h125v-125h-125v125zM0 1000h125v-125h-125v125zM0 0h125v-125h-125v125zM0 -125
h125v-125h-125v125z" />
    <glyph glyph-name="ydieresis" unicode="&#xff;" 
d="M250 125h125v-125h-125v125zM125 500h125v-125h-125v125zM125 375h125v-125h-125v125zM0 625h125v-125h-125v125zM0 750h125v-125h-125v125zM500 750h125v-125h-125v125zM500 625h125v-125h-125v125zM375 500h125v-125h-125v125zM375 375h125v-125h-125v125zM250 0h125
v-125h-125v125zM125 -125h125v-125h-125v125zM250 250h125v-125h-125v125zM125 1000h125v-125h-125v125zM375 1000h125v-125h-125v125z" />
    <glyph glyph-name="Cacute" unicode="&#x106;" horiz-adv-x="875" 
d="M250 125h125v-125h-125v125zM125 250h125v-125h-125v125zM0 375h125v-125h-125v125zM0 500h125v-125h-125v125zM0 625h125v-125h-125v125zM0 750h125v-125h-125v125zM250 1000h125v-125h-125v125zM125 875h125v-125h-125v125zM375 125h125v-125h-125v125zM500 125h125
v-125h-125v125zM375 1000h125v-125h-125v125zM500 1000h125v-125h-125v125zM625 875h125v-125h-125v125zM625 250h125v-125h-125v125zM375 1250h125v-125h-125v125zM500 1375h125v-125h-125v125z" />
    <glyph glyph-name="cacute" unicode="&#x107;" 
d="M125 125h125v-125h-125v125zM250 125h125v-125h-125v125zM375 125h125v-125h-125v125zM0 250h125v-125h-125v125zM0 375h125v-125h-125v125zM0 500h125v-125h-125v125zM0 625h125v-125h-125v125zM125 750h125v-125h-125v125zM250 750h125v-125h-125v125zM375 750h125
v-125h-125v125zM500 625h125v-125h-125v125zM500 250h125v-125h-125v125zM250 1000h125v-125h-125v125zM375 1125h125v-125h-125v125z" />
    <glyph glyph-name="Ccaron" unicode="&#x10c;" horiz-adv-x="875" 
d="M250 125h125v-125h-125v125zM125 250h125v-125h-125v125zM0 375h125v-125h-125v125zM0 500h125v-125h-125v125zM0 625h125v-125h-125v125zM0 750h125v-125h-125v125zM250 1000h125v-125h-125v125zM125 875h125v-125h-125v125zM375 125h125v-125h-125v125zM500 125h125
v-125h-125v125zM375 1000h125v-125h-125v125zM500 1000h125v-125h-125v125zM625 875h125v-125h-125v125zM625 250h125v-125h-125v125zM250 1375h125v-125h-125v125zM375 1250h125v-125h-125v125zM500 1375h125v-125h-125v125z" />
    <glyph glyph-name="ccaron" unicode="&#x10d;" 
d="M125 125h125v-125h-125v125zM250 125h125v-125h-125v125zM375 125h125v-125h-125v125zM0 250h125v-125h-125v125zM0 375h125v-125h-125v125zM0 500h125v-125h-125v125zM0 625h125v-125h-125v125zM125 750h125v-125h-125v125zM250 750h125v-125h-125v125zM375 750h125
v-125h-125v125zM500 625h125v-125h-125v125zM500 250h125v-125h-125v125zM125 1125h125v-125h-125v125zM250 1000h125v-125h-125v125zM375 1125h125v-125h-125v125z" />
    <glyph glyph-name="Dcroat" unicode="&#x110;" horiz-adv-x="1000" 
d="M0 625h125v-125h-125v125zM250 625h125v-125h-125v125zM375 625h125v-125h-125v125zM125 1000h125v-125h-125v125zM125 875h125v-125h-125v125zM125 750h125v-125h-125v125zM125 625h125v-125h-125v125zM125 500h125v-125h-125v125zM125 375h125v-125h-125v125zM125 250
h125v-125h-125v125zM125 125h125v-125h-125v125zM250 125h125v-125h-125v125zM375 125h125v-125h-125v125zM500 125h125v-125h-125v125zM750 375h125v-125h-125v125zM750 500h125v-125h-125v125zM750 625h125v-125h-125v125zM750 750h125v-125h-125v125zM500 1000h125v-125
h-125v125zM375 1000h125v-125h-125v125zM250 1000h125v-125h-125v125zM625 875h125v-125h-125v125zM625 250h125v-125h-125v125z" />
    <glyph glyph-name="dcroat" unicode="&#x111;" horiz-adv-x="875" 
d="M375 1000h125v-125h-125v125zM625 1000h125v-125h-125v125zM250 1000h125v-125h-125v125zM500 1125h125v-125h-125v125zM0 250h125v-125h-125v125zM125 125h125v-125h-125v125zM250 125h125v-125h-125v125zM375 125h125v-125h-125v125zM500 125h125v-125h-125v125z
M500 250h125v-125h-125v125zM500 375h125v-125h-125v125zM500 500h125v-125h-125v125zM500 625h125v-125h-125v125zM500 750h125v-125h-125v125zM500 875h125v-125h-125v125zM500 1000h125v-125h-125v125zM0 375h125v-125h-125v125zM0 500h125v-125h-125v125zM0 625h125
v-125h-125v125zM125 750h125v-125h-125v125zM250 750h125v-125h-125v125zM375 750h125v-125h-125v125z" />
    <glyph glyph-name="dotlessi" unicode="&#x131;" horiz-adv-x="250" 
d="M0 125h125v-125h-125v125zM0 250h125v-125h-125v125zM0 375h125v-125h-125v125zM0 500h125v-125h-125v125zM0 625h125v-125h-125v125zM0 750h125v-125h-125v125z" />
    <glyph glyph-name="Lslash" unicode="&#x141;" horiz-adv-x="1000" 
d="M0 500h125v-125h-125v125zM250 625h125v-125h-125v125zM375 625h125v-125h-125v125zM125 1000h125v-125h-125v125zM125 875h125v-125h-125v125zM125 750h125v-125h-125v125zM125 625h125v-125h-125v125zM125 500h125v-125h-125v125zM125 375h125v-125h-125v125zM125 250
h125v-125h-125v125zM125 125h125v-125h-125v125zM250 125h125v-125h-125v125zM375 125h125v-125h-125v125zM500 125h125v-125h-125v125zM625 125h125v-125h-125v125zM750 125h125v-125h-125v125z" />
    <glyph glyph-name="lslash" unicode="&#x142;" horiz-adv-x="500" 
d="M0 500h125v-125h-125v125zM250 625h125v-125h-125v125zM125 1000h125v-125h-125v125zM125 875h125v-125h-125v125zM125 750h125v-125h-125v125zM125 625h125v-125h-125v125zM125 500h125v-125h-125v125zM125 375h125v-125h-125v125zM125 250h125v-125h-125v125zM125 125
h125v-125h-125v125z" />
    <glyph glyph-name="OE" unicode="&#x152;" horiz-adv-x="1625" 
d="M250 125h125v-125h-125v125zM375 125h125v-125h-125v125zM500 125h125v-125h-125v125zM125 250h125v-125h-125v125zM0 375h125v-125h-125v125zM0 500h125v-125h-125v125zM0 625h125v-125h-125v125zM0 750h125v-125h-125v125zM250 1000h125v-125h-125v125zM125 875h125
v-125h-125v125zM375 1000h125v-125h-125v125zM500 1000h125v-125h-125v125zM625 875h125v-125h-125v125zM750 750h125v-125h-125v125zM750 625h125v-125h-125v125zM750 500h125v-125h-125v125zM750 375h125v-125h-125v125zM625 250h125v-125h-125v125zM750 125h125v-125
h-125v125zM875 125h125v-125h-125v125zM1000 125h125v-125h-125v125zM1125 125h125v-125h-125v125zM1250 125h125v-125h-125v125zM1375 125h125v-125h-125v125zM750 250h125v-125h-125v125zM750 375h125v-125h-125v125zM750 500h125v-125h-125v125zM750 625h125v-125h-125
v125zM750 750h125v-125h-125v125zM750 875h125v-125h-125v125zM1375 1000h125v-125h-125v125zM1250 1000h125v-125h-125v125zM1125 1000h125v-125h-125v125zM1000 1000h125v-125h-125v125zM875 1000h125v-125h-125v125zM750 1000h125v-125h-125v125zM875 625h125v-125h-125
v125zM1000 625h125v-125h-125v125zM1125 625h125v-125h-125v125zM1250 625h125v-125h-125v125zM1375 625h125v-125h-125v125z" />
    <glyph glyph-name="oe" unicode="&#x153;" horiz-adv-x="1250" 
d="M0 250h125v-125h-125v125zM0 375h125v-125h-125v125zM0 500h125v-125h-125v125zM0 625h125v-125h-125v125zM125 750h125v-125h-125v125zM250 750h125v-125h-125v125zM375 750h125v-125h-125v125zM500 625h125v-125h-125v125zM500 500h125v-125h-125v125zM500 250h125
v-125h-125v125zM500 375h125v-125h-125v125zM125 125h125v-125h-125v125zM250 125h125v-125h-125v125zM375 125h125v-125h-125v125zM625 125h125v-125h-125v125zM750 125h125v-125h-125v125zM875 125h125v-125h-125v125zM500 250h125v-125h-125v125zM500 375h125v-125h-125
v125zM500 500h125v-125h-125v125zM500 625h125v-125h-125v125zM625 750h125v-125h-125v125zM750 750h125v-125h-125v125zM875 750h125v-125h-125v125zM1000 625h125v-125h-125v125zM1000 500h125v-125h-125v125zM875 500h125v-125h-125v125zM750 500h125v-125h-125v125z
M625 500h125v-125h-125v125zM1000 250h125v-125h-125v125z" />
    <glyph glyph-name="Scaron" unicode="&#x160;" horiz-adv-x="875" 
d="M125 125h125v-125h-125v125zM250 125h125v-125h-125v125zM375 125h125v-125h-125v125zM500 125h125v-125h-125v125zM125 1000h125v-125h-125v125zM250 1000h125v-125h-125v125zM375 1000h125v-125h-125v125zM500 1000h125v-125h-125v125zM0 875h125v-125h-125v125zM0 750
h125v-125h-125v125zM125 625h125v-125h-125v125zM250 625h125v-125h-125v125zM375 625h125v-125h-125v125zM500 625h125v-125h-125v125zM625 500h125v-125h-125v125zM625 375h125v-125h-125v125zM625 250h125v-125h-125v125zM0 250h125v-125h-125v125zM625 875h125v-125
h-125v125zM125 1375h125v-125h-125v125zM250 1250h125v-125h-125v125zM375 1250h125v-125h-125v125zM500 1375h125v-125h-125v125z" />
    <glyph glyph-name="scaron" unicode="&#x161;" 
d="M125 125h125v-125h-125v125zM250 125h125v-125h-125v125zM375 125h125v-125h-125v125zM500 250h125v-125h-125v125zM250 500h125v-125h-125v125zM125 500h125v-125h-125v125zM125 750h125v-125h-125v125zM375 750h125v-125h-125v125zM250 750h125v-125h-125v125zM0 625
h125v-125h-125v125zM500 625h125v-125h-125v125zM375 375h125v-125h-125v125zM0 250h125v-125h-125v125zM125 1125h125v-125h-125v125zM250 1000h125v-125h-125v125zM375 1125h125v-125h-125v125z" />
    <glyph glyph-name="Ydieresis" unicode="&#x178;" horiz-adv-x="1000" 
d="M0 1000h125v-125h-125v125zM125 875h125v-125h-125v125zM250 750h125v-125h-125v125zM375 625h125v-125h-125v125zM500 750h125v-125h-125v125zM625 875h125v-125h-125v125zM750 1000h125v-125h-125v125zM375 500h125v-125h-125v125zM375 375h125v-125h-125v125zM375 250
h125v-125h-125v125zM375 125h125v-125h-125v125zM250 1250h125v-125h-125v125zM500 1250h125v-125h-125v125z" />
    <glyph glyph-name="Zcaron" unicode="&#x17d;" horiz-adv-x="875" 
d="M0 1000h125v-125h-125v125zM125 1000h125v-125h-125v125zM250 1000h125v-125h-125v125zM375 1000h125v-125h-125v125zM500 1000h125v-125h-125v125zM0 125h125v-125h-125v125zM125 125h125v-125h-125v125zM250 125h125v-125h-125v125zM375 125h125v-125h-125v125z
M500 125h125v-125h-125v125zM625 125h125v-125h-125v125zM625 1000h125v-125h-125v125zM0 250h125v-125h-125v125zM125 375h125v-125h-125v125zM250 500h125v-125h-125v125zM375 625h125v-125h-125v125zM500 750h125v-125h-125v125zM625 875h125v-125h-125v125zM125 1375
h125v-125h-125v125zM250 1250h125v-125h-125v125zM375 1250h125v-125h-125v125zM500 1375h125v-125h-125v125z" />
    <glyph glyph-name="zcaron" unicode="&#x17e;" 
d="M0 125h125v-125h-125v125zM125 125h125v-125h-125v125zM250 125h125v-125h-125v125zM375 125h125v-125h-125v125zM0 750h125v-125h-125v125zM125 750h125v-125h-125v125zM250 750h125v-125h-125v125zM375 750h125v-125h-125v125zM500 750h125v-125h-125v125zM500 625h125
v-125h-125v125zM375 500h125v-125h-125v125zM250 375h125v-125h-125v125zM125 250h125v-125h-125v125zM500 125h125v-125h-125v125zM125 1125h125v-125h-125v125zM250 1000h125v-125h-125v125zM375 1125h125v-125h-125v125z" />
    <glyph glyph-name="florin" unicode="&#x192;" horiz-adv-x="1000" 
d="M375 625h125v-125h-125v125zM375 500h125v-125h-125v125zM375 375h125v-125h-125v125zM375 250h125v-125h-125v125zM250 125h125v-125h-125v125zM250 0h125v-125h-125v125zM250 625h125v-125h-125v125zM500 625h125v-125h-125v125zM625 1000h125v-125h-125v125zM625 625
h125v-125h-125v125zM750 1000h125v-125h-125v125zM500 875h125v-125h-125v125zM500 750h125v-125h-125v125zM125 -125h125v-125h-125v125zM0 -125h125v-125h-125v125z" />
    <glyph glyph-name="uni01C4" unicode="&#x1c4;" horiz-adv-x="1750" 
d="M0 1000h125v-125h-125v125zM0 875h125v-125h-125v125zM0 750h125v-125h-125v125zM0 625h125v-125h-125v125zM0 500h125v-125h-125v125zM0 375h125v-125h-125v125zM0 250h125v-125h-125v125zM0 125h125v-125h-125v125zM125 125h125v-125h-125v125zM250 125h125v-125h-125
v125zM375 125h125v-125h-125v125zM625 375h125v-125h-125v125zM625 500h125v-125h-125v125zM625 625h125v-125h-125v125zM625 750h125v-125h-125v125zM375 1000h125v-125h-125v125zM250 1000h125v-125h-125v125zM125 1000h125v-125h-125v125zM500 875h125v-125h-125v125z
M500 250h125v-125h-125v125zM875 1000h125v-125h-125v125zM1000 1000h125v-125h-125v125zM1125 1000h125v-125h-125v125zM1250 1000h125v-125h-125v125zM1375 1000h125v-125h-125v125zM875 125h125v-125h-125v125zM1000 125h125v-125h-125v125zM1125 125h125v-125h-125v125z
M1250 125h125v-125h-125v125zM1375 125h125v-125h-125v125zM1500 125h125v-125h-125v125zM1500 1000h125v-125h-125v125zM875 250h125v-125h-125v125zM1000 375h125v-125h-125v125zM1125 500h125v-125h-125v125zM1250 625h125v-125h-125v125zM1375 750h125v-125h-125v125z
M1500 875h125v-125h-125v125zM1000 1375h125v-125h-125v125zM1125 1250h125v-125h-125v125zM1250 1250h125v-125h-125v125zM1375 1375h125v-125h-125v125z" />
    <glyph glyph-name="uni01C5" unicode="&#x1c5;" horiz-adv-x="1625" 
d="M0 1000h125v-125h-125v125zM0 875h125v-125h-125v125zM0 750h125v-125h-125v125zM0 625h125v-125h-125v125zM0 500h125v-125h-125v125zM0 375h125v-125h-125v125zM0 250h125v-125h-125v125zM0 125h125v-125h-125v125zM125 125h125v-125h-125v125zM250 125h125v-125h-125
v125zM375 125h125v-125h-125v125zM625 375h125v-125h-125v125zM625 500h125v-125h-125v125zM625 625h125v-125h-125v125zM625 750h125v-125h-125v125zM375 1000h125v-125h-125v125zM250 1000h125v-125h-125v125zM125 1000h125v-125h-125v125zM500 875h125v-125h-125v125z
M500 250h125v-125h-125v125zM875 125h125v-125h-125v125zM1000 125h125v-125h-125v125zM1125 125h125v-125h-125v125zM1250 125h125v-125h-125v125zM875 750h125v-125h-125v125zM1000 750h125v-125h-125v125zM1125 750h125v-125h-125v125zM1250 750h125v-125h-125v125z
M1375 750h125v-125h-125v125zM1375 625h125v-125h-125v125zM1250 500h125v-125h-125v125zM1125 375h125v-125h-125v125zM1000 250h125v-125h-125v125zM1375 125h125v-125h-125v125zM1000 1125h125v-125h-125v125zM1125 1000h125v-125h-125v125zM1250 1125h125v-125h-125v125
z" />
    <glyph glyph-name="uni01C6" unicode="&#x1c6;" horiz-adv-x="1500" 
d="M0 250h125v-125h-125v125zM125 125h125v-125h-125v125zM250 125h125v-125h-125v125zM375 125h125v-125h-125v125zM500 125h125v-125h-125v125zM500 250h125v-125h-125v125zM500 375h125v-125h-125v125zM500 500h125v-125h-125v125zM500 625h125v-125h-125v125zM500 750
h125v-125h-125v125zM500 875h125v-125h-125v125zM500 1000h125v-125h-125v125zM0 375h125v-125h-125v125zM0 500h125v-125h-125v125zM0 625h125v-125h-125v125zM125 750h125v-125h-125v125zM250 750h125v-125h-125v125zM375 750h125v-125h-125v125zM750 125h125v-125h-125
v125zM875 125h125v-125h-125v125zM1000 125h125v-125h-125v125zM1125 125h125v-125h-125v125zM750 750h125v-125h-125v125zM875 750h125v-125h-125v125zM1000 750h125v-125h-125v125zM1125 750h125v-125h-125v125zM1250 750h125v-125h-125v125zM1250 625h125v-125h-125v125z
M1125 500h125v-125h-125v125zM1000 375h125v-125h-125v125zM875 250h125v-125h-125v125zM1250 125h125v-125h-125v125zM875 1125h125v-125h-125v125zM1000 1000h125v-125h-125v125zM1125 1125h125v-125h-125v125z" />
    <glyph glyph-name="uni01C7" unicode="&#x1c7;" horiz-adv-x="1625" 
d="M0 1000h125v-125h-125v125zM0 875h125v-125h-125v125zM0 750h125v-125h-125v125zM0 625h125v-125h-125v125zM0 500h125v-125h-125v125zM0 375h125v-125h-125v125zM0 250h125v-125h-125v125zM0 125h125v-125h-125v125zM125 125h125v-125h-125v125zM250 125h125v-125h-125
v125zM375 125h125v-125h-125v125zM500 125h125v-125h-125v125zM625 125h125v-125h-125v125zM1000 125h125v-125h-125v125zM1125 125h125v-125h-125v125zM1250 125h125v-125h-125v125zM1375 250h125v-125h-125v125zM1375 375h125v-125h-125v125zM1375 500h125v-125h-125v125z
M1375 625h125v-125h-125v125zM1375 750h125v-125h-125v125zM1375 875h125v-125h-125v125zM1375 1000h125v-125h-125v125zM875 375h125v-125h-125v125zM875 250h125v-125h-125v125z" />
    <glyph glyph-name="uni01C8" unicode="&#x1c8;" horiz-adv-x="1125" 
d="M0 1000h125v-125h-125v125zM0 875h125v-125h-125v125zM0 750h125v-125h-125v125zM0 625h125v-125h-125v125zM0 500h125v-125h-125v125zM0 375h125v-125h-125v125zM0 250h125v-125h-125v125zM0 125h125v-125h-125v125zM125 125h125v-125h-125v125zM250 125h125v-125h-125
v125zM375 125h125v-125h-125v125zM500 125h125v-125h-125v125zM625 125h125v-125h-125v125zM875 500h125v-125h-125v125zM875 625h125v-125h-125v125zM875 750h125v-125h-125v125zM875 375h125v-125h-125v125zM875 250h125v-125h-125v125zM875 125h125v-125h-125v125z
M875 1000h125v-125h-125v125zM875 0h125v-125h-125v125zM750 -125h125v-125h-125v125z" />
    <glyph glyph-name="uni01C9" unicode="&#x1c9;" horiz-adv-x="500" 
d="M0 1000h125v-125h-125v125zM0 875h125v-125h-125v125zM0 750h125v-125h-125v125zM0 625h125v-125h-125v125zM0 500h125v-125h-125v125zM0 375h125v-125h-125v125zM0 250h125v-125h-125v125zM0 125h125v-125h-125v125zM253 500h125v-125h-125v125zM253 625h125v-125h-125
v125zM253 750h125v-125h-125v125zM253 375h125v-125h-125v125zM253 250h125v-125h-125v125zM253 125h125v-125h-125v125zM253 1000h125v-125h-125v125zM253 0h125v-125h-125v125zM128 -125h125v-125h-125v125z" />
    <glyph glyph-name="uni01CA" unicode="&#x1ca;" horiz-adv-x="1625" 
d="M0 125h125v-125h-125v125zM0 250h125v-125h-125v125zM0 375h125v-125h-125v125zM0 500h125v-125h-125v125zM0 625h125v-125h-125v125zM0 750h125v-125h-125v125zM0 875h125v-125h-125v125zM0 1000h125v-125h-125v125zM625 125h125v-125h-125v125zM625 250h125v-125h-125
v125zM625 375h125v-125h-125v125zM625 500h125v-125h-125v125zM625 625h125v-125h-125v125zM625 750h125v-125h-125v125zM625 875h125v-125h-125v125zM625 1000h125v-125h-125v125zM125 875h125v-125h-125v125zM250 750h125v-125h-125v125zM375 625h125v-125h-125v125z
M500 500h125v-125h-125v125zM1000 125h125v-125h-125v125zM1125 125h125v-125h-125v125zM1250 125h125v-125h-125v125zM1375 250h125v-125h-125v125zM1375 375h125v-125h-125v125zM1375 500h125v-125h-125v125zM1375 625h125v-125h-125v125zM1375 750h125v-125h-125v125z
M1375 875h125v-125h-125v125zM1375 1000h125v-125h-125v125zM875 375h125v-125h-125v125zM875 250h125v-125h-125v125z" />
    <glyph glyph-name="uni01CB" unicode="&#x1cb;" horiz-adv-x="1125" 
d="M0 125h125v-125h-125v125zM0 250h125v-125h-125v125zM0 375h125v-125h-125v125zM0 500h125v-125h-125v125zM0 625h125v-125h-125v125zM0 750h125v-125h-125v125zM0 875h125v-125h-125v125zM0 1000h125v-125h-125v125zM625 125h125v-125h-125v125zM625 250h125v-125h-125
v125zM625 375h125v-125h-125v125zM625 500h125v-125h-125v125zM625 625h125v-125h-125v125zM625 750h125v-125h-125v125zM625 875h125v-125h-125v125zM625 1000h125v-125h-125v125zM125 875h125v-125h-125v125zM250 750h125v-125h-125v125zM375 625h125v-125h-125v125z
M500 500h125v-125h-125v125zM875 500h125v-125h-125v125zM875 625h125v-125h-125v125zM875 750h125v-125h-125v125zM875 375h125v-125h-125v125zM875 250h125v-125h-125v125zM875 125h125v-125h-125v125zM875 1000h125v-125h-125v125zM875 0h125v-125h-125v125zM750 -125
h125v-125h-125v125z" />
    <glyph glyph-name="uni01CC" unicode="&#x1cc;" horiz-adv-x="1000" 
d="M0 125h125v-125h-125v125zM0 250h125v-125h-125v125zM0 375h125v-125h-125v125zM0 500h125v-125h-125v125zM0 625h125v-125h-125v125zM0 750h125v-125h-125v125zM125 750h125v-125h-125v125zM250 750h125v-125h-125v125zM375 750h125v-125h-125v125zM500 625h125v-125
h-125v125zM500 500h125v-125h-125v125zM500 375h125v-125h-125v125zM500 250h125v-125h-125v125zM500 125h125v-125h-125v125zM750 500h125v-125h-125v125zM750 625h125v-125h-125v125zM750 750h125v-125h-125v125zM750 375h125v-125h-125v125zM750 250h125v-125h-125v125z
M750 125h125v-125h-125v125zM750 1000h125v-125h-125v125zM750 0h125v-125h-125v125zM625 -125h125v-125h-125v125z" />
    <glyph glyph-name="AEacute" unicode="&#x1fc;" horiz-adv-x="1625" 
d="M250 750h125v-125h-125v125zM500 750h125v-125h-125v125zM125 500h125v-125h-125v125zM625 500h125v-125h-125v125zM125 375h125v-125h-125v125zM625 375h125v-125h-125v125zM0 250h125v-125h-125v125zM750 250h125v-125h-125v125zM0 125h125v-125h-125v125zM750 125h125
v-125h-125v125zM375 1000h125v-125h-125v125zM250 625h125v-125h-125v125zM500 625h125v-125h-125v125zM375 875h125v-125h-125v125zM250 375h125v-125h-125v125zM375 375h125v-125h-125v125zM500 375h125v-125h-125v125zM750 125h125v-125h-125v125zM875 125h125v-125h-125
v125zM1000 125h125v-125h-125v125zM1125 125h125v-125h-125v125zM1250 125h125v-125h-125v125zM750 250h125v-125h-125v125zM750 375h125v-125h-125v125zM750 500h125v-125h-125v125zM750 625h125v-125h-125v125zM750 750h125v-125h-125v125zM750 875h125v-125h-125v125z
M1250 1000h125v-125h-125v125zM1125 1000h125v-125h-125v125zM1000 1000h125v-125h-125v125zM875 1000h125v-125h-125v125zM750 1000h125v-125h-125v125zM875 625h125v-125h-125v125zM1000 625h125v-125h-125v125zM1125 625h125v-125h-125v125zM1250 625h125v-125h-125v125z
M1375 1000h125v-125h-125v125zM1375 625h125v-125h-125v125zM1375 125h125v-125h-125v125zM750 1250h125v-125h-125v125zM875 1375h125v-125h-125v125z" />
    <glyph glyph-name="aeacute" unicode="&#x1fd;" horiz-adv-x="1250" 
d="M125 125h125v-125h-125v125zM250 125h125v-125h-125v125zM375 125h125v-125h-125v125zM500 250h125v-125h-125v125zM0 250h125v-125h-125v125zM0 375h125v-125h-125v125zM125 500h125v-125h-125v125zM250 500h125v-125h-125v125zM375 500h125v-125h-125v125zM500 500h125
v-125h-125v125zM500 375h125v-125h-125v125zM125 750h125v-125h-125v125zM250 750h125v-125h-125v125zM375 750h125v-125h-125v125zM500 625h125v-125h-125v125zM625 125h125v-125h-125v125zM750 125h125v-125h-125v125zM875 125h125v-125h-125v125zM500 250h125v-125h-125
v125zM500 375h125v-125h-125v125zM500 500h125v-125h-125v125zM500 625h125v-125h-125v125zM625 750h125v-125h-125v125zM750 750h125v-125h-125v125zM875 750h125v-125h-125v125zM1000 625h125v-125h-125v125zM1000 500h125v-125h-125v125zM875 500h125v-125h-125v125z
M750 500h125v-125h-125v125zM625 500h125v-125h-125v125zM500 1000h125v-125h-125v125zM625 1125h125v-125h-125v125z" />
    <glyph glyph-name="circumflex_wide" horiz-adv-x="625" 
d="M0 1000h125v-125h-125v125zM125 1125h125v-125h-125v125zM250 1125h125v-125h-125v125zM375 1000h125v-125h-125v125z" />
    <glyph glyph-name="caron" unicode="&#x2c7;" horiz-adv-x="500" 
d="M0 1125h125v-125h-125v125zM125 1000h125v-125h-125v125zM250 1125h125v-125h-125v125z" />
    <glyph glyph-name="breve" unicode="&#x2d8;" horiz-adv-x="625" 
d="M0 1125h125v-125h-125v125zM250 1000h125v-125h-125v125zM125 1000h125v-125h-125v125zM375 1125h125v-125h-125v125z" />
    <glyph glyph-name="dotaccent" unicode="&#x2d9;" horiz-adv-x="250" 
d="M0 1000h125v-125h-125v125z" />
    <glyph glyph-name="ring" unicode="&#x2da;" horiz-adv-x="500" 
d="M125 1000h125v-125h-125v125zM0 1125h125v-125h-125v125zM125 1250h125v-125h-125v125zM250 1125h125v-125h-125v125z" />
    <glyph glyph-name="ogonek" unicode="&#x2db;" horiz-adv-x="375" 
d="M0 0h125v-125h-125v125zM125 -125h125v-125h-125v125z" />
    <glyph glyph-name="tilde" unicode="&#x2dc;" horiz-adv-x="1000" 
d="M0 500h125v-125h-125v125zM375 500h125v-125h-125v125zM250 625h125v-125h-125v125zM125 625h125v-125h-125v125zM500 375h125v-125h-125v125zM625 375h125v-125h-125v125zM750 500h125v-125h-125v125z" />
    <glyph glyph-name="hungarumlaut" unicode="&#x2dd;" horiz-adv-x="625" 
d="M0 1000h125v-125h-125v125zM125 1125h125v-125h-125v125zM250 1000h125v-125h-125v125zM375 1125h125v-125h-125v125z" />
    <glyph glyph-name="endash" unicode="&#x2013;" 
d="M0 500h125v-125h-125v125zM125 500h125v-125h-125v125zM250 500h125v-125h-125v125zM375 500h125v-125h-125v125zM500 500h125v-125h-125v125z" />
    <glyph glyph-name="emdash" unicode="&#x2014;" horiz-adv-x="1375" 
d="M0 500h125v-125h-125v125zM125 500h125v-125h-125v125zM250 500h125v-125h-125v125zM375 500h125v-125h-125v125zM500 500h125v-125h-125v125zM625 500h125v-125h-125v125zM750 500h125v-125h-125v125zM875 500h125v-125h-125v125zM1000 500h125v-125h-125v125zM1125 500
h125v-125h-125v125z" />
    <glyph glyph-name="quoteleft" unicode="&#x2018;" horiz-adv-x="375" 
d="M0 1000h125v-125h-125v125zM125 875h125v-125h-125v125z" />
    <glyph glyph-name="quoteright" unicode="&#x2019;" horiz-adv-x="375" 
d="M0 875h125v-125h-125v125zM125 1000h125v-125h-125v125z" />
    <glyph glyph-name="quotesinglbase" unicode="&#x201a;" horiz-adv-x="375" 
d="M0 0h125v-125h-125v125zM125 125h125v-125h-125v125z" />
    <glyph glyph-name="quotedblleft" unicode="&#x201c;" horiz-adv-x="625" 
d="M0 1000h125v-125h-125v125zM125 875h125v-125h-125v125zM250 1000h125v-125h-125v125zM375 875h125v-125h-125v125z" />
    <glyph glyph-name="quotedblright" unicode="&#x201d;" horiz-adv-x="625" 
d="M0 875h125v-125h-125v125zM250 875h125v-125h-125v125zM375 1000h125v-125h-125v125zM125 1000h125v-125h-125v125z" />
    <glyph glyph-name="quotedblbase" unicode="&#x201e;" horiz-adv-x="625" 
d="M0 0h125v-125h-125v125zM125 125h125v-125h-125v125zM250 0h125v-125h-125v125zM375 125h125v-125h-125v125z" />
    <glyph glyph-name="dagger" unicode="&#x2020;" 
d="M250 875h125v-125h-125v125zM250 1000h125v-125h-125v125zM250 750h125v-125h-125v125zM250 625h125v-125h-125v125zM250 500h125v-125h-125v125zM250 375h125v-125h-125v125zM250 250h125v-125h-125v125zM250 125h125v-125h-125v125zM250 0h125v-125h-125v125zM250 -125
h125v-125h-125v125zM0 750h125v-125h-125v125zM125 750h125v-125h-125v125zM375 750h125v-125h-125v125zM500 750h125v-125h-125v125z" />
    <glyph glyph-name="daggerdbl" unicode="&#x2021;" 
d="M250 875h125v-125h-125v125zM250 1000h125v-125h-125v125zM250 750h125v-125h-125v125zM250 625h125v-125h-125v125zM250 500h125v-125h-125v125zM250 375h125v-125h-125v125zM250 250h125v-125h-125v125zM250 125h125v-125h-125v125zM250 0h125v-125h-125v125zM250 -125
h125v-125h-125v125zM0 750h125v-125h-125v125zM125 750h125v-125h-125v125zM375 750h125v-125h-125v125zM500 750h125v-125h-125v125zM0 125h125v-125h-125v125zM125 125h125v-125h-125v125zM375 125h125v-125h-125v125zM500 125h125v-125h-125v125z" />
    <glyph glyph-name="bullet" unicode="&#x2022;" horiz-adv-x="375" 
d="M0 625h125v-125h-125v125zM125 625h125v-125h-125v125zM0 500h125v-125h-125v125zM125 500h125v-125h-125v125z" />
    <glyph glyph-name="ellipsis" unicode="&#x2026;" horiz-adv-x="1000" 
d="M0 125h125v-125h-125v125zM375 125h125v-125h-125v125zM750 125h125v-125h-125v125z" />
    <glyph glyph-name="perthousand" unicode="&#x2030;" horiz-adv-x="2000" 
d="M375 125h125v-125h-125v125zM375 250h125v-125h-125v125zM500 375h125v-125h-125v125zM500 500h125v-125h-125v125zM625 625h125v-125h-125v125zM625 750h125v-125h-125v125zM750 875h125v-125h-125v125zM750 1000h125v-125h-125v125zM0 875h125v-125h-125v125zM125 1000
h125v-125h-125v125zM250 1000h125v-125h-125v125zM375 875h125v-125h-125v125zM375 750h125v-125h-125v125zM250 625h125v-125h-125v125zM125 625h125v-125h-125v125zM0 750h125v-125h-125v125zM875 125h125v-125h-125v125zM1000 125h125v-125h-125v125zM750 250h125v-125
h-125v125zM750 375h125v-125h-125v125zM875 500h125v-125h-125v125zM1000 500h125v-125h-125v125zM1125 375h125v-125h-125v125zM1125 250h125v-125h-125v125zM1375 375h125v-125h-125v125zM1375 250h125v-125h-125v125zM1500 500h125v-125h-125v125zM1625 500h125v-125
h-125v125zM1750 375h125v-125h-125v125zM1750 250h125v-125h-125v125zM1500 125h125v-125h-125v125zM1625 125h125v-125h-125v125z" />
    <glyph glyph-name="guilsinglleft" unicode="&#x2039;" horiz-adv-x="500" 
d="M250 250h125v-125h-125v125zM125 375h125v-125h-125v125zM0 500h125v-125h-125v125zM125 625h125v-125h-125v125zM250 750h125v-125h-125v125z" />
    <glyph glyph-name="guilsinglright" unicode="&#x203a;" horiz-adv-x="500" 
d="M0 250h125v-125h-125v125zM125 375h125v-125h-125v125zM250 500h125v-125h-125v125zM125 625h125v-125h-125v125zM0 750h125v-125h-125v125z" />
    <glyph glyph-name="fraction" unicode="&#x2044;" horiz-adv-x="625" 
d="M0 125h125v-125h-125v125zM0 250h125v-125h-125v125zM125 375h125v-125h-125v125zM125 500h125v-125h-125v125zM250 625h125v-125h-125v125zM250 750h125v-125h-125v125zM375 875h125v-125h-125v125zM375 1000h125v-125h-125v125z" />
    <glyph glyph-name="Euro" unicode="&#x20ac;" horiz-adv-x="1000" 
d="M375 0h125v-125h-125v125zM250 125h125v-125h-125v125zM125 250h125v-125h-125v125zM125 375h125v-125h-125v125zM125 500h125v-125h-125v125zM125 625h125v-125h-125v125zM500 0h125v-125h-125v125zM625 0h125v-125h-125v125zM750 0h125v-125h-125v125zM250 375h125
v-125h-125v125zM375 375h125v-125h-125v125zM500 375h125v-125h-125v125zM625 375h125v-125h-125v125zM250 625h125v-125h-125v125zM375 625h125v-125h-125v125zM500 625h125v-125h-125v125zM625 625h125v-125h-125v125zM125 750h125v-125h-125v125zM250 875h125v-125h-125
v125zM375 1000h125v-125h-125v125zM500 1000h125v-125h-125v125zM625 1000h125v-125h-125v125zM750 1000h125v-125h-125v125zM750 625h125v-125h-125v125zM750 375h125v-125h-125v125zM0 625h125v-125h-125v125zM0 375h125v-125h-125v125z" />
    <glyph glyph-name="trademark" unicode="&#x2122;" horiz-adv-x="1500" 
d="M250 1000h125v-125h-125v125zM500 1000h125v-125h-125v125zM375 1000h125v-125h-125v125zM750 1000h125v-125h-125v125zM1000 750h125v-125h-125v125zM750 875h125v-125h-125v125zM750 625h125v-125h-125v125zM750 750h125v-125h-125v125zM875 875h125v-125h-125v125z
M1125 875h125v-125h-125v125zM1250 1000h125v-125h-125v125zM1250 875h125v-125h-125v125zM1250 750h125v-125h-125v125zM1250 625h125v-125h-125v125zM125 1000h125v-125h-125v125zM250 875h125v-125h-125v125zM250 750h125v-125h-125v125zM250 625h125v-125h-125v125z
M0 1000h125v-125h-125v125zM250 500h125v-125h-125v125zM750 500h125v-125h-125v125zM1250 500h125v-125h-125v125z" />
    <glyph glyph-name="minus" unicode="&#x2212;" 
d="M0 500h125v-125h-125v125zM125 500h125v-125h-125v125zM250 500h125v-125h-125v125zM375 500h125v-125h-125v125zM500 500h125v-125h-125v125z" />
    <glyph glyph-name="numbersign" unicode="#" horiz-adv-x="1125" 
d="M250 1000h125v-125h-125v125zM250 875h125v-125h-125v125zM250 750h125v-125h-125v125zM250 625h125v-125h-125v125zM250 500h125v-125h-125v125zM250 375h125v-125h-125v125zM250 250h125v-125h-125v125zM250 125h125v-125h-125v125zM625 1000h125v-125h-125v125z
M625 875h125v-125h-125v125zM625 750h125v-125h-125v125zM625 625h125v-125h-125v125zM625 500h125v-125h-125v125zM625 375h125v-125h-125v125zM625 250h125v-125h-125v125zM625 125h125v-125h-125v125zM0 375h125v-125h-125v125zM125 375h125v-125h-125v125zM375 375h125
v-125h-125v125zM500 375h125v-125h-125v125zM750 375h125v-125h-125v125zM875 375h125v-125h-125v125zM0 750h125v-125h-125v125zM125 750h125v-125h-125v125zM375 750h125v-125h-125v125zM500 750h125v-125h-125v125zM750 750h125v-125h-125v125zM875 750h125v-125h-125
v125z" />
    <glyph glyph-name="exclam" unicode="!" horiz-adv-x="250" 
d="M0 1000h125v-125h-125v125zM0 875h125v-125h-125v125zM0 750h125v-125h-125v125zM0 625h125v-125h-125v125zM0 500h125v-125h-125v125zM0 375h125v-125h-125v125zM0 125h125v-125h-125v125z" />
    <glyph glyph-name="quotedbl" unicode="&#x22;" horiz-adv-x="500" 
d="M0 1000h125v-125h-125v125zM0 875h125v-125h-125v125zM250 1000h125v-125h-125v125zM250 875h125v-125h-125v125zM0 750h125v-125h-125v125zM250 750h125v-125h-125v125z" />
    <glyph glyph-name="ampersand" unicode="&#x26;" horiz-adv-x="875" 
d="M125 125h125v-125h-125v125zM250 125h125v-125h-125v125zM375 125h125v-125h-125v125zM0 875h125v-125h-125v125zM125 1000h125v-125h-125v125zM250 1000h125v-125h-125v125zM0 500h125v-125h-125v125zM0 250h125v-125h-125v125zM0 375h125v-125h-125v125zM0 750h125
v-125h-125v125zM125 625h125v-125h-125v125zM375 1000h125v-125h-125v125zM250 625h125v-125h-125v125zM500 375h125v-125h-125v125zM500 250h125v-125h-125v125zM375 625h125v-125h-125v125zM500 500h125v-125h-125v125zM500 875h125v-125h-125v125zM625 125h125v-125h-125
v125zM625 625h125v-125h-125v125z" />
    <glyph glyph-name="dollar" unicode="$" 
d="M125 125h125v-125h-125v125zM250 125h125v-125h-125v125zM375 125h125v-125h-125v125zM125 1000h125v-125h-125v125zM250 1000h125v-125h-125v125zM375 1000h125v-125h-125v125zM0 875h125v-125h-125v125zM0 750h125v-125h-125v125zM125 625h125v-125h-125v125zM250 625
h125v-125h-125v125zM375 625h125v-125h-125v125zM250 1125h125v-125h-125v125zM250 0h125v-125h-125v125zM500 500h125v-125h-125v125zM500 375h125v-125h-125v125zM500 250h125v-125h-125v125zM500 875h125v-125h-125v125zM0 250h125v-125h-125v125z" />
    <glyph glyph-name="percent" unicode="%" horiz-adv-x="1375" 
d="M375 125h125v-125h-125v125zM375 250h125v-125h-125v125zM500 375h125v-125h-125v125zM500 500h125v-125h-125v125zM625 625h125v-125h-125v125zM625 750h125v-125h-125v125zM750 875h125v-125h-125v125zM750 1000h125v-125h-125v125zM0 875h125v-125h-125v125zM125 1000
h125v-125h-125v125zM250 1000h125v-125h-125v125zM375 875h125v-125h-125v125zM375 750h125v-125h-125v125zM250 625h125v-125h-125v125zM125 625h125v-125h-125v125zM0 750h125v-125h-125v125zM875 125h125v-125h-125v125zM1000 125h125v-125h-125v125zM750 250h125v-125
h-125v125zM750 375h125v-125h-125v125zM875 500h125v-125h-125v125zM1000 500h125v-125h-125v125zM1125 375h125v-125h-125v125zM1125 250h125v-125h-125v125z" />
    <glyph glyph-name="twosuperior" unicode="&#xb2;" horiz-adv-x="625" 
d="M0 875h125v-125h-125v125zM125 1000h125v-125h-125v125zM250 1000h125v-125h-125v125zM375 875h125v-125h-125v125zM0 375h125v-125h-125v125zM125 375h125v-125h-125v125zM250 375h125v-125h-125v125zM375 375h125v-125h-125v125zM375 750h125v-125h-125v125zM250 625
h125v-125h-125v125zM125 500h125v-125h-125v125z" />
    <glyph glyph-name="threesuperior" unicode="&#xb3;" horiz-adv-x="625" 
d="M0 875h125v-125h-125v125zM125 1000h125v-125h-125v125zM250 1000h125v-125h-125v125zM375 875h125v-125h-125v125zM250 750h125v-125h-125v125zM375 625h125v-125h-125v125zM375 500h125v-125h-125v125zM250 375h125v-125h-125v125zM125 375h125v-125h-125v125zM0 500
h125v-125h-125v125z" />
    <glyph glyph-name="onesuperior" unicode="&#xb9;" horiz-adv-x="500" 
d="M0 750h125v-125h-125v125zM125 875h125v-125h-125v125zM250 1000h125v-125h-125v125zM250 875h125v-125h-125v125zM250 750h125v-125h-125v125zM250 625h125v-125h-125v125zM250 500h125v-125h-125v125zM250 375h125v-125h-125v125z" />
    <glyph glyph-name="quotesingle" unicode="'" horiz-adv-x="250" 
d="M0 1000h125v-125h-125v125zM0 875h125v-125h-125v125zM0 750h125v-125h-125v125z" />
    <glyph glyph-name="Dcaron" unicode="&#x10e;" horiz-adv-x="875" 
d="M0 1000h125v-125h-125v125zM0 875h125v-125h-125v125zM0 750h125v-125h-125v125zM0 625h125v-125h-125v125zM0 500h125v-125h-125v125zM0 375h125v-125h-125v125zM0 250h125v-125h-125v125zM0 125h125v-125h-125v125zM125 125h125v-125h-125v125zM250 125h125v-125h-125
v125zM375 125h125v-125h-125v125zM625 375h125v-125h-125v125zM625 500h125v-125h-125v125zM625 625h125v-125h-125v125zM625 750h125v-125h-125v125zM375 1000h125v-125h-125v125zM250 1000h125v-125h-125v125zM125 1000h125v-125h-125v125zM500 875h125v-125h-125v125z
M500 250h125v-125h-125v125zM125 1375h125v-125h-125v125zM250 1250h125v-125h-125v125zM375 1250h125v-125h-125v125zM500 1375h125v-125h-125v125z" />
    <glyph glyph-name="dcaron" unicode="&#x10f;" horiz-adv-x="1000" 
d="M0 250h125v-125h-125v125zM125 125h125v-125h-125v125zM250 125h125v-125h-125v125zM375 125h125v-125h-125v125zM500 125h125v-125h-125v125zM500 250h125v-125h-125v125zM500 375h125v-125h-125v125zM500 500h125v-125h-125v125zM500 625h125v-125h-125v125zM500 750
h125v-125h-125v125zM500 875h125v-125h-125v125zM500 1000h125v-125h-125v125zM0 375h125v-125h-125v125zM0 500h125v-125h-125v125zM0 625h125v-125h-125v125zM125 750h125v-125h-125v125zM250 750h125v-125h-125v125zM375 750h125v-125h-125v125zM750 1000h125v-125h-125
v125zM750 875h125v-125h-125v125zM750 750h125v-125h-125v125z" />
    <glyph glyph-name="Ecaron" unicode="&#x11a;" horiz-adv-x="875" 
d="M0 125h125v-125h-125v125zM125 125h125v-125h-125v125zM250 125h125v-125h-125v125zM375 125h125v-125h-125v125zM500 125h125v-125h-125v125zM625 125h125v-125h-125v125zM0 250h125v-125h-125v125zM0 375h125v-125h-125v125zM0 500h125v-125h-125v125zM0 625h125v-125
h-125v125zM0 750h125v-125h-125v125zM0 875h125v-125h-125v125zM625 1000h125v-125h-125v125zM500 1000h125v-125h-125v125zM375 1000h125v-125h-125v125zM250 1000h125v-125h-125v125zM125 1000h125v-125h-125v125zM0 1000h125v-125h-125v125zM125 625h125v-125h-125v125z
M250 625h125v-125h-125v125zM375 625h125v-125h-125v125zM500 625h125v-125h-125v125zM625 625h125v-125h-125v125zM125 1375h125v-125h-125v125zM250 1250h125v-125h-125v125zM375 1250h125v-125h-125v125zM500 1375h125v-125h-125v125z" />
    <glyph glyph-name="ecaron" unicode="&#x11b;" 
d="M125 125h125v-125h-125v125zM250 125h125v-125h-125v125zM375 125h125v-125h-125v125zM0 250h125v-125h-125v125zM0 375h125v-125h-125v125zM0 500h125v-125h-125v125zM0 625h125v-125h-125v125zM125 750h125v-125h-125v125zM250 750h125v-125h-125v125zM375 750h125
v-125h-125v125zM500 625h125v-125h-125v125zM500 500h125v-125h-125v125zM375 500h125v-125h-125v125zM250 500h125v-125h-125v125zM125 500h125v-125h-125v125zM500 250h125v-125h-125v125zM125 1125h125v-125h-125v125zM250 1000h125v-125h-125v125zM375 1125h125v-125
h-125v125z" />
    <glyph glyph-name="Ncaron" unicode="&#x147;" horiz-adv-x="875" 
d="M0 125h125v-125h-125v125zM0 250h125v-125h-125v125zM0 375h125v-125h-125v125zM0 500h125v-125h-125v125zM0 625h125v-125h-125v125zM0 750h125v-125h-125v125zM0 875h125v-125h-125v125zM0 1000h125v-125h-125v125zM625 125h125v-125h-125v125zM625 250h125v-125h-125
v125zM625 375h125v-125h-125v125zM625 500h125v-125h-125v125zM625 625h125v-125h-125v125zM625 750h125v-125h-125v125zM625 875h125v-125h-125v125zM625 1000h125v-125h-125v125zM125 875h125v-125h-125v125zM250 750h125v-125h-125v125zM375 625h125v-125h-125v125z
M500 500h125v-125h-125v125zM125 1375h125v-125h-125v125zM250 1250h125v-125h-125v125zM375 1250h125v-125h-125v125zM500 1375h125v-125h-125v125z" />
    <glyph glyph-name="ncaron" unicode="&#x148;" 
d="M0 125h125v-125h-125v125zM0 250h125v-125h-125v125zM0 375h125v-125h-125v125zM0 500h125v-125h-125v125zM0 625h125v-125h-125v125zM0 750h125v-125h-125v125zM125 750h125v-125h-125v125zM250 750h125v-125h-125v125zM375 750h125v-125h-125v125zM500 625h125v-125
h-125v125zM500 500h125v-125h-125v125zM500 375h125v-125h-125v125zM500 250h125v-125h-125v125zM500 125h125v-125h-125v125zM125 1125h125v-125h-125v125zM250 1000h125v-125h-125v125zM375 1125h125v-125h-125v125z" />
    <glyph glyph-name="Rcaron" unicode="&#x158;" horiz-adv-x="875" 
d="M0 1000h125v-125h-125v125zM0 875h125v-125h-125v125zM0 750h125v-125h-125v125zM0 625h125v-125h-125v125zM0 500h125v-125h-125v125zM0 375h125v-125h-125v125zM0 250h125v-125h-125v125zM0 125h125v-125h-125v125zM125 1000h125v-125h-125v125zM250 1000h125v-125
h-125v125zM375 1000h125v-125h-125v125zM500 1000h125v-125h-125v125zM625 875h125v-125h-125v125zM625 750h125v-125h-125v125zM625 375h125v-125h-125v125zM625 250h125v-125h-125v125zM625 125h125v-125h-125v125zM125 625h125v-125h-125v125zM250 625h125v-125h-125v125
zM375 625h125v-125h-125v125zM500 625h125v-125h-125v125zM625 500h125v-125h-125v125zM125 1375h125v-125h-125v125zM250 1250h125v-125h-125v125zM375 1250h125v-125h-125v125zM500 1375h125v-125h-125v125z" />
    <glyph glyph-name="rcaron" unicode="&#x159;" horiz-adv-x="625" 
d="M0 125h125v-125h-125v125zM0 250h125v-125h-125v125zM0 375h125v-125h-125v125zM0 500h125v-125h-125v125zM0 625h125v-125h-125v125zM0 750h125v-125h-125v125zM125 625h125v-125h-125v125zM250 750h125v-125h-125v125zM375 750h125v-125h-125v125zM0 1125h125v-125
h-125v125zM125 1000h125v-125h-125v125zM250 1000h125v-125h-125v125zM375 1125h125v-125h-125v125z" />
    <glyph glyph-name="Tcaron" unicode="&#x164;" horiz-adv-x="1000" 
d="M375 125h125v-125h-125v125zM375 250h125v-125h-125v125zM375 375h125v-125h-125v125zM375 500h125v-125h-125v125zM375 625h125v-125h-125v125zM375 750h125v-125h-125v125zM375 875h125v-125h-125v125zM375 1000h125v-125h-125v125zM0 1000h125v-125h-125v125z
M125 1000h125v-125h-125v125zM250 1000h125v-125h-125v125zM750 1000h125v-125h-125v125zM500 1000h125v-125h-125v125zM625 1000h125v-125h-125v125zM250 1375h125v-125h-125v125zM375 1250h125v-125h-125v125zM500 1375h125v-125h-125v125z" />
    <glyph glyph-name="tcaron" unicode="&#x165;" horiz-adv-x="875" 
d="M125 250h125v-125h-125v125zM250 125h125v-125h-125v125zM125 375h125v-125h-125v125zM125 500h125v-125h-125v125zM125 625h125v-125h-125v125zM125 750h125v-125h-125v125zM125 875h125v-125h-125v125zM125 1000h125v-125h-125v125zM0 750h125v-125h-125v125zM250 750
h125v-125h-125v125zM375 750h125v-125h-125v125zM375 125h125v-125h-125v125zM625 1000h125v-125h-125v125zM625 875h125v-125h-125v125zM625 750h125v-125h-125v125z" />
    <glyph glyph-name="Uring" unicode="&#x16e;" horiz-adv-x="1000" 
d="M0 1000h125v-125h-125v125zM0 875h125v-125h-125v125zM0 750h125v-125h-125v125zM0 625h125v-125h-125v125zM0 500h125v-125h-125v125zM0 375h125v-125h-125v125zM125 250h125v-125h-125v125zM250 125h125v-125h-125v125zM375 125h125v-125h-125v125zM500 125h125v-125
h-125v125zM625 250h125v-125h-125v125zM750 375h125v-125h-125v125zM750 500h125v-125h-125v125zM750 625h125v-125h-125v125zM750 750h125v-125h-125v125zM750 875h125v-125h-125v125zM750 1000h125v-125h-125v125zM375 1250h125v-125h-125v125zM250 1375h125v-125h-125
v125zM375 1500h125v-125h-125v125zM500 1375h125v-125h-125v125z" />
    <glyph glyph-name="uring" unicode="&#x16f;" 
d="M125 125h125v-125h-125v125zM0 250h125v-125h-125v125zM0 375h125v-125h-125v125zM0 500h125v-125h-125v125zM0 625h125v-125h-125v125zM0 750h125v-125h-125v125zM250 125h125v-125h-125v125zM500 125h125v-125h-125v125zM500 250h125v-125h-125v125zM500 375h125v-125
h-125v125zM500 500h125v-125h-125v125zM500 625h125v-125h-125v125zM500 750h125v-125h-125v125zM375 125h125v-125h-125v125zM250 1000h125v-125h-125v125zM125 1125h125v-125h-125v125zM250 1250h125v-125h-125v125zM375 1125h125v-125h-125v125z" />
    <glyph glyph-name="Amacron" unicode="&#x100;" horiz-adv-x="1000" 
d="M250 750h125v-125h-125v125zM500 750h125v-125h-125v125zM125 500h125v-125h-125v125zM625 500h125v-125h-125v125zM125 375h125v-125h-125v125zM625 375h125v-125h-125v125zM0 250h125v-125h-125v125zM750 250h125v-125h-125v125zM0 125h125v-125h-125v125zM750 125h125
v-125h-125v125zM375 1000h125v-125h-125v125zM250 625h125v-125h-125v125zM500 625h125v-125h-125v125zM375 875h125v-125h-125v125zM250 375h125v-125h-125v125zM375 375h125v-125h-125v125zM500 375h125v-125h-125v125zM125 1250h125v-125h-125v125zM250 1250h125v-125
h-125v125zM375 1250h125v-125h-125v125zM500 1250h125v-125h-125v125zM625 1250h125v-125h-125v125z" />
    <glyph glyph-name="amacron" unicode="&#x101;" 
d="M122 753h381v-125h125v-631h-506v125h-125v256h125v125h375v119h-375v131zM128 128h369v244h-369v-244zM125 1001h125v-125h-125v125zM250 1001h125v-125h-125v125zM375 1001h125v-125h-125v125z" />
    <glyph glyph-name="Cdotaccent" unicode="&#x10a;" horiz-adv-x="875" 
d="M250 125h125v-125h-125v125zM125 250h125v-125h-125v125zM0 375h125v-125h-125v125zM0 500h125v-125h-125v125zM0 625h125v-125h-125v125zM0 750h125v-125h-125v125zM250 1000h125v-125h-125v125zM125 875h125v-125h-125v125zM375 125h125v-125h-125v125zM500 125h125
v-125h-125v125zM375 1000h125v-125h-125v125zM500 1000h125v-125h-125v125zM625 875h125v-125h-125v125zM625 250h125v-125h-125v125zM375 1250h125v-125h-125v125z" />
    <glyph glyph-name="cdotaccent" unicode="&#x10b;" 
d="M125 125h125v-125h-125v125zM250 125h125v-125h-125v125zM375 125h125v-125h-125v125zM0 250h125v-125h-125v125zM0 375h125v-125h-125v125zM0 500h125v-125h-125v125zM0 625h125v-125h-125v125zM125 750h125v-125h-125v125zM250 750h125v-125h-125v125zM375 750h125
v-125h-125v125zM500 625h125v-125h-125v125zM500 250h125v-125h-125v125zM250 1000h125v-125h-125v125z" />
    <glyph glyph-name="ccircumflex" unicode="&#x109;" 
d="M125 125h125v-125h-125v125zM250 125h125v-125h-125v125zM375 125h125v-125h-125v125zM0 250h125v-125h-125v125zM0 375h125v-125h-125v125zM0 500h125v-125h-125v125zM0 625h125v-125h-125v125zM125 750h125v-125h-125v125zM250 750h125v-125h-125v125zM375 750h125
v-125h-125v125zM500 625h125v-125h-125v125zM500 250h125v-125h-125v125zM125 1000h125v-125h-125v125zM250 1125h125v-125h-125v125zM375 1000h125v-125h-125v125z" />
    <glyph glyph-name="Ccircumflex" unicode="&#x108;" horiz-adv-x="875" 
d="M250 125h125v-125h-125v125zM125 250h125v-125h-125v125zM0 375h125v-125h-125v125zM0 500h125v-125h-125v125zM0 625h125v-125h-125v125zM0 750h125v-125h-125v125zM250 1000h125v-125h-125v125zM125 875h125v-125h-125v125zM375 125h125v-125h-125v125zM500 125h125
v-125h-125v125zM375 1000h125v-125h-125v125zM500 1000h125v-125h-125v125zM625 875h125v-125h-125v125zM625 250h125v-125h-125v125zM250 1250h125v-125h-125v125zM375 1375h125v-125h-125v125zM500 1250h125v-125h-125v125z" />
    <glyph glyph-name="Abreve" unicode="&#x102;" horiz-adv-x="1000" 
d="M250 750h125v-125h-125v125zM500 750h125v-125h-125v125zM125 500h125v-125h-125v125zM625 500h125v-125h-125v125zM125 375h125v-125h-125v125zM625 375h125v-125h-125v125zM0 250h125v-125h-125v125zM750 250h125v-125h-125v125zM0 125h125v-125h-125v125zM750 125h125
v-125h-125v125zM375 1000h125v-125h-125v125zM250 625h125v-125h-125v125zM500 625h125v-125h-125v125zM375 875h125v-125h-125v125zM250 375h125v-125h-125v125zM375 375h125v-125h-125v125zM500 375h125v-125h-125v125zM125 1375h125v-125h-125v125zM375 1250h125v-125
h-125v125zM250 1250h125v-125h-125v125zM500 1250h125v-125h-125v125zM625 1375h125v-125h-125v125z" />
    <glyph glyph-name="abreve" unicode="&#x103;" 
d="M122 753h381v-125h125v-631h-506v125h-125v256h125v125h375v119h-375v131zM128 128h369v244h-369v-244zM125 1125h125v-125h-125v125zM375 1000h125v-125h-125v125zM250 1000h125v-125h-125v125zM500 1125h125v-125h-125v125z" />
    <glyph glyph-name="Emacron" unicode="&#x112;" horiz-adv-x="875" 
d="M0 125h125v-125h-125v125zM125 125h125v-125h-125v125zM250 125h125v-125h-125v125zM375 125h125v-125h-125v125zM500 125h125v-125h-125v125zM625 125h125v-125h-125v125zM0 250h125v-125h-125v125zM0 375h125v-125h-125v125zM0 500h125v-125h-125v125zM0 625h125v-125
h-125v125zM0 750h125v-125h-125v125zM0 875h125v-125h-125v125zM625 1000h125v-125h-125v125zM500 1000h125v-125h-125v125zM375 1000h125v-125h-125v125zM250 1000h125v-125h-125v125zM125 1000h125v-125h-125v125zM0 1000h125v-125h-125v125zM125 625h125v-125h-125v125z
M250 625h125v-125h-125v125zM375 625h125v-125h-125v125zM500 625h125v-125h-125v125zM625 625h125v-125h-125v125zM125 1250h125v-125h-125v125zM250 1250h125v-125h-125v125zM375 1250h125v-125h-125v125zM500 1250h125v-125h-125v125z" />
    <glyph glyph-name="emacron" unicode="&#x113;" 
d="M125 125h125v-125h-125v125zM250 125h125v-125h-125v125zM375 125h125v-125h-125v125zM0 250h125v-125h-125v125zM0 375h125v-125h-125v125zM0 500h125v-125h-125v125zM0 625h125v-125h-125v125zM125 750h125v-125h-125v125zM250 750h125v-125h-125v125zM375 750h125
v-125h-125v125zM500 625h125v-125h-125v125zM500 500h125v-125h-125v125zM375 500h125v-125h-125v125zM250 500h125v-125h-125v125zM125 500h125v-125h-125v125zM500 250h125v-125h-125v125zM125 1001h125v-125h-125v125zM250 1001h125v-125h-125v125zM375 1001h125v-125
h-125v125z" />
    <glyph glyph-name="ebreve" unicode="&#x115;" 
d="M125 125h125v-125h-125v125zM250 125h125v-125h-125v125zM375 125h125v-125h-125v125zM0 250h125v-125h-125v125zM0 375h125v-125h-125v125zM0 500h125v-125h-125v125zM0 625h125v-125h-125v125zM125 750h125v-125h-125v125zM250 750h125v-125h-125v125zM375 750h125
v-125h-125v125zM500 625h125v-125h-125v125zM500 500h125v-125h-125v125zM375 500h125v-125h-125v125zM250 500h125v-125h-125v125zM125 500h125v-125h-125v125zM500 250h125v-125h-125v125zM0 1125h125v-125h-125v125zM250 1000h125v-125h-125v125zM125 1000h125v-125h-125
v125zM375 1000h125v-125h-125v125zM500 1125h125v-125h-125v125z" />
    <glyph glyph-name="Ebreve" unicode="&#x114;" horiz-adv-x="875" 
d="M0 125h125v-125h-125v125zM125 125h125v-125h-125v125zM250 125h125v-125h-125v125zM375 125h125v-125h-125v125zM500 125h125v-125h-125v125zM625 125h125v-125h-125v125zM0 250h125v-125h-125v125zM0 375h125v-125h-125v125zM0 500h125v-125h-125v125zM0 625h125v-125
h-125v125zM0 750h125v-125h-125v125zM0 875h125v-125h-125v125zM625 1000h125v-125h-125v125zM500 1000h125v-125h-125v125zM375 1000h125v-125h-125v125zM250 1000h125v-125h-125v125zM125 1000h125v-125h-125v125zM0 1000h125v-125h-125v125zM125 625h125v-125h-125v125z
M250 625h125v-125h-125v125zM375 625h125v-125h-125v125zM500 625h125v-125h-125v125zM625 625h125v-125h-125v125zM125 1375h125v-125h-125v125zM375 1250h125v-125h-125v125zM250 1250h125v-125h-125v125zM500 1375h125v-125h-125v125z" />
    <glyph glyph-name="Edotaccent" unicode="&#x116;" horiz-adv-x="875" 
d="M0 125h125v-125h-125v125zM125 125h125v-125h-125v125zM250 125h125v-125h-125v125zM375 125h125v-125h-125v125zM500 125h125v-125h-125v125zM625 125h125v-125h-125v125zM0 250h125v-125h-125v125zM0 375h125v-125h-125v125zM0 500h125v-125h-125v125zM0 625h125v-125
h-125v125zM0 750h125v-125h-125v125zM0 875h125v-125h-125v125zM625 1000h125v-125h-125v125zM500 1000h125v-125h-125v125zM375 1000h125v-125h-125v125zM250 1000h125v-125h-125v125zM125 1000h125v-125h-125v125zM0 1000h125v-125h-125v125zM125 625h125v-125h-125v125z
M250 625h125v-125h-125v125zM375 625h125v-125h-125v125zM500 625h125v-125h-125v125zM625 625h125v-125h-125v125zM375 1250h125v-125h-125v125z" />
    <glyph glyph-name="edotaccent" unicode="&#x117;" 
d="M125 125h125v-125h-125v125zM250 125h125v-125h-125v125zM375 125h125v-125h-125v125zM0 250h125v-125h-125v125zM0 375h125v-125h-125v125zM0 500h125v-125h-125v125zM0 625h125v-125h-125v125zM125 750h125v-125h-125v125zM250 750h125v-125h-125v125zM375 750h125
v-125h-125v125zM500 625h125v-125h-125v125zM500 500h125v-125h-125v125zM375 500h125v-125h-125v125zM250 500h125v-125h-125v125zM125 500h125v-125h-125v125zM500 250h125v-125h-125v125zM250 1000h125v-125h-125v125z" />
    <glyph glyph-name="Gdotaccent" unicode="&#x120;" horiz-adv-x="1000" 
d="M250 125h125v-125h-125v125zM125 250h125v-125h-125v125zM0 375h125v-125h-125v125zM0 500h125v-125h-125v125zM0 625h125v-125h-125v125zM0 750h125v-125h-125v125zM125 875h125v-125h-125v125zM250 1000h125v-125h-125v125zM375 1000h125v-125h-125v125zM500 1000h125
v-125h-125v125zM375 125h125v-125h-125v125zM500 125h125v-125h-125v125zM625 250h125v-125h-125v125zM625 875h125v-125h-125v125zM750 750h125v-125h-125v125zM750 375h125v-125h-125v125zM750 500h125v-125h-125v125zM625 500h125v-125h-125v125zM500 500h125v-125h-125
v125zM375 1250h125v-125h-125v125z" />
    <glyph glyph-name="gdotaccent" unicode="&#x121;" 
d="M0 250h125v-125h-125v125zM0 375h125v-125h-125v125zM0 500h125v-125h-125v125zM0 625h125v-125h-125v125zM125 125h125v-125h-125v125zM250 125h125v-125h-125v125zM375 125h125v-125h-125v125zM125 750h125v-125h-125v125zM250 750h125v-125h-125v125zM375 750h125
v-125h-125v125zM500 750h125v-125h-125v125zM500 625h125v-125h-125v125zM500 500h125v-125h-125v125zM500 375h125v-125h-125v125zM500 250h125v-125h-125v125zM500 125h125v-125h-125v125zM500 0h125v-125h-125v125zM375 -125h125v-125h-125v125zM250 -125h125v-125h-125
v125zM125 -125h125v-125h-125v125zM250 1000h125v-125h-125v125z" />
    <glyph glyph-name="Idotaccent" unicode="&#x130;" horiz-adv-x="250" 
d="M0 1000h125v-125h-125v125zM0 875h125v-125h-125v125zM0 750h125v-125h-125v125zM0 625h125v-125h-125v125zM0 500h125v-125h-125v125zM0 375h125v-125h-125v125zM0 250h125v-125h-125v125zM0 125h125v-125h-125v125zM0 1250h125v-125h-125v125z" />
    <glyph glyph-name="Lacute" unicode="&#x139;" horiz-adv-x="875" 
d="M0 1000h125v-125h-125v125zM0 875h125v-125h-125v125zM0 750h125v-125h-125v125zM0 625h125v-125h-125v125zM0 500h125v-125h-125v125zM0 375h125v-125h-125v125zM0 250h125v-125h-125v125zM0 125h125v-125h-125v125zM125 125h125v-125h-125v125zM250 125h125v-125h-125
v125zM375 125h125v-125h-125v125zM500 125h125v-125h-125v125zM625 125h125v-125h-125v125zM0 1250h125v-125h-125v125zM125 1375h125v-125h-125v125z" />
    <glyph glyph-name="lacute" unicode="&#x13a;" horiz-adv-x="250" 
d="M0 1000h125v-125h-125v125zM0 875h125v-125h-125v125zM0 750h125v-125h-125v125zM0 625h125v-125h-125v125zM0 500h125v-125h-125v125zM0 375h125v-125h-125v125zM0 250h125v-125h-125v125zM0 125h125v-125h-125v125zM0 1250h125v-125h-125v125zM125 1375h125v-125h-125
v125z" />
    <glyph glyph-name="Nacute" unicode="&#x143;" horiz-adv-x="875" 
d="M0 125h125v-125h-125v125zM0 250h125v-125h-125v125zM0 375h125v-125h-125v125zM0 500h125v-125h-125v125zM0 625h125v-125h-125v125zM0 750h125v-125h-125v125zM0 875h125v-125h-125v125zM0 1000h125v-125h-125v125zM625 125h125v-125h-125v125zM625 250h125v-125h-125
v125zM625 375h125v-125h-125v125zM625 500h125v-125h-125v125zM625 625h125v-125h-125v125zM625 750h125v-125h-125v125zM625 875h125v-125h-125v125zM625 1000h125v-125h-125v125zM125 875h125v-125h-125v125zM250 750h125v-125h-125v125zM375 625h125v-125h-125v125z
M500 500h125v-125h-125v125zM250 1250h125v-125h-125v125zM375 1375h125v-125h-125v125z" />
    <glyph glyph-name="nacute" unicode="&#x144;" 
d="M0 125h125v-125h-125v125zM0 250h125v-125h-125v125zM0 375h125v-125h-125v125zM0 500h125v-125h-125v125zM0 625h125v-125h-125v125zM0 750h125v-125h-125v125zM125 750h125v-125h-125v125zM250 750h125v-125h-125v125zM375 750h125v-125h-125v125zM500 625h125v-125
h-125v125zM500 500h125v-125h-125v125zM500 375h125v-125h-125v125zM500 250h125v-125h-125v125zM500 125h125v-125h-125v125zM250 1000h125v-125h-125v125zM375 1125h125v-125h-125v125z" />
    <glyph glyph-name="Ohungarumlaut" unicode="&#x150;" horiz-adv-x="1000" 
d="M250 125h125v-125h-125v125zM375 125h125v-125h-125v125zM500 125h125v-125h-125v125zM125 250h125v-125h-125v125zM0 375h125v-125h-125v125zM0 500h125v-125h-125v125zM0 625h125v-125h-125v125zM0 750h125v-125h-125v125zM250 1000h125v-125h-125v125zM125 875h125
v-125h-125v125zM375 1000h125v-125h-125v125zM500 1000h125v-125h-125v125zM625 875h125v-125h-125v125zM750 750h125v-125h-125v125zM750 625h125v-125h-125v125zM750 500h125v-125h-125v125zM750 375h125v-125h-125v125zM625 250h125v-125h-125v125zM250 1250h125v-125
h-125v125zM375 1375h125v-125h-125v125zM500 1250h125v-125h-125v125zM625 1375h125v-125h-125v125z" />
    <glyph glyph-name="Obreve" unicode="&#x14e;" horiz-adv-x="1000" 
d="M250 125h125v-125h-125v125zM375 125h125v-125h-125v125zM500 125h125v-125h-125v125zM125 250h125v-125h-125v125zM0 375h125v-125h-125v125zM0 500h125v-125h-125v125zM0 625h125v-125h-125v125zM0 750h125v-125h-125v125zM250 1000h125v-125h-125v125zM125 875h125
v-125h-125v125zM375 1000h125v-125h-125v125zM500 1000h125v-125h-125v125zM625 875h125v-125h-125v125zM750 750h125v-125h-125v125zM750 625h125v-125h-125v125zM750 500h125v-125h-125v125zM750 375h125v-125h-125v125zM625 250h125v-125h-125v125zM125 1375h125v-125
h-125v125zM375 1250h125v-125h-125v125zM250 1250h125v-125h-125v125zM500 1250h125v-125h-125v125zM625 1375h125v-125h-125v125z" />
    <glyph glyph-name="Omacron" unicode="&#x14c;" horiz-adv-x="1000" 
d="M250 125h125v-125h-125v125zM375 125h125v-125h-125v125zM500 125h125v-125h-125v125zM125 250h125v-125h-125v125zM0 375h125v-125h-125v125zM0 500h125v-125h-125v125zM0 625h125v-125h-125v125zM0 750h125v-125h-125v125zM250 1000h125v-125h-125v125zM125 875h125
v-125h-125v125zM375 1000h125v-125h-125v125zM500 1000h125v-125h-125v125zM625 875h125v-125h-125v125zM750 750h125v-125h-125v125zM750 625h125v-125h-125v125zM750 500h125v-125h-125v125zM750 375h125v-125h-125v125zM625 250h125v-125h-125v125zM125 1250h125v-125
h-125v125zM250 1250h125v-125h-125v125zM375 1250h125v-125h-125v125zM500 1250h125v-125h-125v125zM625 1250h125v-125h-125v125z" />
    <glyph glyph-name="omacron" unicode="&#x14d;" 
d="M0 250h125v-125h-125v125zM0 375h125v-125h-125v125zM0 500h125v-125h-125v125zM0 625h125v-125h-125v125zM125 750h125v-125h-125v125zM250 750h125v-125h-125v125zM375 750h125v-125h-125v125zM500 625h125v-125h-125v125zM500 500h125v-125h-125v125zM500 250h125
v-125h-125v125zM500 375h125v-125h-125v125zM125 125h125v-125h-125v125zM250 125h125v-125h-125v125zM375 125h125v-125h-125v125zM125 1001h125v-125h-125v125zM250 1001h125v-125h-125v125zM375 1001h125v-125h-125v125z" />
    <glyph glyph-name="obreve" unicode="&#x14f;" 
d="M0 250h125v-125h-125v125zM0 375h125v-125h-125v125zM0 500h125v-125h-125v125zM0 625h125v-125h-125v125zM125 750h125v-125h-125v125zM250 750h125v-125h-125v125zM375 750h125v-125h-125v125zM500 625h125v-125h-125v125zM500 500h125v-125h-125v125zM500 250h125
v-125h-125v125zM500 375h125v-125h-125v125zM125 125h125v-125h-125v125zM250 125h125v-125h-125v125zM375 125h125v-125h-125v125zM0 1125h125v-125h-125v125zM250 1000h125v-125h-125v125zM125 1000h125v-125h-125v125zM375 1000h125v-125h-125v125zM500 1125h125v-125
h-125v125z" />
    <glyph glyph-name="ohungarumlaut" unicode="&#x151;" 
d="M0 250h125v-125h-125v125zM0 375h125v-125h-125v125zM0 500h125v-125h-125v125zM0 625h125v-125h-125v125zM125 750h125v-125h-125v125zM250 750h125v-125h-125v125zM375 750h125v-125h-125v125zM500 625h125v-125h-125v125zM500 500h125v-125h-125v125zM500 250h125
v-125h-125v125zM500 375h125v-125h-125v125zM125 125h125v-125h-125v125zM250 125h125v-125h-125v125zM375 125h125v-125h-125v125zM125 1000h125v-125h-125v125zM250 1125h125v-125h-125v125zM375 1000h125v-125h-125v125zM500 1125h125v-125h-125v125z" />
    <glyph glyph-name="Racute" unicode="&#x154;" horiz-adv-x="875" 
d="M0 1000h125v-125h-125v125zM0 875h125v-125h-125v125zM0 750h125v-125h-125v125zM0 625h125v-125h-125v125zM0 500h125v-125h-125v125zM0 375h125v-125h-125v125zM0 250h125v-125h-125v125zM0 125h125v-125h-125v125zM125 1000h125v-125h-125v125zM250 1000h125v-125
h-125v125zM375 1000h125v-125h-125v125zM500 1000h125v-125h-125v125zM625 875h125v-125h-125v125zM625 750h125v-125h-125v125zM625 375h125v-125h-125v125zM625 250h125v-125h-125v125zM625 125h125v-125h-125v125zM125 625h125v-125h-125v125zM250 625h125v-125h-125v125
zM375 625h125v-125h-125v125zM500 625h125v-125h-125v125zM625 500h125v-125h-125v125zM250 1250h125v-125h-125v125zM375 1375h125v-125h-125v125z" />
    <glyph glyph-name="racute" unicode="&#x155;" horiz-adv-x="625" 
d="M0 125h125v-125h-125v125zM0 250h125v-125h-125v125zM0 375h125v-125h-125v125zM0 500h125v-125h-125v125zM0 625h125v-125h-125v125zM0 750h125v-125h-125v125zM125 625h125v-125h-125v125zM250 750h125v-125h-125v125zM375 750h125v-125h-125v125zM125 1000h125v-125
h-125v125zM250 1125h125v-125h-125v125z" />
    <glyph glyph-name="Sacute" unicode="&#x15a;" horiz-adv-x="875" 
d="M125 125h125v-125h-125v125zM250 125h125v-125h-125v125zM375 125h125v-125h-125v125zM500 125h125v-125h-125v125zM125 1000h125v-125h-125v125zM250 1000h125v-125h-125v125zM375 1000h125v-125h-125v125zM500 1000h125v-125h-125v125zM0 875h125v-125h-125v125zM0 750
h125v-125h-125v125zM125 625h125v-125h-125v125zM250 625h125v-125h-125v125zM375 625h125v-125h-125v125zM500 625h125v-125h-125v125zM625 500h125v-125h-125v125zM625 375h125v-125h-125v125zM625 250h125v-125h-125v125zM0 250h125v-125h-125v125zM625 875h125v-125
h-125v125zM250 1250h125v-125h-125v125zM375 1375h125v-125h-125v125z" />
    <glyph glyph-name="sacute" unicode="&#x15b;" 
d="M125 125h125v-125h-125v125zM250 125h125v-125h-125v125zM375 125h125v-125h-125v125zM500 250h125v-125h-125v125zM250 500h125v-125h-125v125zM125 500h125v-125h-125v125zM125 750h125v-125h-125v125zM375 750h125v-125h-125v125zM250 750h125v-125h-125v125zM0 625
h125v-125h-125v125zM500 625h125v-125h-125v125zM375 375h125v-125h-125v125zM0 250h125v-125h-125v125zM250 1000h125v-125h-125v125zM375 1125h125v-125h-125v125z" />
    <glyph glyph-name="Ubreve" unicode="&#x16c;" horiz-adv-x="1000" 
d="M0 1000h125v-125h-125v125zM0 875h125v-125h-125v125zM0 750h125v-125h-125v125zM0 625h125v-125h-125v125zM0 500h125v-125h-125v125zM0 375h125v-125h-125v125zM125 250h125v-125h-125v125zM250 125h125v-125h-125v125zM375 125h125v-125h-125v125zM500 125h125v-125
h-125v125zM625 250h125v-125h-125v125zM750 375h125v-125h-125v125zM750 500h125v-125h-125v125zM750 625h125v-125h-125v125zM750 750h125v-125h-125v125zM750 875h125v-125h-125v125zM750 1000h125v-125h-125v125zM125 1375h125v-125h-125v125zM375 1250h125v-125h-125
v125zM250 1250h125v-125h-125v125zM500 1250h125v-125h-125v125zM625 1375h125v-125h-125v125z" />
    <glyph glyph-name="Umacron" unicode="&#x16a;" horiz-adv-x="1000" 
d="M0 1000h125v-125h-125v125zM0 875h125v-125h-125v125zM0 750h125v-125h-125v125zM0 625h125v-125h-125v125zM0 500h125v-125h-125v125zM0 375h125v-125h-125v125zM125 250h125v-125h-125v125zM250 125h125v-125h-125v125zM375 125h125v-125h-125v125zM500 125h125v-125
h-125v125zM625 250h125v-125h-125v125zM750 375h125v-125h-125v125zM750 500h125v-125h-125v125zM750 625h125v-125h-125v125zM750 750h125v-125h-125v125zM750 875h125v-125h-125v125zM750 1000h125v-125h-125v125zM125 1250h125v-125h-125v125zM250 1250h125v-125h-125
v125zM375 1250h125v-125h-125v125zM500 1250h125v-125h-125v125zM625 1250h125v-125h-125v125z" />
    <glyph glyph-name="Uhungarumlaut" unicode="&#x170;" horiz-adv-x="1000" 
d="M0 1000h125v-125h-125v125zM0 875h125v-125h-125v125zM0 750h125v-125h-125v125zM0 625h125v-125h-125v125zM0 500h125v-125h-125v125zM0 375h125v-125h-125v125zM125 250h125v-125h-125v125zM250 125h125v-125h-125v125zM375 125h125v-125h-125v125zM500 125h125v-125
h-125v125zM625 250h125v-125h-125v125zM750 375h125v-125h-125v125zM750 500h125v-125h-125v125zM750 625h125v-125h-125v125zM750 750h125v-125h-125v125zM750 875h125v-125h-125v125zM750 1000h125v-125h-125v125zM250 1250h125v-125h-125v125zM375 1375h125v-125h-125
v125zM500 1250h125v-125h-125v125zM625 1375h125v-125h-125v125z" />
    <glyph glyph-name="umacron" unicode="&#x16b;" 
d="M125 125h125v-125h-125v125zM0 250h125v-125h-125v125zM0 375h125v-125h-125v125zM0 500h125v-125h-125v125zM0 625h125v-125h-125v125zM0 750h125v-125h-125v125zM250 125h125v-125h-125v125zM500 125h125v-125h-125v125zM500 250h125v-125h-125v125zM500 375h125v-125
h-125v125zM500 500h125v-125h-125v125zM500 625h125v-125h-125v125zM500 750h125v-125h-125v125zM375 125h125v-125h-125v125zM125 1001h125v-125h-125v125zM250 1001h125v-125h-125v125zM375 1001h125v-125h-125v125z" />
    <glyph glyph-name="ubreve" unicode="&#x16d;" 
d="M125 125h125v-125h-125v125zM0 250h125v-125h-125v125zM0 375h125v-125h-125v125zM0 500h125v-125h-125v125zM0 625h125v-125h-125v125zM0 750h125v-125h-125v125zM250 125h125v-125h-125v125zM500 125h125v-125h-125v125zM500 250h125v-125h-125v125zM500 375h125v-125
h-125v125zM500 500h125v-125h-125v125zM500 625h125v-125h-125v125zM500 750h125v-125h-125v125zM375 125h125v-125h-125v125zM0 1125h125v-125h-125v125zM250 1000h125v-125h-125v125zM125 1000h125v-125h-125v125zM375 1000h125v-125h-125v125zM500 1125h125v-125h-125
v125z" />
    <glyph glyph-name="uhungarumlaut" unicode="&#x171;" 
d="M125 125h125v-125h-125v125zM0 250h125v-125h-125v125zM0 375h125v-125h-125v125zM0 500h125v-125h-125v125zM0 625h125v-125h-125v125zM0 750h125v-125h-125v125zM250 125h125v-125h-125v125zM500 125h125v-125h-125v125zM500 250h125v-125h-125v125zM500 375h125v-125
h-125v125zM500 500h125v-125h-125v125zM500 625h125v-125h-125v125zM500 750h125v-125h-125v125zM375 125h125v-125h-125v125zM125 1000h125v-125h-125v125zM250 1125h125v-125h-125v125zM375 1000h125v-125h-125v125zM500 1125h125v-125h-125v125z" />
    <glyph glyph-name="zdotaccent" unicode="&#x17c;" 
d="M0 125h125v-125h-125v125zM125 125h125v-125h-125v125zM250 125h125v-125h-125v125zM375 125h125v-125h-125v125zM0 750h125v-125h-125v125zM125 750h125v-125h-125v125zM250 750h125v-125h-125v125zM375 750h125v-125h-125v125zM500 750h125v-125h-125v125zM500 625h125
v-125h-125v125zM375 500h125v-125h-125v125zM250 375h125v-125h-125v125zM125 250h125v-125h-125v125zM500 125h125v-125h-125v125zM250 1000h125v-125h-125v125z" />
    <glyph glyph-name="zacute" unicode="&#x17a;" 
d="M0 125h125v-125h-125v125zM125 125h125v-125h-125v125zM250 125h125v-125h-125v125zM375 125h125v-125h-125v125zM0 750h125v-125h-125v125zM125 750h125v-125h-125v125zM250 750h125v-125h-125v125zM375 750h125v-125h-125v125zM500 750h125v-125h-125v125zM500 625h125
v-125h-125v125zM375 500h125v-125h-125v125zM250 375h125v-125h-125v125zM125 250h125v-125h-125v125zM500 125h125v-125h-125v125zM250 1000h125v-125h-125v125zM375 1125h125v-125h-125v125z" />
    <glyph glyph-name="Zacute" unicode="&#x179;" horiz-adv-x="875" 
d="M0 1000h125v-125h-125v125zM125 1000h125v-125h-125v125zM250 1000h125v-125h-125v125zM375 1000h125v-125h-125v125zM500 1000h125v-125h-125v125zM0 125h125v-125h-125v125zM125 125h125v-125h-125v125zM250 125h125v-125h-125v125zM375 125h125v-125h-125v125z
M500 125h125v-125h-125v125zM625 125h125v-125h-125v125zM625 1000h125v-125h-125v125zM0 250h125v-125h-125v125zM125 375h125v-125h-125v125zM250 500h125v-125h-125v125zM375 625h125v-125h-125v125zM500 750h125v-125h-125v125zM625 875h125v-125h-125v125zM250 1250
h125v-125h-125v125zM375 1375h125v-125h-125v125z" />
    <glyph glyph-name="Zdotaccent" unicode="&#x17b;" horiz-adv-x="875" 
d="M0 1000h125v-125h-125v125zM125 1000h125v-125h-125v125zM250 1000h125v-125h-125v125zM375 1000h125v-125h-125v125zM500 1000h125v-125h-125v125zM0 125h125v-125h-125v125zM125 125h125v-125h-125v125zM250 125h125v-125h-125v125zM375 125h125v-125h-125v125z
M500 125h125v-125h-125v125zM625 125h125v-125h-125v125zM625 1000h125v-125h-125v125zM0 250h125v-125h-125v125zM125 375h125v-125h-125v125zM250 500h125v-125h-125v125zM375 625h125v-125h-125v125zM500 750h125v-125h-125v125zM625 875h125v-125h-125v125zM375 1250
h125v-125h-125v125z" />
    <glyph glyph-name="Utilde" unicode="&#x168;" horiz-adv-x="1000" 
d="M0 1000h125v-125h-125v125zM0 875h125v-125h-125v125zM0 750h125v-125h-125v125zM0 625h125v-125h-125v125zM0 500h125v-125h-125v125zM0 375h125v-125h-125v125zM125 250h125v-125h-125v125zM250 125h125v-125h-125v125zM375 125h125v-125h-125v125zM500 125h125v-125
h-125v125zM625 250h125v-125h-125v125zM750 375h125v-125h-125v125zM750 500h125v-125h-125v125zM750 625h125v-125h-125v125zM750 750h125v-125h-125v125zM750 875h125v-125h-125v125zM750 1000h125v-125h-125v125zM125 1250h125v-125h-125v125zM250 1375h125v-125h-125
v125zM375 1375h125v-125h-125v125zM500 1250h125v-125h-125v125zM625 1250h125v-125h-125v125zM750 1375h125v-125h-125v125z" />
    <glyph glyph-name="utilde" unicode="&#x169;" 
d="M125 125h125v-125h-125v125zM0 250h125v-125h-125v125zM0 375h125v-125h-125v125zM0 500h125v-125h-125v125zM0 625h125v-125h-125v125zM0 750h125v-125h-125v125zM250 125h125v-125h-125v125zM500 125h125v-125h-125v125zM500 250h125v-125h-125v125zM500 375h125v-125
h-125v125zM500 500h125v-125h-125v125zM500 625h125v-125h-125v125zM500 750h125v-125h-125v125zM375 125h125v-125h-125v125zM0 1000h125v-125h-125v125zM125 1125h125v-125h-125v125zM250 1125h125v-125h-125v125zM375 1000h125v-125h-125v125zM500 1000h125v-125h-125
v125zM625 1125h125v-125h-125v125z" />
    <glyph glyph-name="Itilde" unicode="&#x128;" horiz-adv-x="500" 
d="M250 1000h125v-125h-125v125zM250 875h125v-125h-125v125zM250 750h125v-125h-125v125zM250 625h125v-125h-125v125zM250 500h125v-125h-125v125zM250 375h125v-125h-125v125zM250 250h125v-125h-125v125zM250 125h125v-125h-125v125zM0 1250h125v-125h-125v125z
M125 1375h125v-125h-125v125zM250 1375h125v-125h-125v125zM375 1250h125v-125h-125v125zM500 1250h125v-125h-125v125zM625 1375h125v-125h-125v125z" />
    <glyph glyph-name="itilde" unicode="&#x129;" horiz-adv-x="500" 
d="M250 125h125v-125h-125v125zM250 250h125v-125h-125v125zM250 375h125v-125h-125v125zM250 500h125v-125h-125v125zM250 625h125v-125h-125v125zM250 750h125v-125h-125v125zM0 1000h125v-125h-125v125zM125 1125h125v-125h-125v125zM250 1125h125v-125h-125v125z
M375 1000h125v-125h-125v125zM500 1000h125v-125h-125v125zM625 1125h125v-125h-125v125z" />
    <glyph glyph-name="Imacron" unicode="&#x12a;" horiz-adv-x="375" 
d="M125 1000h125v-125h-125v125zM125 875h125v-125h-125v125zM125 750h125v-125h-125v125zM125 625h125v-125h-125v125zM125 500h125v-125h-125v125zM125 375h125v-125h-125v125zM125 250h125v-125h-125v125zM125 125h125v-125h-125v125zM0 1250h125v-125h-125v125z
M125 1250h125v-125h-125v125zM250 1250h125v-125h-125v125z" />
    <glyph glyph-name="imacron" unicode="&#x12b;" horiz-adv-x="375" 
d="M125 125h125v-125h-125v125zM125 250h125v-125h-125v125zM125 375h125v-125h-125v125zM125 500h125v-125h-125v125zM125 625h125v-125h-125v125zM125 750h125v-125h-125v125zM0 1001h125v-125h-125v125zM125 1001h125v-125h-125v125zM250 1001h125v-125h-125v125z" />
    <glyph glyph-name="ibreve" unicode="&#x12d;" horiz-adv-x="500" 
d="M250 125h125v-125h-125v125zM250 250h125v-125h-125v125zM250 375h125v-125h-125v125zM250 500h125v-125h-125v125zM250 625h125v-125h-125v125zM250 750h125v-125h-125v125zM0 1125h125v-125h-125v125zM250 1000h125v-125h-125v125zM125 1000h125v-125h-125v125z
M375 1000h125v-125h-125v125zM500 1125h125v-125h-125v125z" />
    <glyph glyph-name="Ibreve" unicode="&#x12c;" horiz-adv-x="500" 
d="M250 1000h125v-125h-125v125zM250 875h125v-125h-125v125zM250 750h125v-125h-125v125zM250 625h125v-125h-125v125zM250 500h125v-125h-125v125zM250 375h125v-125h-125v125zM250 250h125v-125h-125v125zM250 125h125v-125h-125v125zM0 1375h125v-125h-125v125z
M250 1250h125v-125h-125v125zM125 1250h125v-125h-125v125zM375 1250h125v-125h-125v125zM500 1375h125v-125h-125v125z" />
    <glyph glyph-name="Gcircumflex" unicode="&#x11c;" horiz-adv-x="1000" 
d="M250 125h125v-125h-125v125zM125 250h125v-125h-125v125zM0 375h125v-125h-125v125zM0 500h125v-125h-125v125zM0 625h125v-125h-125v125zM0 750h125v-125h-125v125zM125 875h125v-125h-125v125zM250 1000h125v-125h-125v125zM375 1000h125v-125h-125v125zM500 1000h125
v-125h-125v125zM375 125h125v-125h-125v125zM500 125h125v-125h-125v125zM625 250h125v-125h-125v125zM625 875h125v-125h-125v125zM750 750h125v-125h-125v125zM750 375h125v-125h-125v125zM750 500h125v-125h-125v125zM625 500h125v-125h-125v125zM500 500h125v-125h-125
v125zM250 1250h125v-125h-125v125zM375 1375h125v-125h-125v125zM500 1250h125v-125h-125v125z" />
    <glyph glyph-name="gcircumflex" unicode="&#x11d;" 
d="M0 250h125v-125h-125v125zM0 375h125v-125h-125v125zM0 500h125v-125h-125v125zM0 625h125v-125h-125v125zM125 125h125v-125h-125v125zM250 125h125v-125h-125v125zM375 125h125v-125h-125v125zM125 750h125v-125h-125v125zM250 750h125v-125h-125v125zM375 750h125
v-125h-125v125zM500 750h125v-125h-125v125zM500 625h125v-125h-125v125zM500 500h125v-125h-125v125zM500 375h125v-125h-125v125zM500 250h125v-125h-125v125zM500 125h125v-125h-125v125zM500 0h125v-125h-125v125zM375 -125h125v-125h-125v125zM250 -125h125v-125h-125
v125zM125 -125h125v-125h-125v125zM125 1000h125v-125h-125v125zM250 1125h125v-125h-125v125zM375 1000h125v-125h-125v125z" />
    <glyph glyph-name="scircumflex" unicode="&#x15d;" 
d="M125 125h125v-125h-125v125zM250 125h125v-125h-125v125zM375 125h125v-125h-125v125zM500 250h125v-125h-125v125zM250 500h125v-125h-125v125zM125 500h125v-125h-125v125zM125 750h125v-125h-125v125zM375 750h125v-125h-125v125zM250 750h125v-125h-125v125zM0 625
h125v-125h-125v125zM500 625h125v-125h-125v125zM375 375h125v-125h-125v125zM0 250h125v-125h-125v125zM125 1000h125v-125h-125v125zM250 1125h125v-125h-125v125zM375 1000h125v-125h-125v125z" />
    <glyph glyph-name="Scircumflex" unicode="&#x15c;" horiz-adv-x="875" 
d="M125 125h125v-125h-125v125zM250 125h125v-125h-125v125zM375 125h125v-125h-125v125zM500 125h125v-125h-125v125zM125 1000h125v-125h-125v125zM250 1000h125v-125h-125v125zM375 1000h125v-125h-125v125zM500 1000h125v-125h-125v125zM0 875h125v-125h-125v125zM0 750
h125v-125h-125v125zM125 625h125v-125h-125v125zM250 625h125v-125h-125v125zM375 625h125v-125h-125v125zM500 625h125v-125h-125v125zM625 500h125v-125h-125v125zM625 375h125v-125h-125v125zM625 250h125v-125h-125v125zM0 250h125v-125h-125v125zM625 875h125v-125
h-125v125zM125 1250h125v-125h-125v125zM250 1375h125v-125h-125v125zM375 1375h125v-125h-125v125zM500 1250h125v-125h-125v125z" />
    <glyph glyph-name="circumflex" unicode="&#x2c6;" horiz-adv-x="500" 
d="M0 1000h125v-125h-125v125zM125 1125h125v-125h-125v125zM250 1000h125v-125h-125v125z" />
    <glyph glyph-name="Aogonek" unicode="&#x104;" horiz-adv-x="1000" 
d="M250 750h125v-125h-125v125zM500 750h125v-125h-125v125zM125 500h125v-125h-125v125zM625 500h125v-125h-125v125zM125 375h125v-125h-125v125zM625 375h125v-125h-125v125zM0 250h125v-125h-125v125zM750 250h125v-125h-125v125zM0 125h125v-125h-125v125zM750 125h125
v-125h-125v125zM375 1000h125v-125h-125v125zM250 625h125v-125h-125v125zM500 625h125v-125h-125v125zM375 875h125v-125h-125v125zM250 375h125v-125h-125v125zM375 375h125v-125h-125v125zM500 375h125v-125h-125v125zM750 0h125v-125h-125v125zM875 -125h125v-125h-125
v125z" />
    <glyph glyph-name="aogonek" unicode="&#x105;" 
d="M122 753h381v-125h125v-631h-506v125h-125v256h125v125h375v119h-375v131zM128 128h369v244h-369v-244zM500 0h125v-125h-125v125zM625 -125h125v-125h-125v125z" />
    <glyph glyph-name="Eogonek" unicode="&#x118;" horiz-adv-x="875" 
d="M0 125h125v-125h-125v125zM125 125h125v-125h-125v125zM250 125h125v-125h-125v125zM375 125h125v-125h-125v125zM500 125h125v-125h-125v125zM625 125h125v-125h-125v125zM0 250h125v-125h-125v125zM0 375h125v-125h-125v125zM0 500h125v-125h-125v125zM0 625h125v-125
h-125v125zM0 750h125v-125h-125v125zM0 875h125v-125h-125v125zM625 1000h125v-125h-125v125zM500 1000h125v-125h-125v125zM375 1000h125v-125h-125v125zM250 1000h125v-125h-125v125zM125 1000h125v-125h-125v125zM0 1000h125v-125h-125v125zM125 625h125v-125h-125v125z
M250 625h125v-125h-125v125zM375 625h125v-125h-125v125zM500 625h125v-125h-125v125zM625 625h125v-125h-125v125zM375 0h125v-125h-125v125zM500 -125h125v-125h-125v125z" />
    <glyph glyph-name="eogonek" unicode="&#x119;" 
d="M125 125h125v-125h-125v125zM250 125h125v-125h-125v125zM375 125h125v-125h-125v125zM0 250h125v-125h-125v125zM0 375h125v-125h-125v125zM0 500h125v-125h-125v125zM0 625h125v-125h-125v125zM125 750h125v-125h-125v125zM250 750h125v-125h-125v125zM375 750h125
v-125h-125v125zM500 625h125v-125h-125v125zM500 500h125v-125h-125v125zM375 500h125v-125h-125v125zM250 500h125v-125h-125v125zM125 500h125v-125h-125v125zM500 250h125v-125h-125v125zM250 0h125v-125h-125v125zM375 -125h125v-125h-125v125z" />
    <glyph glyph-name="Gbreve" unicode="&#x11e;" horiz-adv-x="1000" 
d="M250 125h125v-125h-125v125zM125 250h125v-125h-125v125zM0 375h125v-125h-125v125zM0 500h125v-125h-125v125zM0 625h125v-125h-125v125zM0 750h125v-125h-125v125zM125 875h125v-125h-125v125zM250 1000h125v-125h-125v125zM375 1000h125v-125h-125v125zM500 1000h125
v-125h-125v125zM375 125h125v-125h-125v125zM500 125h125v-125h-125v125zM625 250h125v-125h-125v125zM625 875h125v-125h-125v125zM750 750h125v-125h-125v125zM750 375h125v-125h-125v125zM750 500h125v-125h-125v125zM625 500h125v-125h-125v125zM500 500h125v-125h-125
v125zM125 1375h125v-125h-125v125zM375 1250h125v-125h-125v125zM250 1250h125v-125h-125v125zM500 1250h125v-125h-125v125zM625 1375h125v-125h-125v125z" />
    <glyph glyph-name="breve_wide" 
d="M0 1125h125v-125h-125v125zM250 1000h125v-125h-125v125zM125 1000h125v-125h-125v125zM375 1000h125v-125h-125v125zM500 1125h125v-125h-125v125z" />
    <glyph glyph-name="gbreve" unicode="&#x11f;" 
d="M0 250h125v-125h-125v125zM0 375h125v-125h-125v125zM0 500h125v-125h-125v125zM0 625h125v-125h-125v125zM125 125h125v-125h-125v125zM250 125h125v-125h-125v125zM375 125h125v-125h-125v125zM125 750h125v-125h-125v125zM250 750h125v-125h-125v125zM375 750h125
v-125h-125v125zM500 750h125v-125h-125v125zM500 625h125v-125h-125v125zM500 500h125v-125h-125v125zM500 375h125v-125h-125v125zM500 250h125v-125h-125v125zM500 125h125v-125h-125v125zM500 0h125v-125h-125v125zM375 -125h125v-125h-125v125zM250 -125h125v-125h-125
v125zM125 -125h125v-125h-125v125zM0 1125h125v-125h-125v125zM250 1000h125v-125h-125v125zM125 1000h125v-125h-125v125zM375 1000h125v-125h-125v125zM500 1125h125v-125h-125v125z" />
    <glyph glyph-name="Hcircumflex" unicode="&#x124;" horiz-adv-x="875" 
d="M0 1000h125v-125h-125v125zM0 875h125v-125h-125v125zM0 750h125v-125h-125v125zM0 625h125v-125h-125v125zM0 500h125v-125h-125v125zM0 375h125v-125h-125v125zM0 250h125v-125h-125v125zM0 125h125v-125h-125v125zM125 625h125v-125h-125v125zM250 625h125v-125h-125
v125zM375 625h125v-125h-125v125zM500 625h125v-125h-125v125zM625 1000h125v-125h-125v125zM625 875h125v-125h-125v125zM625 750h125v-125h-125v125zM625 625h125v-125h-125v125zM625 500h125v-125h-125v125zM625 375h125v-125h-125v125zM625 250h125v-125h-125v125z
M625 125h125v-125h-125v125zM125 1250h125v-125h-125v125zM250 1375h125v-125h-125v125zM375 1375h125v-125h-125v125zM500 1250h125v-125h-125v125z" />
    <glyph glyph-name="hcircumflex" unicode="&#x125;" 
d="M0 125h125v-125h-125v125zM0 250h125v-125h-125v125zM0 375h125v-125h-125v125zM0 500h125v-125h-125v125zM0 625h125v-125h-125v125zM0 750h125v-125h-125v125zM0 875h125v-125h-125v125zM0 1000h125v-125h-125v125zM125 750h125v-125h-125v125zM250 750h125v-125h-125
v125zM375 750h125v-125h-125v125zM500 625h125v-125h-125v125zM500 500h125v-125h-125v125zM500 375h125v-125h-125v125zM500 250h125v-125h-125v125zM500 125h125v-125h-125v125zM125 1250h125v-125h-125v125zM250 1375h125v-125h-125v125zM375 1250h125v-125h-125v125z
" />
    <glyph glyph-name="Jcircumflex" unicode="&#x134;" 
d="M125 125h125v-125h-125v125zM250 125h125v-125h-125v125zM375 125h125v-125h-125v125zM500 250h125v-125h-125v125zM500 375h125v-125h-125v125zM500 500h125v-125h-125v125zM500 625h125v-125h-125v125zM500 750h125v-125h-125v125zM500 875h125v-125h-125v125z
M500 1000h125v-125h-125v125zM0 375h125v-125h-125v125zM0 250h125v-125h-125v125zM375 1250h125v-125h-125v125zM500 1375h125v-125h-125v125zM625 1250h125v-125h-125v125z" />
    <glyph glyph-name="jcircumflex" unicode="&#x135;" horiz-adv-x="375" 
d="M125 500h125v-125h-125v125zM125 625h125v-125h-125v125zM125 750h125v-125h-125v125zM125 375h125v-125h-125v125zM125 250h125v-125h-125v125zM125 125h125v-125h-125v125zM125 0h125v-125h-125v125zM0 -125h125v-125h-125v125zM0 1000h125v-125h-125v125zM125 1125
h125v-125h-125v125zM250 1000h125v-125h-125v125z" />
    <glyph glyph-name="dotlessj" horiz-adv-x="375" 
d="M125 500h125v-125h-125v125zM125 625h125v-125h-125v125zM125 750h125v-125h-125v125zM125 375h125v-125h-125v125zM125 250h125v-125h-125v125zM125 125h125v-125h-125v125zM125 0h125v-125h-125v125zM0 -125h125v-125h-125v125z" />
    <glyph glyph-name="Ycircumflex" unicode="&#x176;" horiz-adv-x="1000" 
d="M0 1000h125v-125h-125v125zM125 875h125v-125h-125v125zM250 750h125v-125h-125v125zM375 625h125v-125h-125v125zM500 750h125v-125h-125v125zM625 875h125v-125h-125v125zM750 1000h125v-125h-125v125zM375 500h125v-125h-125v125zM375 375h125v-125h-125v125zM375 250
h125v-125h-125v125zM375 125h125v-125h-125v125zM250 1250h125v-125h-125v125zM375 1375h125v-125h-125v125zM500 1250h125v-125h-125v125z" />
    <glyph glyph-name="ycircumflex" unicode="&#x177;" 
d="M250 125h125v-125h-125v125zM125 500h125v-125h-125v125zM125 375h125v-125h-125v125zM0 625h125v-125h-125v125zM0 750h125v-125h-125v125zM500 750h125v-125h-125v125zM500 625h125v-125h-125v125zM375 500h125v-125h-125v125zM375 375h125v-125h-125v125zM250 0h125
v-125h-125v125zM125 -125h125v-125h-125v125zM250 250h125v-125h-125v125zM125 1000h125v-125h-125v125zM250 1125h125v-125h-125v125zM375 1000h125v-125h-125v125z" />
    <glyph glyph-name="Wcircumflex" unicode="&#x174;" horiz-adv-x="1250" 
d="M0 1000h125v-125h-125v125zM0 875h125v-125h-125v125zM125 625h125v-125h-125v125zM125 500h125v-125h-125v125zM250 375h125v-125h-125v125zM250 250h125v-125h-125v125zM250 125h125v-125h-125v125zM125 750h125v-125h-125v125zM375 500h125v-125h-125v125zM375 625
h125v-125h-125v125zM500 875h125v-125h-125v125zM500 1000h125v-125h-125v125zM625 625h125v-125h-125v125zM625 500h125v-125h-125v125zM750 375h125v-125h-125v125zM750 250h125v-125h-125v125zM750 125h125v-125h-125v125zM875 500h125v-125h-125v125zM875 625h125v-125
h-125v125zM875 750h125v-125h-125v125zM1000 875h125v-125h-125v125zM1000 1000h125v-125h-125v125zM500 750h125v-125h-125v125zM375 1250h125v-125h-125v125zM500 1375h125v-125h-125v125zM625 1250h125v-125h-125v125z" />
    <glyph glyph-name="wcircumflex" unicode="&#x175;" horiz-adv-x="1250" 
d="M250 125h125v-125h-125v125zM250 250h125v-125h-125v125zM125 500h125v-125h-125v125zM125 375h125v-125h-125v125zM0 625h125v-125h-125v125zM0 750h125v-125h-125v125zM375 375h125v-125h-125v125zM375 500h125v-125h-125v125zM500 625h125v-125h-125v125zM500 750h125
v-125h-125v125zM625 500h125v-125h-125v125zM625 375h125v-125h-125v125zM750 250h125v-125h-125v125zM750 125h125v-125h-125v125zM875 375h125v-125h-125v125zM875 500h125v-125h-125v125zM1000 625h125v-125h-125v125zM1000 750h125v-125h-125v125zM375 1000h125v-125
h-125v125zM500 1125h125v-125h-125v125zM625 1000h125v-125h-125v125z" />
    <glyph glyph-name="Uogonek" unicode="&#x172;" horiz-adv-x="1000" 
d="M0 1000h125v-125h-125v125zM0 875h125v-125h-125v125zM0 750h125v-125h-125v125zM0 625h125v-125h-125v125zM0 500h125v-125h-125v125zM0 375h125v-125h-125v125zM125 250h125v-125h-125v125zM250 125h125v-125h-125v125zM375 125h125v-125h-125v125zM500 125h125v-125
h-125v125zM625 250h125v-125h-125v125zM750 375h125v-125h-125v125zM750 500h125v-125h-125v125zM750 625h125v-125h-125v125zM750 750h125v-125h-125v125zM750 875h125v-125h-125v125zM750 1000h125v-125h-125v125zM375 0h125v-125h-125v125zM500 -125h125v-125h-125v125z
" />
    <glyph glyph-name="uogonek" unicode="&#x173;" 
d="M125 125h125v-125h-125v125zM0 250h125v-125h-125v125zM0 375h125v-125h-125v125zM0 500h125v-125h-125v125zM0 625h125v-125h-125v125zM0 750h125v-125h-125v125zM250 125h125v-125h-125v125zM500 125h125v-125h-125v125zM500 250h125v-125h-125v125zM500 375h125v-125
h-125v125zM500 500h125v-125h-125v125zM500 625h125v-125h-125v125zM500 750h125v-125h-125v125zM375 125h125v-125h-125v125zM250 0h125v-125h-125v125zM375 -125h125v-125h-125v125z" />
    <glyph glyph-name="Tcommaaccent" unicode="&#x162;" horiz-adv-x="1000" 
d="M375 125h125v-125h-125v125zM375 250h125v-125h-125v125zM375 375h125v-125h-125v125zM375 500h125v-125h-125v125zM375 625h125v-125h-125v125zM375 750h125v-125h-125v125zM375 875h125v-125h-125v125zM375 1000h125v-125h-125v125zM0 1000h125v-125h-125v125z
M125 1000h125v-125h-125v125zM250 1000h125v-125h-125v125zM750 1000h125v-125h-125v125zM500 1000h125v-125h-125v125zM625 1000h125v-125h-125v125zM375 -124h125v-125h-125v125zM250 -249h125v-125h-125v125z" />
    <glyph glyph-name="tcommaaccent" unicode="&#x163;" horiz-adv-x="625" 
d="M125 250h125v-125h-125v125zM250 125h125v-125h-125v125zM125 375h125v-125h-125v125zM125 500h125v-125h-125v125zM125 625h125v-125h-125v125zM125 750h125v-125h-125v125zM125 875h125v-125h-125v125zM125 1000h125v-125h-125v125zM0 750h125v-125h-125v125zM250 750
h125v-125h-125v125zM375 750h125v-125h-125v125zM375 125h125v-125h-125v125zM125 -124h125v-125h-125v125zM0 -249h125v-125h-125v125z" />
    <glyph glyph-name="Ncommaaccent" unicode="&#x145;" horiz-adv-x="875" 
d="M0 125h125v-125h-125v125zM0 250h125v-125h-125v125zM0 375h125v-125h-125v125zM0 500h125v-125h-125v125zM0 625h125v-125h-125v125zM0 750h125v-125h-125v125zM0 875h125v-125h-125v125zM0 1000h125v-125h-125v125zM625 125h125v-125h-125v125zM625 250h125v-125h-125
v125zM625 375h125v-125h-125v125zM625 500h125v-125h-125v125zM625 625h125v-125h-125v125zM625 750h125v-125h-125v125zM625 875h125v-125h-125v125zM625 1000h125v-125h-125v125zM125 875h125v-125h-125v125zM250 750h125v-125h-125v125zM375 625h125v-125h-125v125z
M500 500h125v-125h-125v125zM375 -124h125v-125h-125v125zM250 -249h125v-125h-125v125z" />
    <glyph glyph-name="ncommaaccent" unicode="&#x146;" 
d="M0 125h125v-125h-125v125zM0 250h125v-125h-125v125zM0 375h125v-125h-125v125zM0 500h125v-125h-125v125zM0 625h125v-125h-125v125zM0 750h125v-125h-125v125zM125 750h125v-125h-125v125zM250 750h125v-125h-125v125zM375 750h125v-125h-125v125zM500 625h125v-125
h-125v125zM500 500h125v-125h-125v125zM500 375h125v-125h-125v125zM500 250h125v-125h-125v125zM500 125h125v-125h-125v125zM250 -124h125v-125h-125v125zM125 -249h125v-125h-125v125z" />
    <glyph glyph-name="Iogonek" unicode="&#x12e;" horiz-adv-x="250" 
d="M0 1000h125v-125h-125v125zM0 875h125v-125h-125v125zM0 750h125v-125h-125v125zM0 625h125v-125h-125v125zM0 500h125v-125h-125v125zM0 375h125v-125h-125v125zM0 250h125v-125h-125v125zM0 125h125v-125h-125v125zM0 0h125v-125h-125v125zM125 -125h125v-125h-125v125
z" />
    <glyph glyph-name="iogonek" unicode="&#x12f;" horiz-adv-x="250" 
d="M0 125h125v-125h-125v125zM0 250h125v-125h-125v125zM0 375h125v-125h-125v125zM0 500h125v-125h-125v125zM0 625h125v-125h-125v125zM0 750h125v-125h-125v125zM0 1000h125v-125h-125v125zM0 0h125v-125h-125v125zM125 -125h125v-125h-125v125z" />
    <glyph glyph-name="Kcommaaccent" unicode="&#x136;" horiz-adv-x="875" 
d="M0 125h125v-125h-125v125zM0 250h125v-125h-125v125zM0 375h125v-125h-125v125zM0 500h125v-125h-125v125zM0 625h125v-125h-125v125zM0 750h125v-125h-125v125zM0 875h125v-125h-125v125zM0 1000h125v-125h-125v125zM625 1000h125v-125h-125v125zM500 875h125v-125h-125
v125zM375 750h125v-125h-125v125zM250 625h125v-125h-125v125zM125 500h125v-125h-125v125zM625 125h125v-125h-125v125zM625 250h125v-125h-125v125zM500 375h125v-125h-125v125zM375 500h125v-125h-125v125zM375 -124h125v-125h-125v125zM250 -249h125v-125h-125v125z" />
    <glyph glyph-name="kcommaaccent" unicode="&#x137;" horiz-adv-x="625" 
d="M0 1000h125v-125h-125v125zM0 875h125v-125h-125v125zM0 750h125v-125h-125v125zM0 625h125v-125h-125v125zM0 500h125v-125h-125v125zM0 375h125v-125h-125v125zM0 125h125v-125h-125v125zM0 250h125v-125h-125v125zM250 250h125v-125h-125v125zM375 125h125v-125h-125
v125zM125 375h125v-125h-125v125zM125 500h125v-125h-125v125zM250 625h125v-125h-125v125zM375 750h125v-125h-125v125zM250 -124h125v-125h-125v125zM125 -249h125v-125h-125v125z" />
    <glyph glyph-name="Lcommaaccent" unicode="&#x13b;" horiz-adv-x="875" 
d="M0 1000h125v-125h-125v125zM0 875h125v-125h-125v125zM0 750h125v-125h-125v125zM0 625h125v-125h-125v125zM0 500h125v-125h-125v125zM0 375h125v-125h-125v125zM0 250h125v-125h-125v125zM0 125h125v-125h-125v125zM125 125h125v-125h-125v125zM250 125h125v-125h-125
v125zM375 125h125v-125h-125v125zM500 125h125v-125h-125v125zM625 125h125v-125h-125v125zM375 -124h125v-125h-125v125zM250 -249h125v-125h-125v125z" />
    <glyph glyph-name="lcommaaccent" unicode="&#x13c;" horiz-adv-x="375" 
d="M125 1000h125v-125h-125v125zM125 875h125v-125h-125v125zM125 750h125v-125h-125v125zM125 625h125v-125h-125v125zM125 500h125v-125h-125v125zM125 375h125v-125h-125v125zM125 250h125v-125h-125v125zM125 125h125v-125h-125v125zM125 -124h125v-125h-125v125z
M0 -249h125v-125h-125v125z" />
    <glyph glyph-name="Rcommaaccent" unicode="&#x156;" horiz-adv-x="875" 
d="M0 1000h125v-125h-125v125zM0 875h125v-125h-125v125zM0 750h125v-125h-125v125zM0 625h125v-125h-125v125zM0 500h125v-125h-125v125zM0 375h125v-125h-125v125zM0 250h125v-125h-125v125zM0 125h125v-125h-125v125zM125 1000h125v-125h-125v125zM250 1000h125v-125
h-125v125zM375 1000h125v-125h-125v125zM500 1000h125v-125h-125v125zM625 875h125v-125h-125v125zM625 750h125v-125h-125v125zM625 375h125v-125h-125v125zM625 250h125v-125h-125v125zM625 125h125v-125h-125v125zM125 625h125v-125h-125v125zM250 625h125v-125h-125v125
zM375 625h125v-125h-125v125zM500 625h125v-125h-125v125zM625 500h125v-125h-125v125zM375 -124h125v-125h-125v125zM250 -249h125v-125h-125v125z" />
    <glyph glyph-name="rcommaaccent" unicode="&#x157;" horiz-adv-x="625" 
d="M0 125h125v-125h-125v125zM0 250h125v-125h-125v125zM0 375h125v-125h-125v125zM0 500h125v-125h-125v125zM0 625h125v-125h-125v125zM0 750h125v-125h-125v125zM125 625h125v-125h-125v125zM250 750h125v-125h-125v125zM375 750h125v-125h-125v125zM250 -124h125v-125
h-125v125zM125 -249h125v-125h-125v125z" />
    <glyph glyph-name="Scedilla" unicode="&#x15e;" horiz-adv-x="875" 
d="M125 125h125v-125h-125v125zM250 125h125v-125h-125v125zM375 125h125v-125h-125v125zM500 125h125v-125h-125v125zM125 1000h125v-125h-125v125zM250 1000h125v-125h-125v125zM375 1000h125v-125h-125v125zM500 1000h125v-125h-125v125zM0 875h125v-125h-125v125zM0 750
h125v-125h-125v125zM125 625h125v-125h-125v125zM250 625h125v-125h-125v125zM375 625h125v-125h-125v125zM500 625h125v-125h-125v125zM625 500h125v-125h-125v125zM625 375h125v-125h-125v125zM625 250h125v-125h-125v125zM0 250h125v-125h-125v125zM625 875h125v-125
h-125v125zM375 0h125v-125h-125v125zM250 -125h125v-125h-125v125z" />
    <glyph glyph-name="scedilla" unicode="&#x15f;" 
d="M125 125h125v-125h-125v125zM250 125h125v-125h-125v125zM375 125h125v-125h-125v125zM500 250h125v-125h-125v125zM250 500h125v-125h-125v125zM125 500h125v-125h-125v125zM125 750h125v-125h-125v125zM375 750h125v-125h-125v125zM250 750h125v-125h-125v125zM0 625
h125v-125h-125v125zM500 625h125v-125h-125v125zM375 375h125v-125h-125v125zM0 250h125v-125h-125v125zM250 0h125v-125h-125v125zM125 -125h125v-125h-125v125z" />
    <glyph glyph-name="Gcommaaccent" unicode="&#x122;" horiz-adv-x="1000" 
d="M250 125h125v-125h-125v125zM125 250h125v-125h-125v125zM0 375h125v-125h-125v125zM0 500h125v-125h-125v125zM0 625h125v-125h-125v125zM0 750h125v-125h-125v125zM125 875h125v-125h-125v125zM250 1000h125v-125h-125v125zM375 1000h125v-125h-125v125zM500 1000h125
v-125h-125v125zM375 125h125v-125h-125v125zM500 125h125v-125h-125v125zM625 250h125v-125h-125v125zM625 875h125v-125h-125v125zM750 750h125v-125h-125v125zM750 375h125v-125h-125v125zM750 500h125v-125h-125v125zM625 500h125v-125h-125v125zM500 500h125v-125h-125
v125zM375 -124h125v-125h-125v125zM250 -249h125v-125h-125v125z" />
    <glyph glyph-name="gcommaaccent" unicode="&#x123;" 
d="M0 250h125v-125h-125v125zM0 375h125v-125h-125v125zM0 500h125v-125h-125v125zM0 625h125v-125h-125v125zM125 125h125v-125h-125v125zM250 125h125v-125h-125v125zM375 125h125v-125h-125v125zM125 750h125v-125h-125v125zM250 750h125v-125h-125v125zM375 750h125
v-125h-125v125zM500 750h125v-125h-125v125zM500 625h125v-125h-125v125zM500 500h125v-125h-125v125zM500 375h125v-125h-125v125zM500 250h125v-125h-125v125zM500 125h125v-125h-125v125zM500 0h125v-125h-125v125zM375 -125h125v-125h-125v125zM250 -125h125v-125h-125
v125zM125 -125h125v-125h-125v125zM374.978 874.946h-124.993v124.993h124.993v-124.993zM374.978 999.939h-124.993v124.992h124.993v-124.992zM499.97 1124.93h-124.992v124.992h124.992v-124.992z" />
    <glyph glyph-name="Lcaron" unicode="&#x13d;" horiz-adv-x="875" 
d="M0 1000h125v-125h-125v125zM0 875h125v-125h-125v125zM0 750h125v-125h-125v125zM0 625h125v-125h-125v125zM0 500h125v-125h-125v125zM0 375h125v-125h-125v125zM0 250h125v-125h-125v125zM0 125h125v-125h-125v125zM125 125h125v-125h-125v125zM250 125h125v-125h-125
v125zM375 125h125v-125h-125v125zM500 125h125v-125h-125v125zM625 125h125v-125h-125v125zM250 1000h125v-125h-125v125zM250 875h125v-125h-125v125zM250 750h125v-125h-125v125z" />
    <glyph glyph-name="napostrophe" unicode="&#x149;" horiz-adv-x="1000" 
d="M250 125h125v-125h-125v125zM250 250h125v-125h-125v125zM250 375h125v-125h-125v125zM250 500h125v-125h-125v125zM250 625h125v-125h-125v125zM250 750h125v-125h-125v125zM375 750h125v-125h-125v125zM500 750h125v-125h-125v125zM625 750h125v-125h-125v125zM750 625
h125v-125h-125v125zM750 500h125v-125h-125v125zM750 375h125v-125h-125v125zM750 250h125v-125h-125v125zM750 125h125v-125h-125v125zM0 875h125v-125h-125v125zM125 1000h125v-125h-125v125z" />
    <glyph glyph-name="Eng" unicode="&#x14a;" horiz-adv-x="875" 
d="M625 0h125v-125h-125v125zM500 -125h125v-125h-125v125zM0 125h125v-125h-125v125zM0 250h125v-125h-125v125zM0 375h125v-125h-125v125zM0 500h125v-125h-125v125zM0 625h125v-125h-125v125zM0 750h125v-125h-125v125zM0 875h125v-125h-125v125zM0 1000h125v-125h-125
v125zM625 125h125v-125h-125v125zM625 250h125v-125h-125v125zM625 375h125v-125h-125v125zM625 500h125v-125h-125v125zM625 625h125v-125h-125v125zM625 750h125v-125h-125v125zM625 875h125v-125h-125v125zM625 1000h125v-125h-125v125zM125 875h125v-125h-125v125z
M250 750h125v-125h-125v125zM375 625h125v-125h-125v125zM500 500h125v-125h-125v125z" />
    <glyph glyph-name="eng" unicode="&#x14b;" 
d="M500 0h125v-125h-125v125zM375 -125h125v-125h-125v125zM0 125h125v-125h-125v125zM0 250h125v-125h-125v125zM0 375h125v-125h-125v125zM0 500h125v-125h-125v125zM0 625h125v-125h-125v125zM0 750h125v-125h-125v125zM125 750h125v-125h-125v125zM250 750h125v-125
h-125v125zM375 750h125v-125h-125v125zM500 625h125v-125h-125v125zM500 500h125v-125h-125v125zM500 375h125v-125h-125v125zM500 250h125v-125h-125v125zM500 125h125v-125h-125v125z" />
    <glyph glyph-name="kgreenlandic" unicode="&#x138;" horiz-adv-x="625" 
d="M0 750h125v-125h-125v125zM0 625h125v-125h-125v125zM0 500h125v-125h-125v125zM0 375h125v-125h-125v125zM0 250h125v-125h-125v125zM0 125h125v-125h-125v125zM125 500h125v-125h-125v125zM250 625h125v-125h-125v125zM375 750h125v-125h-125v125zM125 375h125v-125
h-125v125zM250 250h125v-125h-125v125zM375 125h125v-125h-125v125z" />
    <glyph glyph-name="IJ" unicode="&#x132;" horiz-adv-x="1000" 
d="M0 1000h125v-125h-125v125zM0 875h125v-125h-125v125zM0 750h125v-125h-125v125zM0 625h125v-125h-125v125zM0 500h125v-125h-125v125zM0 375h125v-125h-125v125zM0 250h125v-125h-125v125zM0 125h125v-125h-125v125zM375 125h125v-125h-125v125zM500 125h125v-125h-125
v125zM625 125h125v-125h-125v125zM750 250h125v-125h-125v125zM750 375h125v-125h-125v125zM750 500h125v-125h-125v125zM750 625h125v-125h-125v125zM750 750h125v-125h-125v125zM750 875h125v-125h-125v125zM750 1000h125v-125h-125v125zM250 375h125v-125h-125v125z
M250 250h125v-125h-125v125z" />
    <glyph glyph-name="ij" unicode="&#x133;" horiz-adv-x="500" 
d="M0 125h125v-125h-125v125zM0 250h125v-125h-125v125zM0 375h125v-125h-125v125zM0 500h125v-125h-125v125zM0 625h125v-125h-125v125zM0 750h125v-125h-125v125zM0 1000h125v-125h-125v125zM250 500h125v-125h-125v125zM250 625h125v-125h-125v125zM250 750h125v-125
h-125v125zM250 375h125v-125h-125v125zM250 250h125v-125h-125v125zM250 125h125v-125h-125v125zM250 1000h125v-125h-125v125zM250 0h125v-125h-125v125zM125 -125h125v-125h-125v125z" />
    <glyph glyph-name="Hbar" unicode="&#x126;" horiz-adv-x="1125" 
d="M0 875h125v-125h-125v125zM250 875h125v-125h-125v125zM375 875h125v-125h-125v125zM500 875h125v-125h-125v125zM625 875h125v-125h-125v125zM875 875h125v-125h-125v125zM125 1000h125v-125h-125v125zM125 875h125v-125h-125v125zM125 750h125v-125h-125v125zM125 625
h125v-125h-125v125zM125 500h125v-125h-125v125zM125 375h125v-125h-125v125zM125 250h125v-125h-125v125zM125 125h125v-125h-125v125zM250 625h125v-125h-125v125zM375 625h125v-125h-125v125zM500 625h125v-125h-125v125zM625 625h125v-125h-125v125zM750 1000h125v-125
h-125v125zM750 875h125v-125h-125v125zM750 750h125v-125h-125v125zM750 625h125v-125h-125v125zM750 500h125v-125h-125v125zM750 375h125v-125h-125v125zM750 250h125v-125h-125v125zM750 125h125v-125h-125v125z" />
    <glyph glyph-name="hbar" unicode="&#x127;" horiz-adv-x="875" 
d="M125 1125h125v-125h-125v125zM0 1000h125v-125h-125v125zM250 1000h125v-125h-125v125zM375 1000h125v-125h-125v125zM500 1000h125v-125h-125v125zM125 125h125v-125h-125v125zM125 250h125v-125h-125v125zM125 375h125v-125h-125v125zM125 500h125v-125h-125v125z
M125 625h125v-125h-125v125zM125 750h125v-125h-125v125zM125 875h125v-125h-125v125zM125 1000h125v-125h-125v125zM250 750h125v-125h-125v125zM375 750h125v-125h-125v125zM500 750h125v-125h-125v125zM625 625h125v-125h-125v125zM625 500h125v-125h-125v125zM625 375
h125v-125h-125v125zM625 250h125v-125h-125v125zM625 125h125v-125h-125v125z" />
    <glyph glyph-name="lcaron" unicode="&#x13e;" horiz-adv-x="500" 
d="M0 1000h125v-125h-125v125zM0 875h125v-125h-125v125zM0 750h125v-125h-125v125zM0 625h125v-125h-125v125zM0 500h125v-125h-125v125zM0 375h125v-125h-125v125zM0 250h125v-125h-125v125zM0 125h125v-125h-125v125zM250 1000h125v-125h-125v125zM250 875h125v-125h-125
v125zM250 750h125v-125h-125v125z" />
    <glyph glyph-name="Ldot" unicode="&#x13f;" horiz-adv-x="1125" 
d="M0 1000h125v-125h-125v125zM0 875h125v-125h-125v125zM0 750h125v-125h-125v125zM0 625h125v-125h-125v125zM0 500h125v-125h-125v125zM0 375h125v-125h-125v125zM0 250h125v-125h-125v125zM0 125h125v-125h-125v125zM125 125h125v-125h-125v125zM250 125h125v-125h-125
v125zM375 125h125v-125h-125v125zM500 125h125v-125h-125v125zM625 125h125v-125h-125v125zM875 500h125v-125h-125v125z" />
    <glyph glyph-name="ldot" unicode="&#x140;" horiz-adv-x="500" 
d="M0 1000h125v-125h-125v125zM0 875h125v-125h-125v125zM0 750h125v-125h-125v125zM0 625h125v-125h-125v125zM0 500h125v-125h-125v125zM0 375h125v-125h-125v125zM0 250h125v-125h-125v125zM0 125h125v-125h-125v125zM250 500h125v-125h-125v125z" />
    <glyph glyph-name="Tbar" unicode="&#x166;" horiz-adv-x="1000" 
d="M125 625h125v-125h-125v125zM250 625h125v-125h-125v125zM500 625h125v-125h-125v125zM625 625h125v-125h-125v125zM375 125h125v-125h-125v125zM375 250h125v-125h-125v125zM375 375h125v-125h-125v125zM375 500h125v-125h-125v125zM375 625h125v-125h-125v125zM375 750
h125v-125h-125v125zM375 875h125v-125h-125v125zM375 1000h125v-125h-125v125zM0 1000h125v-125h-125v125zM125 1000h125v-125h-125v125zM250 1000h125v-125h-125v125zM750 1000h125v-125h-125v125zM500 1000h125v-125h-125v125zM625 1000h125v-125h-125v125z" />
    <glyph glyph-name="tbar" unicode="&#x167;" horiz-adv-x="625" 
d="M0 500h125v-125h-125v125zM250 500h125v-125h-125v125zM375 500h125v-125h-125v125zM125 250h125v-125h-125v125zM250 125h125v-125h-125v125zM125 375h125v-125h-125v125zM125 500h125v-125h-125v125zM125 625h125v-125h-125v125zM125 750h125v-125h-125v125zM125 875
h125v-125h-125v125zM125 1000h125v-125h-125v125zM0 750h125v-125h-125v125zM250 750h125v-125h-125v125zM375 750h125v-125h-125v125zM375 125h125v-125h-125v125z" />
    <glyph glyph-name="longs" unicode="&#x17f;" horiz-adv-x="500" 
d="M0 125h125v-125h-125v125zM0 250h125v-125h-125v125zM0 375h125v-125h-125v125zM0 500h125v-125h-125v125zM0 625h125v-125h-125v125zM0 750h125v-125h-125v125zM0 875h125v-125h-125v125zM125 1000h125v-125h-125v125zM250 1000h125v-125h-125v125z" />
    <glyph glyph-name="fi" unicode="&#xfb01;" horiz-adv-x="875" 
d="M500 750h125v-125h-125v125zM125 125h125v-125h-125v125zM125 250h125v-125h-125v125zM125 375h125v-125h-125v125zM125 500h125v-125h-125v125zM125 625h125v-125h-125v125zM125 750h125v-125h-125v125zM0 750h125v-125h-125v125zM250 750h125v-125h-125v125zM125 875
h125v-125h-125v125zM125 1000h125v-125h-125v125zM250 1125h125v-125h-125v125zM375 1125h125v-125h-125v125zM375 750h125v-125h-125v125zM625 125h125v-125h-125v125zM625 250h125v-125h-125v125zM625 375h125v-125h-125v125zM625 500h125v-125h-125v125zM625 625h125
v-125h-125v125zM625 750h125v-125h-125v125zM625 1000h125v-125h-125v125z" />
    <glyph glyph-name="fl" unicode="&#xfb02;" horiz-adv-x="875" 
d="M625 1125h125v-125h-125v125zM500 1125h125v-125h-125v125zM125 125h125v-125h-125v125zM125 250h125v-125h-125v125zM125 375h125v-125h-125v125zM125 500h125v-125h-125v125zM125 625h125v-125h-125v125zM125 750h125v-125h-125v125zM0 750h125v-125h-125v125zM250 750
h125v-125h-125v125zM125 875h125v-125h-125v125zM125 1000h125v-125h-125v125zM250 1125h125v-125h-125v125zM375 1125h125v-125h-125v125zM375 750h125v-125h-125v125zM625 1000h125v-125h-125v125zM625 875h125v-125h-125v125zM625 750h125v-125h-125v125zM625 625h125
v-125h-125v125zM625 500h125v-125h-125v125zM625 375h125v-125h-125v125zM625 250h125v-125h-125v125zM625 125h125v-125h-125v125z" />
    <glyph glyph-name="uni0394" unicode="&#x394;" horiz-adv-x="1000" 
d="M0 125h125v-125h-125v125zM0 250h125v-125h-125v125zM125 500h125v-125h-125v125zM500 125h125v-125h-125v125zM125 125h125v-125h-125v125zM250 125h125v-125h-125v125zM375 125h125v-125h-125v125zM125 375h125v-125h-125v125zM250 625h125v-125h-125v125zM250 750h125
v-125h-125v125zM375 875h125v-125h-125v125zM375 1000h125v-125h-125v125zM500 750h125v-125h-125v125zM500 625h125v-125h-125v125zM625 500h125v-125h-125v125zM625 375h125v-125h-125v125zM750 250h125v-125h-125v125zM750 125h125v-125h-125v125zM625 125h125v-125h-125
v125z" />
    <glyph glyph-name="uni03A9" unicode="&#x3a9;" horiz-adv-x="1125" 
d="M125 250h125v-125h-125v125zM0 500h125v-125h-125v125zM0 625h125v-125h-125v125zM0 750h125v-125h-125v125zM125 875h125v-125h-125v125zM250 1000h125v-125h-125v125zM375 1000h125v-125h-125v125zM500 1000h125v-125h-125v125zM0 375h125v-125h-125v125zM250 125h125
v-125h-125v125zM625 125h125v-125h-125v125zM125 125h125v-125h-125v125zM0 125h125v-125h-125v125zM750 125h125v-125h-125v125zM625 1000h125v-125h-125v125zM750 875h125v-125h-125v125zM875 750h125v-125h-125v125zM875 625h125v-125h-125v125zM875 500h125v-125h-125
v125zM875 375h125v-125h-125v125zM750 250h125v-125h-125v125zM875 125h125v-125h-125v125z" />
    <glyph glyph-name="uni03BC" unicode="&#x3bc;" 
d="M0 -125h125v-125h-125v125zM0 0h125v-125h-125v125zM0 125h125v-125h-125v125zM0 250h125v-125h-125v125zM0 375h125v-125h-125v125zM0 500h125v-125h-125v125zM0 625h125v-125h-125v125zM0 750h125v-125h-125v125zM250 125h125v-125h-125v125zM375 125h125v-125h-125
v125zM500 250h125v-125h-125v125zM500 375h125v-125h-125v125zM500 500h125v-125h-125v125zM500 625h125v-125h-125v125zM500 750h125v-125h-125v125zM125 125h125v-125h-125v125z" />
    <glyph glyph-name="pi" unicode="&#x3c0;" horiz-adv-x="875" 
d="M0 750h125v-125h-125v125zM125 750h125v-125h-125v125zM250 750h125v-125h-125v125zM375 750h125v-125h-125v125zM500 750h125v-125h-125v125zM125 625h125v-125h-125v125zM125 500h125v-125h-125v125zM125 375h125v-125h-125v125zM125 250h125v-125h-125v125zM125 125
h125v-125h-125v125zM500 625h125v-125h-125v125zM500 500h125v-125h-125v125zM500 375h125v-125h-125v125zM500 250h125v-125h-125v125zM500 125h125v-125h-125v125zM625 750h125v-125h-125v125z" />
    <glyph glyph-name="product" unicode="&#x220f;" horiz-adv-x="1000" 
d="M0 1000h125v-125h-125v125zM0 875h125v-125h-125v125zM0 750h125v-125h-125v125zM0 625h125v-125h-125v125zM0 500h125v-125h-125v125zM0 375h125v-125h-125v125zM0 250h125v-125h-125v125zM0 125h125v-125h-125v125zM0 0h125v-125h-125v125zM0 -125h125v-125h-125v125z
M125 1000h125v-125h-125v125zM250 1000h125v-125h-125v125zM375 1000h125v-125h-125v125zM500 1000h125v-125h-125v125zM625 1000h125v-125h-125v125zM750 1000h125v-125h-125v125zM750 875h125v-125h-125v125zM750 750h125v-125h-125v125zM750 625h125v-125h-125v125z
M750 500h125v-125h-125v125zM750 375h125v-125h-125v125zM750 250h125v-125h-125v125zM750 125h125v-125h-125v125zM750 0h125v-125h-125v125zM750 -125h125v-125h-125v125z" />
    <glyph glyph-name="summation" unicode="&#x2211;" horiz-adv-x="1000" 
d="M0 1000h125v-125h-125v125zM125 1000h125v-125h-125v125zM250 1000h125v-125h-125v125zM375 1000h125v-125h-125v125zM500 1000h125v-125h-125v125zM625 1000h125v-125h-125v125zM0 -125h125v-125h-125v125zM125 -125h125v-125h-125v125zM250 -125h125v-125h-125v125z
M375 -125h125v-125h-125v125zM500 -125h125v-125h-125v125zM625 -125h125v-125h-125v125zM250 625h125v-125h-125v125zM375 500h125v-125h-125v125zM125 125h125v-125h-125v125zM250 250h125v-125h-125v125zM375 375h125v-125h-125v125zM0 875h125v-125h-125v125zM125 750
h125v-125h-125v125zM0 0h125v-125h-125v125zM750 1000h125v-125h-125v125zM750 -125h125v-125h-125v125z" />
    <glyph glyph-name="Delta" unicode="&#x2206;" horiz-adv-x="1000" 
d="M0 125h125v-125h-125v125zM0 250h125v-125h-125v125zM125 500h125v-125h-125v125zM500 125h125v-125h-125v125zM125 125h125v-125h-125v125zM250 125h125v-125h-125v125zM375 125h125v-125h-125v125zM125 375h125v-125h-125v125zM250 625h125v-125h-125v125zM250 750h125
v-125h-125v125zM375 875h125v-125h-125v125zM375 1000h125v-125h-125v125zM500 750h125v-125h-125v125zM500 625h125v-125h-125v125zM625 500h125v-125h-125v125zM625 375h125v-125h-125v125zM750 250h125v-125h-125v125zM750 125h125v-125h-125v125zM625 125h125v-125h-125
v125z" />
    <glyph glyph-name="lessequal" unicode="&#x2264;" horiz-adv-x="500" 
d="M0 125h125v-125h-125v125zM125 125h125v-125h-125v125zM250 125h125v-125h-125v125zM0 625h125v-125h-125v125zM125 750h125v-125h-125v125zM250 875h125v-125h-125v125zM125 500h125v-125h-125v125zM250 375h125v-125h-125v125z" />
    <glyph glyph-name="greaterequal" unicode="&#x2265;" horiz-adv-x="500" 
d="M0 125h125v-125h-125v125zM125 125h125v-125h-125v125zM250 125h125v-125h-125v125zM250 625h125v-125h-125v125zM125 750h125v-125h-125v125zM0 875h125v-125h-125v125zM125 500h125v-125h-125v125zM0 375h125v-125h-125v125z" />
    <glyph glyph-name="notequal" unicode="&#x2260;" 
d="M125 250h125v-125h-125v125zM250 500h125v-125h-125v125zM375 750h125v-125h-125v125zM0 375h125v-125h-125v125zM125 375h125v-125h-125v125zM250 375h125v-125h-125v125zM375 375h125v-125h-125v125zM0 625h125v-125h-125v125zM125 625h125v-125h-125v125zM250 625h125
v-125h-125v125zM375 625h125v-125h-125v125zM500 625h125v-125h-125v125zM500 375h125v-125h-125v125z" />
    <glyph glyph-name="approxequal" unicode="&#x2248;" horiz-adv-x="875" 
d="M0 375h125v-125h-125v125zM125 500h125v-125h-125v125zM250 500h125v-125h-125v125zM375 375h125v-125h-125v125zM500 375h125v-125h-125v125zM625 500h125v-125h-125v125zM0 625h125v-125h-125v125zM125 750h125v-125h-125v125zM250 750h125v-125h-125v125zM375 625h125
v-125h-125v125zM500 625h125v-125h-125v125zM625 750h125v-125h-125v125z" />
    <glyph glyph-name="infinity" unicode="&#x221e;" horiz-adv-x="1250" 
d="M0 500h125v-125h-125v125zM0 375h125v-125h-125v125zM125 250h125v-125h-125v125zM250 250h125v-125h-125v125zM625 250h125v-125h-125v125zM500 625h125v-125h-125v125zM0 625h125v-125h-125v125zM125 750h125v-125h-125v125zM250 750h125v-125h-125v125zM375 750h125
v-125h-125v125zM500 500h125v-125h-125v125zM500 375h125v-125h-125v125zM375 250h125v-125h-125v125zM625 750h125v-125h-125v125zM750 750h125v-125h-125v125zM875 750h125v-125h-125v125zM1000 625h125v-125h-125v125zM1000 500h125v-125h-125v125zM1000 375h125v-125
h-125v125zM875 250h125v-125h-125v125zM750 250h125v-125h-125v125z" />
    <glyph glyph-name="integral" unicode="&#x222b;" 
d="M250 0h125v-125h-125v125zM250 125h125v-125h-125v125zM250 250h125v-125h-125v125zM250 375h125v-125h-125v125zM250 500h125v-125h-125v125zM250 625h125v-125h-125v125zM250 875h125v-125h-125v125zM250 750h125v-125h-125v125zM250 1000h125v-125h-125v125zM250 1125
h125v-125h-125v125zM250 1250h125v-125h-125v125zM375 1375h125v-125h-125v125zM250 -125h125v-125h-125v125zM125 -250h125v-125h-125v125zM500 1375h125v-125h-125v125zM0 -250h125v-125h-125v125z" />
    <glyph glyph-name="radical" unicode="&#x221a;" horiz-adv-x="875" 
d="M250 125h125v-125h-125v125zM250 250h125v-125h-125v125zM375 375h125v-125h-125v125zM375 500h125v-125h-125v125zM500 625h125v-125h-125v125zM500 750h125v-125h-125v125zM625 875h125v-125h-125v125zM625 1000h125v-125h-125v125zM125 250h125v-125h-125v125zM0 375
h125v-125h-125v125z" />
    <glyph glyph-name="Omega" unicode="&#x2126;" horiz-adv-x="1125" 
d="M125 250h125v-125h-125v125zM0 500h125v-125h-125v125zM0 625h125v-125h-125v125zM0 750h125v-125h-125v125zM125 875h125v-125h-125v125zM250 1000h125v-125h-125v125zM375 1000h125v-125h-125v125zM500 1000h125v-125h-125v125zM0 375h125v-125h-125v125zM250 125h125
v-125h-125v125zM625 125h125v-125h-125v125zM125 125h125v-125h-125v125zM0 125h125v-125h-125v125zM750 125h125v-125h-125v125zM625 1000h125v-125h-125v125zM750 875h125v-125h-125v125zM875 750h125v-125h-125v125zM875 625h125v-125h-125v125zM875 500h125v-125h-125
v125zM875 375h125v-125h-125v125zM750 250h125v-125h-125v125zM875 125h125v-125h-125v125z" />
    <glyph glyph-name="lozenge" unicode="&#x25ca;" horiz-adv-x="1000" 
d="M375 125h125v-125h-125v125zM125 625h125v-125h-125v125zM250 750h125v-125h-125v125zM375 875h125v-125h-125v125zM500 750h125v-125h-125v125zM625 625h125v-125h-125v125zM750 500h125v-125h-125v125zM625 375h125v-125h-125v125zM500 250h125v-125h-125v125zM0 500
h125v-125h-125v125zM250 250h125v-125h-125v125zM125 375h125v-125h-125v125z" />
    <glyph glyph-name="apple" unicode="&#xf8ff;" horiz-adv-x="1000" 
d="M0 750h125v-125h-125v125zM250 750h125v-125h-125v125zM625 250h125v-125h-125v125zM500 250h125v-125h-125v125zM750 250h125v-125h-125v125zM625 375h125v-125h-125v125zM625 125h125v-125h-125v125zM125 875h125v-125h-125v125zM125 750h125v-125h-125v125zM125 625
h125v-125h-125v125zM125 375h125v-125h-125v125zM125 125h125v-125h-125v125zM0 250h125v-125h-125v125zM250 250h125v-125h-125v125zM500 750h125v-125h-125v125zM750 750h125v-125h-125v125zM625 625h125v-125h-125v125zM625 875h125v-125h-125v125z" />
    <glyph glyph-name="partialdiff" unicode="&#x2202;" 
d="M0 250h125v-125h-125v125zM125 125h125v-125h-125v125zM250 125h125v-125h-125v125zM500 250h125v-125h-125v125zM500 375h125v-125h-125v125zM500 500h125v-125h-125v125zM0 375h125v-125h-125v125zM0 500h125v-125h-125v125zM125 625h125v-125h-125v125zM250 625h125
v-125h-125v125zM375 125h125v-125h-125v125zM375 625h125v-125h-125v125zM500 625h125v-125h-125v125zM500 750h125v-125h-125v125zM500 875h125v-125h-125v125zM375 1000h125v-125h-125v125z" />
    <glyph glyph-name="tilde_narrow" horiz-adv-x="875" 
d="M0 500h125v-125h-125v125zM125 625h125v-125h-125v125zM250 625h125v-125h-125v125zM375 500h125v-125h-125v125zM500 500h125v-125h-125v125zM625 625h125v-125h-125v125z" />
    <glyph glyph-name="dieresis_wide" horiz-adv-x="625" 
d="M0 1000h125v-125h-125v125zM375 1000h125v-125h-125v125z" />
    <glyph glyph-name="macron_narrow" horiz-adv-x="500" 
d="M0 1250h125v-125h-125v125zM125 1250h125v-125h-125v125zM250 1250h125v-125h-125v125z" />
    <glyph glyph-name="caron_wide" horiz-adv-x="625" 
d="M0 1125h125v-125h-125v125zM125 1000h125v-125h-125v125zM250 1000h125v-125h-125v125zM375 1125h125v-125h-125v125z" />
    <glyph glyph-name="macron_semi" horiz-adv-x="625" 
d="M0 1250h125v-125h-125v125zM125 1250h125v-125h-125v125zM250 1250h125v-125h-125v125zM375 1250h125v-125h-125v125z" />
    <glyph glyph-name="comma_acc" horiz-adv-x="375" 
d="M125 125h125v-125h-125v125zM0 0h125v-125h-125v125z" />
    </font>
</defs>
</svg>
