<?xml version="1.0" encoding="iso-8859-1"?>
<!-- Generator: Adobe Illustrator 16.0.0, SVG Export Plug-In . SVG Version: 6.00 Build 0)  -->
<!DOCTYPE svg PUBLIC "-//W3C//DTD SVG 1.1//EN" "http://www.w3.org/Graphics/SVG/1.1/DTD/svg11.dtd">
<svg version="1.1" id="Capa_1" xmlns="http://www.w3.org/2000/svg" xmlns:xlink="http://www.w3.org/1999/xlink" x="0px" y="0px"
	 width="792px" height="792px" viewBox="0 0 792 792" style="enable-background:new 0 0 792 792;" xml:space="preserve">
<g>
	<path d="M306,150.48v459.36c0,0-6.696,96.408,91.476,96.408C486,706.248,486,609.84,486,609.84V126.72C486,126.72,486,0,360,0
		S234,126.72,234,126.72v483.12c0,0,0,182.16,162,182.16s162-182.16,162-182.16V126.72c0-19.8-36-19.8-36,0v483.12
		c0,0,13.104,146.16-126,146.16c-126,0-126-146.16-126-146.16V126.72c0,0,0-90.72,90-90.72s90,90.72,90,90.72v483.12
		c0,0,0,56.809-52.524,56.809c-52.523,0-55.476-56.809-55.476-56.809V150.48C342,130.68,306,130.68,306,150.48z"/>
</g>
<g>
</g>
<g>
</g>
<g>
</g>
<g>
</g>
<g>
</g>
<g>
</g>
<g>
</g>
<g>
</g>
<g>
</g>
<g>
</g>
<g>
</g>
<g>
</g>
<g>
</g>
<g>
</g>
<g>
</g>
</svg>
