<?xml version="1.0" encoding="iso-8859-1"?>
<!-- Generator: Adobe Illustrator 16.0.0, SVG Export Plug-In . SVG Version: 6.00 Build 0)  -->
<!DOCTYPE svg PUBLIC "-//W3C//DTD SVG 1.1//EN" "http://www.w3.org/Graphics/SVG/1.1/DTD/svg11.dtd">
<svg version="1.1" id="Capa_1" xmlns="http://www.w3.org/2000/svg" xmlns:xlink="http://www.w3.org/1999/xlink" x="0px" y="0px"
	 width="80px" height="80px" viewBox="0 0 80 80" style="enable-background:new 0 0 80 80;" xml:space="preserve">
<g>
	<g>
		<path d="M30.861,42.342l5.075,5.075l3.133-3.133c-1.812-1.609-3.967-2.562-5.887-2.562C32.284,41.725,31.496,41.938,30.861,42.342
			z"/>
		<path d="M36.446,48.947l-3.642,3.642c1.812,1.609,3.967,2.562,5.886,2.562c1.188,0,2.187-0.371,2.888-1.072
			c0.939-0.939,1.277-2.399,0.951-4.107c-0.309-1.607-1.166-3.244-2.438-4.671l-3.646,3.646
			C36.447,48.945,36.446,48.945,36.446,48.947L36.446,48.947z"/>
		<path d="M20.447,58.909h31.896c0.398,0,0.722-0.323,0.722-0.722v-5.384V48.84v-9.033c0-0.398-0.322-0.721-0.722-0.721H27.606
			l2.221,2.223c0.911-0.672,2.054-1.027,3.355-1.027c2.482,0,5.263,1.297,7.437,3.472c1.744,1.744,2.925,3.854,3.324,5.946
			c0.422,2.191-0.058,4.109-1.346,5.398c-0.979,0.978-2.329,1.493-3.908,1.493c-2.481,0-5.262-1.298-7.436-3.472
			c-1.745-1.744-2.926-3.855-3.327-5.946c-0.364-1.899-0.051-3.592,0.878-4.848l-3.238-3.239H22.61h-2.163
			c-0.396,0-0.721,0.323-0.721,0.721v18.38C19.727,58.586,20.051,58.909,20.447,58.909z"/>
		<path d="M29.344,46.902c0.309,1.608,1.167,3.244,2.438,4.672l3.137-3.137l-5.071-5.07C29.26,44.282,29.076,45.506,29.344,46.902z"
			/>
		<path d="M47.659,25.324h13.335c0.398,0,0.721-0.323,0.721-0.721c0-0.397-0.322-0.721-0.721-0.721H47.659
			c-0.398,0-0.722,0.323-0.722,0.721S47.261,25.324,47.659,25.324z"/>
		<path d="M25.314,35.393h1.622h0.63c0.398,0,0.722-0.323,0.722-0.721s-0.323-0.721-0.722-0.721h-0.63h-1.622
			c-0.398,0-0.721,0.323-0.721,0.721C24.593,35.069,24.915,35.393,25.314,35.393z"/>
		<path d="M57.391,32.419V48.84h2.162c0.397,0,0.721-0.322,0.721-0.721v-18.38c0-0.398-0.322-0.721-0.721-0.721H27.656
			c-0.397,0-0.721,0.323-0.721,0.721v0.518h28.292C56.42,30.257,57.391,31.227,57.391,32.419z"/>
		<path d="M53.786,33.951H40.45c-0.397,0-0.721,0.323-0.721,0.721c0,0.397,0.323,0.721,0.721,0.721h13.336
			c0.397,0,0.721-0.323,0.721-0.721S54.186,33.951,53.786,33.951z"/>
		<path d="M40,80c22.092,0,40-17.909,40-40S62.092,0,40,0S0,17.909,0,40S17.908,80,40,80z M15.402,32.419
			c0-1.192,0.97-2.162,2.162-2.162h5.046V22.35c0-1.192,0.97-2.163,2.162-2.163h37.664c1.191,0,2.162,0.97,2.162,2.163v28.292
			c0,1.191-0.971,2.161-2.162,2.161h-5.047v7.907c0,1.191-0.97,2.163-2.162,2.163H17.564c-1.192,0-2.162-0.97-2.162-2.163V32.419z"
			/>
	</g>
</g>
<g>
</g>
<g>
</g>
<g>
</g>
<g>
</g>
<g>
</g>
<g>
</g>
<g>
</g>
<g>
</g>
<g>
</g>
<g>
</g>
<g>
</g>
<g>
</g>
<g>
</g>
<g>
</g>
<g>
</g>
</svg>
